<?xml version="1.0" standalone="no"?>
<!DOCTYPE svg PUBLIC "-//W3C//DTD SVG 1.1//EN" "http://www.w3.org/Graphics/SVG/1.1/DTD/svg11.dtd" >
<svg xmlns="http://www.w3.org/2000/svg" xmlns:xlink="http://www.w3.org/1999/xlink" version="1.1">
<metadata>
Created by FontForge 20170731 at Mon Nov 26 17:20:59 2018
 By Aleksey,,,
</metadata>
<defs>
<font id="CaliforniaSunshineAlternate" horiz-adv-x="424" >
  <font-face 
    font-family="California Sunshine Alternate"
    font-weight="400"
    font-stretch="normal"
    units-per-em="1000"
    panose-1="0 0 0 0 0 0 0 0 0 0"
    ascent="800"
    descent="-200"
    x-height="666"
    cap-height="675"
    bbox="21.6154 -186.533 753.04 868.154"
    underline-thickness="50"
    underline-position="-200"
    unicode-range="U+000A-00F7"
  />
<missing-glyph horiz-adv-x="527" 
d="M50 700h427v-700h-427v700zM78 680l185 -309l186 309h-371zM251 350l-180 300v-601zM264 329l-185 -308h370zM276 350l181 -303v605z" />
    <glyph glyph-name=".notdef" horiz-adv-x="527" 
d="M50 700h427v-700h-427v700zM78 680l185 -309l186 309h-371zM251 350l-180 300v-601zM264 329l-185 -308h370zM276 350l181 -303v605z" />
    <glyph glyph-name=".null" horiz-adv-x="0" 
 />
    <glyph glyph-name=".null" horiz-adv-x="0" 
 />
    <glyph glyph-name="nonmarkingreturn" horiz-adv-x="333" 
 />
    <glyph glyph-name="controlLF" unicode="&#xa;" horiz-adv-x="0" 
 />
    <glyph glyph-name="controlCR" unicode="&#xd;" horiz-adv-x="0" 
 />
    <glyph glyph-name="space" unicode=" " horiz-adv-x="247" 
 />
    <glyph glyph-name="exclam" unicode="!" horiz-adv-x="191" 
d="M167 709q1 -8 1 -104q-3 -68 -4 -78q-3 -67 -34 -151q-23 -61 -18 -107q1 -4 7 -35q2 -12 -0.5 -16.5t-12.5 -7.5q-18 -4 -46 -7q-15 -1 -23 18q-18 43 -14 80q4 44 11 70q20 69 13 195q-2 38 -2 143q0 12 3.5 16.5t15.5 5.5q44 4 72 5q18 1 24 -4.5t7 -22.5zM108 157
q3 0 11 -0.5t11.5 -1.5t9.5 -2.5t10 -5.5t7 -10q17 -37 3 -73q-3 -8 -16 -12q-4 -1 -21 -1q-32 2 -40 8t-15 37q-2 5 -5.5 17t-4.5 18q-3 12 -0.5 16.5t14.5 7.5q5 2 9 2h22h5z" />
    <glyph glyph-name="quotedbl" unicode="&#x22;" horiz-adv-x="330" 
d="M142 768q1 -7 7 -84h-1h-1v-70q-1 -28 -27 -32q-30 -4 -51 -5q-27 0 -32 27q-19 96 -14 149q2 19 9.5 27t26.5 11q28 5 50 5q16 0 23.5 -6t9.5 -22zM297 769q1 -9 10 -97q-4 -52 -5 -60q-2 -21 -22 -22q-21 0 -36 4q-28 6 -30 34q0 6 -5 62t-7 85q0 14 4 18.5t18 6.5
q19 2 37 1q17 -1 25 -8t11 -24z" />
    <glyph glyph-name="quotedbl" unicode="&#x201d;" horiz-adv-x="330" 
d="M142 768q1 -7 7 -84h-1h-1v-70q-1 -28 -27 -32q-30 -4 -51 -5q-27 0 -32 27q-19 96 -14 149q2 19 9.5 27t26.5 11q28 5 50 5q16 0 23.5 -6t9.5 -22zM297 769q1 -9 10 -97q-4 -52 -5 -60q-2 -21 -22 -22q-21 0 -36 4q-28 6 -30 34q0 6 -5 62t-7 85q0 14 4 18.5t18 6.5
q19 2 37 1q17 -1 25 -8t11 -24z" />
    <glyph glyph-name="quotedbl" unicode="&#x201c;" horiz-adv-x="330" 
d="M142 768q1 -7 7 -84h-1h-1v-70q-1 -28 -27 -32q-30 -4 -51 -5q-27 0 -32 27q-19 96 -14 149q2 19 9.5 27t26.5 11q28 5 50 5q16 0 23.5 -6t9.5 -22zM297 769q1 -9 10 -97q-4 -52 -5 -60q-2 -21 -22 -22q-21 0 -36 4q-28 6 -30 34q0 6 -5 62t-7 85q0 14 4 18.5t18 6.5
q19 2 37 1q17 -1 25 -8t11 -24z" />
    <glyph glyph-name="numbersign" unicode="#" horiz-adv-x="599" 
d="M555 543q17 -2 20.5 -9t-5.5 -21q-29 -48 -72 -44q-2 0 -7 -0.5t-8 0.5q-19 3 -30.5 -6t-18.5 -29q-21 -52 -12 -99q43 -2 46 -1q42 2 56 -37q10 -28 12 -39q4 -27 -23 -32q-3 0 -53 -3q-3 0 -10 -1q-23 -88 -25 -97q-9 -28 -25 -57q-10 -18 -36 -21t-40 13q-7 8 -6 22
q1 24 7 75q5 43 2 70q-14 -1 -29.5 -1.5t-32.5 -1.5t-28 -2q-16 -88 -18 -96q-6 -28 -18 -58q-7 -18 -32.5 -21t-36.5 13q-6 8 -4 23q0 8 1 17t2 16.5t2 17t2 17.5q1 4 4 67q-36 3 -38 3q-41 4 -50 6q-29 6 -29 34q0 4 3 59q14 6 29 8.5t35.5 3t29.5 1.5q1 55 34 122h-33
q-30 0 -34 1q-14 1 -17.5 7t2.5 18l35 70h96q10 26 18 55.5t15.5 67t12.5 57.5q38 9 40 9q19 2 28.5 -7.5t7.5 -28.5q0 -10 -4 -29l-25 -125h93q12 22 19.5 55t15.5 66t21 57q45 6 48 6q38 0 36 -38q-5 -90 -25 -138l-2 -11q51 -4 54 -4zM306 338q-5 61 37 131
q-72 -3 -83 -4t-16 -11q-24 -44 -28 -83v-33h90z" />
    <glyph glyph-name="dollar" unicode="$" horiz-adv-x="403" 
d="M368 203q23 -35 3 -74q-17 -33 -40.5 -55t-56.5 -31q-1 0 -18 -6q-1 -3 -1 -9.5v-11t-1 -8.5q-4 -19 -23 -20q-17 -1 -29 0q-17 1 -24.5 9t-7.5 25v14l-3 4q-66 6 -103 82q-12 23 -38 84q-5 12 -3 17.5t13 11.5q9 5 20 9q36 12 57 -15q4 -4 46 -60q16 -22 18 -23
q24 -25 52 -11q36 19 28 54q-4 16 -13 28q-15 19 -30 31q-52 41 -101 76q-47 33 -66 61q-22 33 -11 69q16 51 17 127q0 92 80 145q2 1 40 21q4 35 11.5 44.5t31.5 8.5q25 -1 32.5 -10t8.5 -40q62 -50 67 -54q37 -31 48 -85q3 -17 -2 -24.5t-23 -10.5q-10 -1 -50 -3
q-19 -2 -23 18q-8 44 -59 58q-20 5 -34.5 -3t-19.5 -28q-5 -19 -3 -45q2 -12 12 -36q32 -73 40 -120q9 -52 63 -111q8 -9 26.5 -26.5t26.5 -26.5q28 -30 42 -50z" />
    <glyph glyph-name="percent" unicode="%" horiz-adv-x="530" 
d="M401 553q-23 -39 -83 -84q-53 -39 -69 -53q-25 -22 -45 -48q-26 -35 -10 -81q6 -17 8 -22q25 -56 -1 -113q-7 -17 -47 -96q-4 -7 -10 -14q-13 -16 -30.5 -17t-32.5 13q-15 12 -6 33q5 11 16 33.5t17 34.5q11 24 16 40q12 39 -1 77q-4 12 -12 39q-17 56 20 95q21 21 57 53
q9 8 26.5 21t22.5 18q58 46 92 109q9 17 27.5 50t27.5 50q6 11 35 69q15 32 44 11q24 -18 24 -49q-8 -25 -8 -26q-56 -107 -78 -143zM122 464q-23 -13 -50 -25q-12 -5 -26 -4q-9 1 -15.5 5t-8 10.5t1.5 15.5q7 21 10.5 45.5t4 41.5t1 47.5t0.5 43.5q1 14 8 60q1 9 6 18
q23 41 50.5 47t59.5 -20q35 -24 41 -66q1 -5 8 -65q4 -101 -91 -154zM107 674q-2 -37 -5 -149l3 -7q20 8 29 34q19 56 2 124q0 1 -1 3q-1 6 -2 9t-4.5 6t-8.5 3q-12 -1 -13 -23zM472 237q41 -47 34 -121v-30q-1 -43 -40 -68q-27 -18 -58 -5t-40 46q-9 32 -12 67
q-5 78 -37 136q-8 15 -11 27q-3 9 -1.5 16.5t5.5 13t10.5 9t15.5 4.5q39 5 62 -19q64 -66 72 -76zM432 83q15 20 19 50t-6 59.5t-33 42.5q-3 -2 -4.5 -5.5t-1.5 -5.5t1.5 -7t1.5 -6q7 -35 11 -67q1 -6 2 -20t2 -21q0 -1 8 -20z" />
    <glyph glyph-name="ampersand" unicode="&#x26;" horiz-adv-x="519" 
d="M492 130q10 -40 -2 -79q-9 -29 -34 -13q-12 7 -36 31q-3 2 -36 38q-32 -37 -91 -58q-42 -14 -86.5 -2t-71.5 46q-12 14 -19 26q-50 84 -73 123q-10 17 -18 42q-11 36 16 60q28 27 58 47q18 13 21 30q10 60 5 106q-9 81 19 133q43 80 117 93q33 6 53 -8q5 -3 10.5 -6.5
t10.5 -6.5l10 -6t10.5 -6.5t10.5 -6.5q16 -11 24 -38q26 -84 -25 -163q-25 -40 -74 -75q-40 -29 -64 -44q-15 -10 -11 -27q3 -10 5 -14q25 -54 98 -109q-6 28 -6 29q-12 42 5 90q11 32 41 37q30 4 43 5q13 0 17.5 -5.5t2.5 -17.5q-2 -9 -7 -23q-17 -53 -7 -110q5 -36 5 -39
q-2 -30 29 -44q19 -9 38 -21q10 -6 12 -14zM240 635q-23 -52 -21 -91q0 -6 6 -89q104 46 84 174q-1 5 -6 13q-11 19 -27 20t-30 -16q-4 -5 -6 -11zM283 135q2 1 36 30q-9 8 -78 62.5t-98 90.5q-28 -31 -11 -68q10 -19 53 -94q3 -5 14 -14q40 -35 84 -7z" />
    <glyph glyph-name="quotesingle" unicode="'" horiz-adv-x="136" 
d="M111 525q2 -52 3 -55q0 -13 -3 -20t-9.5 -10.5t-19.5 -5.5q-28 -5 -38.5 2.5t-14.5 34.5q-1 4 -7 106q-1 17 14 22q31 10 44 12q28 2 29 -28v-58h2z" />
    <glyph glyph-name="quotesingle" unicode="&#x2019;" horiz-adv-x="136" 
d="M111 525q2 -52 3 -55q0 -13 -3 -20t-9.5 -10.5t-19.5 -5.5q-28 -5 -38.5 2.5t-14.5 34.5q-1 4 -7 106q-1 17 14 22q31 10 44 12q28 2 29 -28v-58h2z" />
    <glyph glyph-name="quotesingle" unicode="&#x2018;" horiz-adv-x="136" 
d="M111 525q2 -52 3 -55q0 -13 -3 -20t-9.5 -10.5t-19.5 -5.5q-28 -5 -38.5 2.5t-14.5 34.5q-1 4 -7 106q-1 17 14 22q31 10 44 12q28 2 29 -28v-58h2z" />
    <glyph glyph-name="parenleft" unicode="(" horiz-adv-x="309" 
d="M280 40q8 -12 6 -18t-16 -14q-5 -3 -15 -9.5t-11 -7.5q-17 -11 -27.5 -9t-21.5 18q-14 19 -22 38q-33 70 -92 142q-27 34 -41 63q-3 7 -6 15t-4.5 15t-3.5 16.5t-4 14.5q2 7 4 20.5t4.5 23t5.5 17.5q28 68 43 174q17 117 89 221q9 13 30 35q8 8 17 10q8 2 15 -0.5
t10.5 -6t10 -11t9.5 -9.5q15 -16 4 -36q-1 -3 -7 -12q-49 -73 -85 -169q-4 -9 -19 -70q-3 -11 -11.5 -44.5t-13.5 -52.5q-23 -89 22 -161q6 -10 19 -28t17 -24q68 -101 94 -141z" />
    <glyph glyph-name="parenright" unicode=")" horiz-adv-x="251" 
d="M218 527q1 -4 11 -72q-18 -107 -19 -116q-13 -89 -13 -118q-3 -111 -69 -220q-8 -12 -19 -22q-26 -24 -57 -6q-4 3 -10 7q-18 11 -19.5 17.5t5.5 25.5q26 71 38 113q8 28 9 62q2 113 28 186q22 60 5 156q-11 64 -20 103q-16 66 -55 123q-8 11 -7 15.5t12 13.5
q22 15 35 23q10 5 15.5 4t12.5 -11l6 -8q85 -163 111 -276z" />
    <glyph glyph-name="asterisk" unicode="*" horiz-adv-x="318" 
d="M276 801q11 -15 20 -47q0 -1 -2 -4t-5 -6t-6 -4q-8 -4 -23 -9.5t-18 -6.5q-2 0 -29 -12q24 -31 25 -32q10 -15 9 -22.5t-15 -18.5q-26 -19 -33 -18t-25 27q-1 2 -21 29q-40 -49 -43 -52q-18 -21 -27.5 -20t-24.5 24q-7 10 -6.5 16t9.5 16q6 7 13 15t15.5 17t13.5 15
q1 1 19 21q-4 0 -9.5 -0.5t-9 -0.5t-6.5 -1q-47 -2 -53 -3q-19 -1 -21 19q-1 14 -1 29q1 13 5.5 18.5t17.5 6.5q5 1 43 1h26q-5 42 -5 45q-1 15 4 20.5t21 4.5q7 0 19 -2q18 -3 25 -10.5t10 -25.5q1 -2 5 -35q46 7 49 8q3 0 9 1.5t9.5 2t8 -0.5t7.5 -5z" />
    <glyph glyph-name="plus" unicode="+" horiz-adv-x="312" 
d="M243 292q29 4 38.5 -5.5t7.5 -37.5q-1 -13 -2.5 -19.5t-3 -12t-7 -7.5t-11.5 -4t-18 -3q-2 -1 -42 -5v-52q-1 -8 -2 -12.5t-4.5 -8t-8 -4.5t-12.5 -1q-15 -1 -26.5 0t-20 5.5t-13 16.5t-3.5 33l-2 17q-37 -2 -39 -3q-27 -3 -35.5 3.5t-13.5 32.5q0 1 -0.5 1.5t-0.5 1.5
q-4 24 1.5 32t29.5 12q14 2 50 8l1 1q0 61 -1 66q-1 17 6.5 24t23.5 8q18 2 31 0q30 -2 31 -30v-61q44 4 46 4z" />
    <glyph glyph-name="comma" unicode="," horiz-adv-x="166" 
d="M144 -9l-1 -17h1q-8 -61 -8 -65q-15 -64 -62 -89q-13 -7 -20 -6.5t-15 7.5q-13 13 -16 22.5t3 22.5q26 48 16 121q-5 31 1 38.5t37 10.5q18 2 34.5 1.5t22.5 -6t7 -23.5v-17z" />
    <glyph glyph-name="hyphen" unicode="-" horiz-adv-x="300" 
d="M211 412h36q16 -1 23 -8.5t8 -24.5q3 -59 -57 -66q-94 -10 -118 -12q-16 -2 -53 0q-18 1 -21 15q-7 31 -7 42q0 18 8 27t26 13q13 3 24 4q24 2 131 10z" />
    <glyph glyph-name="period" unicode="." horiz-adv-x="157" 
d="M114 83q11 -2 16 -7.5t4 -17.5q-1 -37 -6 -63q-3 -15 -14 -23.5t-26 -7.5q-24 2 -45 13q-12 6 -17 25q-1 3 -4 36h1v3.5v3.5q0 27 8 34.5t35 7.5q26 0 48 -4z" />
    <glyph glyph-name="slash" unicode="/" horiz-adv-x="402" 
d="M371 609l9 -8q-25 -53 -27 -56q-23 -51 -89 -197q-82 -178 -92 -200q-34 -77 -54 -127q-10 -27 -25.5 -34t-41.5 5q-22 9 -27 19.5t3 33.5q5 16 43 110q21 53 28 67q8 18 29 63t32 69q11 26 32.5 78.5t32.5 78.5q8 16 53 112q8 15 19 12q23 -7 75 -26z" />
    <glyph glyph-name="zero" unicode="0" 
d="M398 461h1q0 -4 1 -4q10 -106 -47 -200q-40 -65 -18 -145q5 -18 8 -31q4 -15 2 -26t-8.5 -18.5t-20.5 -15.5q-45 -25 -106 -17q-93 13 -162 103q-38 50 -20 128q6 27 13 44q20 50 24 135q2 66 14 148q8 59 53 104q37 37 95 42q67 5 117 -26q39 -24 45 -61q5 -33 9 -96
v-64zM278 369q1 8 10 103q-5 75 -6 86q-1 10 -6 21q-11 21 -31.5 22.5t-33 -18.5t-16.5 -43q-10 -71 -10 -104q1 -93 -37 -174q-12 -25 -18 -67q-4 -27 8 -46.5t34 -27.5q18 -6 25.5 -1t7.5 23q-1 68 41 138q27 46 32 88z" />
    <glyph glyph-name="one" unicode="1" horiz-adv-x="243" 
d="M122 533q0 1 -3 14q-51 -3 -54 -3q-24 -1 -31 5t-10 29q-2 11 -2 12q-1 22 4 28t27 10q36 7 76 35q4 3 18 25q9 14 28 20t33 -1q8 -4 10.5 -14.5t2.5 -28.5q-3 -135 -5 -265q-1 -47 -32 -106q-21 -41 -22 -43q-25 -52 -2 -106q5 -11 15.5 -32.5t12.5 -23.5q22 -45 26 -55
q4 -12 1 -17.5t-15 -9.5q-6 -2 -14 -3q-34 -5 -43 -0.5t-24 35.5q-7 13 -15 27.5t-17.5 32t-14.5 27.5q-37 68 4 142q3 4 9 15t9 16q30 55 29 109q0 24 -0.5 68.5t-0.5 57.5z" />
    <glyph glyph-name="two" unicode="2" horiz-adv-x="445" 
d="M182 502v-22q-5 0 -25.5 -1.5t-28.5 -2t-23 0t-28 2.5q-1 34 -1 36q5 60 23 103q33 77 126 97q14 3 29 0q92 -19 131 -84q14 -23 26 -51q20 -46 6 -103q-25 -98 -96 -162q-50 -46 -74 -71q-59 -62 -70 -125q-2 -9 -2 -10l2 -6q13 -1 14 -1q28 1 80.5 3.5t71.5 2.5
q21 1 26.5 -2t13.5 -23q14 -33 18 -50q4 -14 -0.5 -21t-18.5 -11q-9 -2 -19 -2q-85 -2 -253 -5q-9 0 -19 1q-14 0 -21 14q-27 53 -41 77q-15 25 2 44q66 73 73 81q19 20 57 58l56 56q61 64 90 145q14 40 10 74q-4 33 -33.5 48.5t-60.5 2.5q-24 -10 -29 -31q-5 -19 -12 -62z
" />
    <glyph glyph-name="three" unicode="3" horiz-adv-x="429" 
d="M340 382q-1 -1 -12 -11q24 -13 32 -33.5t8 -50.5q0 -8 5 -123q2 -40 2 -44q-1 -43 -27.5 -74.5t-68.5 -40.5q-63 -14 -117 16q-70 38 -113 98q-12 17 -25 49q-7 20 12 21q27 2 80 2q13 0 20 -19q12 -27 46 -52q13 -10 28 -12q40 -4 42 33q2 51 -2 107q-2 17 -16 31.5
t-32 17.5q-3 1 -39 3q-1 0 -21 1q5 22 6 23q18 66 19 70q3 14 18 20q37 15 52 22q82 42 51 145q-5 18 -25 23q-22 6 -44.5 -3t-31.5 -36q-4 -13 -10 -48q-2 -17 -19 -16q-15 1 -86 6q-9 33 5 80q17 55 71.5 91.5t112.5 30.5q27 -2 46 -14q62 -39 87 -102q22 -55 6.5 -113.5
t-60.5 -97.5z" />
    <glyph glyph-name="four" unicode="4" horiz-adv-x="395" 
d="M327 331q-11 -40 -7 -72h28q14 0 15 -11q1 -6 10 -76q-8 -6 -25.5 -6.5t-24.5 -3.5q13 -56 14 -61q6 -33 8 -70q1 -13 -3 -17.5t-17 -5.5q-9 -1 -62 1q-19 1 -21 22q-3 41 -9 82q-1 3 -12 52q-67 0 -72 -1q-8 0 -37 -1t-45 -1q-22 1 -30 8t-11 29q-4 19 -4 39
q-1 33 16 52q18 21 36 47t29.5 43.5t29 53t23 47t25.5 55t23 49.5q26 56 46 102q6 14 19 14q7 0 14.5 0.5t14 1t14 0.5h13.5q15 0 21 -5t9 -20q2 -17 2 -31q-1 -22 -3 -76.5t-3 -83.5q-2 -72 -24 -156zM230 361q16 54 17 99q-90 -128 -102 -146q-16 -22 -17 -50h74
q26 90 28 97z" />
    <glyph glyph-name="five" unicode="5" horiz-adv-x="402" 
d="M114.5 44.5q-36.5 26.5 -60 60t-32.5 75.5q24 13 71 16q25 1 33 -23q12 -39 50 -53q24 -9 39.5 2t14.5 37q-1 5 -1.5 10.5t-1.5 12.5t-1 10q-5 48 9 116q6 32 6 38q2 24 -1 39q-6 29 -32 16q-14 -7 -21.5 -11.5t-16 -14t-11.5 -21.5q-9 -29 -40 -28q-7 1 -22 0.5t-22 0.5
q-11 0 -14.5 4.5t-2.5 15.5l2 10q20 73 15 195q-1 35 -3 109q0 11 1 19q3 17 20 17q79 1 257 4q17 0 23 -5.5t7 -20.5q0 -14 -3 -63q-1 -14 -16 -15q-9 -1 -22 -1h-143h-26q-5 -15 -2 -68.5t2 -69.5q19 12 20 12q48 22 57 24q50 14 89.5 -23t30.5 -92q-5 -32 -19 -80
q-18 -62 -5 -127q4 -25 7 -53q3 -48 -35 -73q-69 -45 -136 -33q-28 5 -64.5 31.5z" />
    <glyph glyph-name="six" unicode="6" horiz-adv-x="403" 
d="M193 580q-5 -14 -11 -45.5t-9 -64.5t-3 -51q41 20 92 19q55 -1 65 -53q5 -26 2 -46q-9 -73 15 -163q5 -20 6 -43q2 -49 -28.5 -88.5t-74.5 -45.5q-27 -3 -75 4q-27 3 -50 32q-56 72 -85 144q-28 70 -3 152q25 81 28 137q1 17 3 49.5t4 47.5q0 9 2 17q22 124 147 130
q20 1 32 0q81 -3 114 -79q18 -44 17 -73q-1 -13 -4.5 -17t-17.5 -5q-18 -2 -29 -1q-25 1 -30 5q-4 2 -7.5 12t-5.5 12q-20 33 -28 42q-13 14 -29 12.5t-27 -18.5q-5 -7 -10 -22zM244 131q1 2 7 30q-7 54 -7 56q-2 13 -5.5 44t-5.5 48q-5 40 -52 35q-8 -1 -25 -9
q-15 -7 -18 -24q-11 -62 6 -118q14 -43 50 -73q14 -13 28.5 -10t21.5 21z" />
    <glyph glyph-name="seven" unicode="7" horiz-adv-x="360" 
d="M221 571q0 1 4 20q-87 -4 -91 -5q-68 -3 -78 -3q-19 0 -24.5 5t-6.5 24q-3 33 -3 63q0 2 4 28l13 3q155 6 235 8q12 1 42 -1q9 -1 12.5 -2.5t5.5 -5t2 -12.5q1 -45 2 -107q0 -8 -4 -22q-24 -87 -58 -151l-22 -44q-40 -83 -38 -169q1 -61 -24 -175q-5 -19 -23 -21
q-6 -1 -24 -4.5t-28 -3.5q-22 0 -29 8t-3 29q2 14 7.5 44.5t7.5 46.5q4 33 3 61q-5 103 47 198q45 81 71 188z" />
    <glyph glyph-name="eight" unicode="8" horiz-adv-x="384" 
d="M82 361q1 1 29 19q-29 12 -43 33t-25 55q-22 69 -7 122q8 26 20 41q64 79 159 80q3 0 9.5 -0.5t9.5 -0.5q76 0 106 -75q36 -88 10 -173q-10 -32 -35 -57q-1 -1 -22 -20q39 -22 51 -62q10 -30 14 -54q12 -91 -12 -170q-30 -99 -133 -99q-41 0 -67 5q-73 14 -93 83
q-17 58 -29 127q-4 22 1 61q7 56 57 85zM151 566q-1 -4 -11 -52q2 -38 17 -63q16 -27 40.5 -28.5t41.5 23.5q50 74 12 143q-17 31 -35 33t-41 -20q-15 -13 -24 -36zM251 151q0 1 4 33q-12 83 -13 90q-4 22 -19.5 31.5t-37.5 3.5q-40 -9 -43 -49q-4 -49 16 -105q9 -28 39 -37
q20 -5 35 4t19 29z" />
    <glyph glyph-name="nine" unicode="9" horiz-adv-x="371" 
d="M37 107q-1 2 -5 14.5t-5.5 18t-3 16t-1.5 19.5h83q6 0 15 -10q0 -1 6 -16q20 -47 69 -30q21 7 26 27q4 14 4 16q-1 20 -5 110h-7q-51 -35 -120 7q-40 24 -42 73q-2 22 -2 102q0 10 0.5 46t-0.5 46q-1 53 16 90q25 55 82 65q60 10 96 -4q97 -39 105 -139q3 -43 -3 -129
q-10 -149 -5 -223q3 -52 -15 -112q-12 -41 -49.5 -66.5t-80.5 -21.5q-62 4 -107 35q-39 27 -51 66zM211 408q18 41 13 105v61q-2 15 -8.5 20t-22.5 5q-21 -2 -30 -18q-12 -23 -14 -36q-11 -69 3 -140q3 -13 14 -27q14 -17 27 -1q10 12 18 31z" />
    <glyph glyph-name="colon" unicode=":" horiz-adv-x="157" 
d="M114 214q11 -2 16 -7.5t4 -17.5q-1 -36 -6 -62q-3 -15 -14 -23.5t-26 -7.5q-24 2 -45 13q-12 6 -17 25q-1 2 -4 36h1v3.5v3.5q0 26 8 34t35 8q26 0 48 -5zM43 315q-12 6 -17 25q-1 3 -4 36h1v7q0 27 8 34.5t35 7.5q26 0 48 -4q12 -2 16.5 -7.5t3.5 -17.5q-1 -37 -6 -63
q-3 -15 -14 -23.5t-26 -7.5q-24 2 -45 13z" />
    <glyph glyph-name="semicolon" unicode=";" horiz-adv-x="168" 
d="M144 22v-17q0 -1 -1 -17h1q-8 -61 -8 -65q-15 -64 -62 -89q-13 -7 -20 -6.5t-15 7.5q-13 13 -16 22.5t3 22.5q26 48 16 121q-5 31 1 38.5t37 10.5q18 2 34.5 1.5t22.5 -6t7 -23.5zM54 120q-11 6 -17 25q-1 3 -4 36h0.5t0.5 3.5v3.5q1 27 8.5 34.5t34.5 7.5q26 0 48 -4
q12 -2 16.5 -7.5t4.5 -17.5q-1 -37 -6 -63q-3 -15 -14 -23.5t-27 -7.5q-23 2 -45 13z" />
    <glyph glyph-name="less" unicode="&#x3c;" horiz-adv-x="307" 
d="M266 253q14 -7 16.5 -13.5t-1.5 -22.5q-4 -14 -6 -19q-16 -41 -54 -30q-7 2 -183 62q-15 4 -15 21q0 53 -1 122q0 15 11 22q1 1 6.5 5t9.5 5q58 28 164 79q3 1 9.5 4t7.5 3q19 8 28 -9q6 -10 24 -50q7 -17 -10 -26q-40 -22 -61 -33q-9 -4 -28 -12t-28 -13q-3 -1 -40 -23
q1 -1 1 -3v-3q86 -36 92 -39q41 -18 58 -27z" />
    <glyph glyph-name="equal" unicode="=" horiz-adv-x="313" 
d="M103 268q-16 -2 -53 0q-18 1 -21 14q-7 32 -7 43q0 18 8 26.5t26 13.5q13 3 24 4q23 2 131 10h36q16 -2 23 -9t8 -24q3 -59 -57 -66q-94 -10 -118 -12zM260 226q16 -1 23 -8.5t8 -23.5q2 -60 -57 -66q-94 -11 -119 -13q-15 -1 -53 1q-17 1 -20 14q-7 31 -7 43t3.5 19.5
t10.5 12t20 7.5t24 4q23 2 130 11v-1h37z" />
    <glyph glyph-name="greater" unicode="&#x3e;" horiz-adv-x="307" 
d="M283 416q0 -53 1 -122q0 -15 -11 -22q-1 -1 -6.5 -5t-8.5 -5q-59 -28 -165 -79q-3 -1 -9.5 -4t-7.5 -3q-19 -8 -28 9q-6 10 -24 50q-7 17 10 26q40 22 62 33q9 4 27.5 12t27.5 13q3 1 40 23q-1 2 -1 6q-85 36 -92 39q-41 18 -58 27q-14 7 -16.5 13.5t1.5 22.5q4 13 6 19
q16 41 54 30q7 -3 184 -62q14 -4 14 -21z" />
    <glyph glyph-name="question" unicode="?" horiz-adv-x="471" 
d="M401 747q52 -79 47 -163q-7 -109 -110 -163q-10 -6 -29.5 -15t-27.5 -12q-9 -5 -27 -16q-28 -18 -25 -49q5 -53 11 -94q3 -19 3.5 -27.5t-4 -15.5t-12.5 -10.5t-26 -8.5q-14 -5 -42 -11q-11 -2 -16 0.5t-7 13.5q-25 118 -31 154q-1 8 -1 16.5t0.5 20t0.5 16.5q0 27 29 41
q36 18 97 52q2 1 26 17q73 50 58 150q-4 28 -33 48t-58 15q-34 -6 -70 -28q-31 -21 -32 -62q-1 -26 -11.5 -36t-39.5 -9h-12q-23 3 -30 10.5t-7 31.5v15q-2 100 76 153q60 41 123 49q39 5 66 -7q7 -3 12 -4q62 -11 102 -72zM238 74q24 -9 25 -32q1 -2 3 -33q0 -4 -0.5 -12
t-1.5 -14t-1 -11q-3 -18 -20 -16q-30 2 -48 5q-28 5 -31 30q-6 48 -7 52q-1 25 24 33q28 8 57 -2z" />
    <glyph glyph-name="at" unicode="@" horiz-adv-x="775" 
d="M727 159q18 -4 11 -22q-6 -13 -14 -20q-74 -61 -98 -79q-51 -36 -145 -45q-126 -11 -233 43q-29 14 -56 37q-65 55 -138 154q-50 68 -22 149q3 10 25.5 77t35.5 102q60 162 232 218q65 21 126 23q54 2 107 -20q63 -26 117 -69q37 -30 55 -76q24 -63 23 -93t-27 -92.5
t-70 -183.5q-20 -54 -54 -83q-47 -39 -106 -14q-29 13 -63 53q-1 0 -16 20q-14 -27 -15 -28q-29 -50 -85 -42q-42 6 -71 25q-24 15 -40 37.5t-21 49t1 55.5q4 16 8 26q48 117 75 179q9 21 22 40q61 88 160 33q1 -1 18 -12q4 24 33 28q5 0 18 3t20 4q12 1 17.5 -4t5.5 -16
q-2 -45 -3.5 -69t-8.5 -61t-19 -66q-22 -54 -25 -93q-3 -35 12 -59q10 -18 25 -18t26 18q3 5 8 15q51 120 73 170q28 66 -1 132q-5 11 -7 13q-106 139 -249 104q-162 -41 -209 -206q-28 -100 -31 -112q-22 -71 18 -140q33 -56 112 -113q73 -52 162 -49q66 3 70 3
q74 4 131 63q17 17 39 18t41 -7zM466 480q3 10 0 18q-13 29 -40 33t-47 -20q-7 -8 -10 -14q-58 -106 -72 -134q-3 -6 -5.5 -13.5t-4.5 -17.5t-4 -15q4 -29 17 -46q23 -31 49 -4q11 11 24 33q42 75 70 127q10 18 23 53z" />
    <glyph glyph-name="A" unicode="A" horiz-adv-x="429" 
d="M296 51q-12 64 -31 101q-27 2 -61.5 1t-61.5 -8q-1 -19 -1 -20q2 -40 -16 -110q-5 -18 -13.5 -25t-27.5 -9q-12 -1 -34 1q-17 2 -17 19q2 56 3 61q7 63 -5 113q-25 99 21 181q45 79 74 198q2 10 11 45.5t14 55.5q6 27 30 28l38.5 3.5t43.5 3.5q17 0 24.5 -7t10.5 -25
q3 -17 7.5 -41t8.5 -46.5t8 -41.5q8 -44 -5 -88q-1 -5 -6.5 -22.5t-8.5 -26.5q-20 -75 18 -138q15 -26 27 -43q34 -48 44 -107q7 -38 15 -91q2 -15 -2 -20t-19 -6q-46 -4 -63 7.5t-26 56.5zM221 426q10 45 1 71q-3 -12 -8 -24t-10 -22.5t-11.5 -23t-11.5 -21.5t-12.5 -22
t-11.5 -22q-14 -25 -24 -56q-13 -40 -5 -72q75 13 87 15q-21 52 -10 111q2 12 8 34.5t8 31.5z" />
    <glyph glyph-name="A" unicode="&#xc5;" horiz-adv-x="429" 
d="M296 51q-12 64 -31 101q-27 2 -61.5 1t-61.5 -8q-1 -19 -1 -20q2 -40 -16 -110q-5 -18 -13.5 -25t-27.5 -9q-12 -1 -34 1q-17 2 -17 19q2 56 3 61q7 63 -5 113q-25 99 21 181q45 79 74 198q2 10 11 45.5t14 55.5q6 27 30 28l38.5 3.5t43.5 3.5q17 0 24.5 -7t10.5 -25
q3 -17 7.5 -41t8.5 -46.5t8 -41.5q8 -44 -5 -88q-1 -5 -6.5 -22.5t-8.5 -26.5q-20 -75 18 -138q15 -26 27 -43q34 -48 44 -107q7 -38 15 -91q2 -15 -2 -20t-19 -6q-46 -4 -63 7.5t-26 56.5zM221 426q10 45 1 71q-3 -12 -8 -24t-10 -22.5t-11.5 -23t-11.5 -21.5t-12.5 -22
t-11.5 -22q-14 -25 -24 -56q-13 -40 -5 -72q75 13 87 15q-21 52 -10 111q2 12 8 34.5t8 31.5z" />
    <glyph glyph-name="A" unicode="&#xc4;" horiz-adv-x="429" 
d="M296 51q-12 64 -31 101q-27 2 -61.5 1t-61.5 -8q-1 -19 -1 -20q2 -40 -16 -110q-5 -18 -13.5 -25t-27.5 -9q-12 -1 -34 1q-17 2 -17 19q2 56 3 61q7 63 -5 113q-25 99 21 181q45 79 74 198q2 10 11 45.5t14 55.5q6 27 30 28l38.5 3.5t43.5 3.5q17 0 24.5 -7t10.5 -25
q3 -17 7.5 -41t8.5 -46.5t8 -41.5q8 -44 -5 -88q-1 -5 -6.5 -22.5t-8.5 -26.5q-20 -75 18 -138q15 -26 27 -43q34 -48 44 -107q7 -38 15 -91q2 -15 -2 -20t-19 -6q-46 -4 -63 7.5t-26 56.5zM221 426q10 45 1 71q-3 -12 -8 -24t-10 -22.5t-11.5 -23t-11.5 -21.5t-12.5 -22
t-11.5 -22q-14 -25 -24 -56q-13 -40 -5 -72q75 13 87 15q-21 52 -10 111q2 12 8 34.5t8 31.5z" />
    <glyph glyph-name="A" unicode="&#xc3;" horiz-adv-x="429" 
d="M296 51q-12 64 -31 101q-27 2 -61.5 1t-61.5 -8q-1 -19 -1 -20q2 -40 -16 -110q-5 -18 -13.5 -25t-27.5 -9q-12 -1 -34 1q-17 2 -17 19q2 56 3 61q7 63 -5 113q-25 99 21 181q45 79 74 198q2 10 11 45.5t14 55.5q6 27 30 28l38.5 3.5t43.5 3.5q17 0 24.5 -7t10.5 -25
q3 -17 7.5 -41t8.5 -46.5t8 -41.5q8 -44 -5 -88q-1 -5 -6.5 -22.5t-8.5 -26.5q-20 -75 18 -138q15 -26 27 -43q34 -48 44 -107q7 -38 15 -91q2 -15 -2 -20t-19 -6q-46 -4 -63 7.5t-26 56.5zM221 426q10 45 1 71q-3 -12 -8 -24t-10 -22.5t-11.5 -23t-11.5 -21.5t-12.5 -22
t-11.5 -22q-14 -25 -24 -56q-13 -40 -5 -72q75 13 87 15q-21 52 -10 111q2 12 8 34.5t8 31.5z" />
    <glyph glyph-name="A" unicode="&#xc2;" horiz-adv-x="429" 
d="M296 51q-12 64 -31 101q-27 2 -61.5 1t-61.5 -8q-1 -19 -1 -20q2 -40 -16 -110q-5 -18 -13.5 -25t-27.5 -9q-12 -1 -34 1q-17 2 -17 19q2 56 3 61q7 63 -5 113q-25 99 21 181q45 79 74 198q2 10 11 45.5t14 55.5q6 27 30 28l38.5 3.5t43.5 3.5q17 0 24.5 -7t10.5 -25
q3 -17 7.5 -41t8.5 -46.5t8 -41.5q8 -44 -5 -88q-1 -5 -6.5 -22.5t-8.5 -26.5q-20 -75 18 -138q15 -26 27 -43q34 -48 44 -107q7 -38 15 -91q2 -15 -2 -20t-19 -6q-46 -4 -63 7.5t-26 56.5zM221 426q10 45 1 71q-3 -12 -8 -24t-10 -22.5t-11.5 -23t-11.5 -21.5t-12.5 -22
t-11.5 -22q-14 -25 -24 -56q-13 -40 -5 -72q75 13 87 15q-21 52 -10 111q2 12 8 34.5t8 31.5z" />
    <glyph glyph-name="A" unicode="&#xc1;" horiz-adv-x="429" 
d="M296 51q-12 64 -31 101q-27 2 -61.5 1t-61.5 -8q-1 -19 -1 -20q2 -40 -16 -110q-5 -18 -13.5 -25t-27.5 -9q-12 -1 -34 1q-17 2 -17 19q2 56 3 61q7 63 -5 113q-25 99 21 181q45 79 74 198q2 10 11 45.5t14 55.5q6 27 30 28l38.5 3.5t43.5 3.5q17 0 24.5 -7t10.5 -25
q3 -17 7.5 -41t8.5 -46.5t8 -41.5q8 -44 -5 -88q-1 -5 -6.5 -22.5t-8.5 -26.5q-20 -75 18 -138q15 -26 27 -43q34 -48 44 -107q7 -38 15 -91q2 -15 -2 -20t-19 -6q-46 -4 -63 7.5t-26 56.5zM221 426q10 45 1 71q-3 -12 -8 -24t-10 -22.5t-11.5 -23t-11.5 -21.5t-12.5 -22
t-11.5 -22q-14 -25 -24 -56q-13 -40 -5 -72q75 13 87 15q-21 52 -10 111q2 12 8 34.5t8 31.5z" />
    <glyph glyph-name="A" unicode="&#xc0;" horiz-adv-x="429" 
d="M296 51q-12 64 -31 101q-27 2 -61.5 1t-61.5 -8q-1 -19 -1 -20q2 -40 -16 -110q-5 -18 -13.5 -25t-27.5 -9q-12 -1 -34 1q-17 2 -17 19q2 56 3 61q7 63 -5 113q-25 99 21 181q45 79 74 198q2 10 11 45.5t14 55.5q6 27 30 28l38.5 3.5t43.5 3.5q17 0 24.5 -7t10.5 -25
q3 -17 7.5 -41t8.5 -46.5t8 -41.5q8 -44 -5 -88q-1 -5 -6.5 -22.5t-8.5 -26.5q-20 -75 18 -138q15 -26 27 -43q34 -48 44 -107q7 -38 15 -91q2 -15 -2 -20t-19 -6q-46 -4 -63 7.5t-26 56.5zM221 426q10 45 1 71q-3 -12 -8 -24t-10 -22.5t-11.5 -23t-11.5 -21.5t-12.5 -22
t-11.5 -22q-14 -25 -24 -56q-13 -40 -5 -72q75 13 87 15q-21 52 -10 111q2 12 8 34.5t8 31.5z" />
    <glyph glyph-name="B" unicode="B" horiz-adv-x="478" 
d="M326 375q-2 -2 -33 -23q59 -30 64 -33q46 -24 74 -58q31 -38 23 -81q-18 -93 -84 -143q-17 -14 -43 -22q-69 -20 -161 -20q-40 1 -51.5 12t-14.5 52q-5 71 -10 96q-4 19 -24 66q-1 0 -24 39q-34 58 -11 119q16 40 33 73q35 64 41 139q0 2 2 30l3 42q2 14 5.5 17.5
t16.5 5.5q103 15 206 -22q46 -16 68 -63.5t4 -92.5q-19 -49 -42 -87q-8 -14 -42 -46zM215 200q4 -12 7 -27t5 -27t4 -29t4 -28q39 1 70 28q33 29 34 68t-31 68q-38 36 -87 46q-16 3 -53 1q5 -11 16.5 -32t19 -37t11.5 -31zM217 599q1 -29 -7 -60t-16 -50t-25 -53
q-5 -10 -7 -16l9 -3q26 -1 56 15t52.5 41.5t27.5 50.5q5 26 -13 39q-23 17 -47 30q-2 0 -30 6z" />
    <glyph glyph-name="C" unicode="C" horiz-adv-x="432" 
d="M341 462q-25 -3 -76 11q20 52 23 58q5 15 8 26q4 25 -21 30q-24 5 -39 -7q-23 -18 -30 -28q-37 -55 -59 -95q-33 -62 0 -128l13 -26q30 -53 37 -117q2 -11 10 -45q2 -8 7 -16q16 -24 34 -24q19 1 31 27q24 52 21 94v24q38 6 41 6h17h17q15 0 21.5 -5.5t10.5 -20.5
q2 -7 2.5 -14.5t0 -16.5t-1 -14.5t-2 -16.5t-1.5 -15q0 -1 -1 -4q-1 -2 -1 -3q-17 -113 -142 -144q-66 -16 -115 49q-17 22 -26 52q-10 37 -23 101q-9 47 -31 84q-22 36 -35 66q-18 39 -1 85q7 18 7 19q73 160 74 161q20 46 77 69t107 4q27 -10 29 -11q30 -9 53 -44
q43 -64 4 -142q-13 -25 -40 -29z" />
    <glyph glyph-name="C" unicode="&#xc7;" horiz-adv-x="432" 
d="M341 462q-25 -3 -76 11q20 52 23 58q5 15 8 26q4 25 -21 30q-24 5 -39 -7q-23 -18 -30 -28q-37 -55 -59 -95q-33 -62 0 -128l13 -26q30 -53 37 -117q2 -11 10 -45q2 -8 7 -16q16 -24 34 -24q19 1 31 27q24 52 21 94v24q38 6 41 6h17h17q15 0 21.5 -5.5t10.5 -20.5
q2 -7 2.5 -14.5t0 -16.5t-1 -14.5t-2 -16.5t-1.5 -15q0 -1 -1 -4q-1 -2 -1 -3q-17 -113 -142 -144q-66 -16 -115 49q-17 22 -26 52q-10 37 -23 101q-9 47 -31 84q-22 36 -35 66q-18 39 -1 85q7 18 7 19q73 160 74 161q20 46 77 69t107 4q27 -10 29 -11q30 -9 53 -44
q43 -64 4 -142q-13 -25 -40 -29z" />
    <glyph glyph-name="D" unicode="D" 
d="M207 1v3h-49h-14q-27 3 -37 13.5t-11 37.5q-2 65 -2 109q-1 70 -32 131q-21 42 -31 66q-20 51 3 104q12 26 22 43q35 56 39 134q2 18 3 29q3 13 7.5 17.5t18.5 5.5q8 1 14 1q110 -8 123 -10q75 -10 114 -63q45 -61 13 -131q-10 -22 -20 -38q-32 -53 -14 -120
q10 -37 30 -85q22 -54 12 -99q0 -1 -12 -72q-5 -33 -38 -53q-37 -22 -81 -23h-58zM185 147q-1 -4 2 -65q4 0 13.5 -0.5t14 0t11.5 1.5t12 3t10 6q23 19 37 39q12 18 14 38q5 48 -16 94q-25 54 -34 81q-21 63 7 115q14 26 21 49q9 28 -5 49t-42 26q-2 0 -32 3
q-8 -45 -48 -102q-7 -9 -14 -23q-32 -59 -11 -114q12 -32 25 -58q35 -66 35 -142z" />
    <glyph glyph-name="E" unicode="E" 
d="M224 583h-26q-6 -32 -6 -34q-7 -39 -37 -89q-26 -44 -29 -76h73q21 0 51 -1q20 0 23 -17q1 -7 11 -73q-7 -4 -15.5 -5.5t-16 -1t-16.5 0.5h-16q-4 -1 -64 -1q4 -9 13 -28.5t14.5 -34.5t9 -29t5 -30t2.5 -37.5t2 -32.5h14q127 1 148 1q23 1 29 -21q7 -29 8 -37
q2 -30 -28 -33q-18 -1 -75 -3q-23 0 -82.5 -2t-92.5 -3q-19 0 -27 6t-11 24q-3 22 -2 51q0 12 1.5 38t1.5 40q1 49 -25 100q-17 33 -30 66q-19 50 2 107q8 20 14 31q30 52 32 138q1 27 5 56q3 22 11.5 29.5t31.5 7.5q4 0 218 5q31 0 36.5 -5t5.5 -35q0 -2 0.5 -14.5
t0.5 -19.5q0 -15 -5.5 -22.5t-20.5 -9.5q-26 -5 -53 -6h-85z" />
    <glyph glyph-name="E" unicode="&#xcb;" 
d="M224 583h-26q-6 -32 -6 -34q-7 -39 -37 -89q-26 -44 -29 -76h73q21 0 51 -1q20 0 23 -17q1 -7 11 -73q-7 -4 -15.5 -5.5t-16 -1t-16.5 0.5h-16q-4 -1 -64 -1q4 -9 13 -28.5t14.5 -34.5t9 -29t5 -30t2.5 -37.5t2 -32.5h14q127 1 148 1q23 1 29 -21q7 -29 8 -37
q2 -30 -28 -33q-18 -1 -75 -3q-23 0 -82.5 -2t-92.5 -3q-19 0 -27 6t-11 24q-3 22 -2 51q0 12 1.5 38t1.5 40q1 49 -25 100q-17 33 -30 66q-19 50 2 107q8 20 14 31q30 52 32 138q1 27 5 56q3 22 11.5 29.5t31.5 7.5q4 0 218 5q31 0 36.5 -5t5.5 -35q0 -2 0.5 -14.5
t0.5 -19.5q0 -15 -5.5 -22.5t-20.5 -9.5q-26 -5 -53 -6h-85z" />
    <glyph glyph-name="E" unicode="&#xca;" 
d="M224 583h-26q-6 -32 -6 -34q-7 -39 -37 -89q-26 -44 -29 -76h73q21 0 51 -1q20 0 23 -17q1 -7 11 -73q-7 -4 -15.5 -5.5t-16 -1t-16.5 0.5h-16q-4 -1 -64 -1q4 -9 13 -28.5t14.5 -34.5t9 -29t5 -30t2.5 -37.5t2 -32.5h14q127 1 148 1q23 1 29 -21q7 -29 8 -37
q2 -30 -28 -33q-18 -1 -75 -3q-23 0 -82.5 -2t-92.5 -3q-19 0 -27 6t-11 24q-3 22 -2 51q0 12 1.5 38t1.5 40q1 49 -25 100q-17 33 -30 66q-19 50 2 107q8 20 14 31q30 52 32 138q1 27 5 56q3 22 11.5 29.5t31.5 7.5q4 0 218 5q31 0 36.5 -5t5.5 -35q0 -2 0.5 -14.5
t0.5 -19.5q0 -15 -5.5 -22.5t-20.5 -9.5q-26 -5 -53 -6h-85z" />
    <glyph glyph-name="E" unicode="&#xc9;" 
d="M224 583h-26q-6 -32 -6 -34q-7 -39 -37 -89q-26 -44 -29 -76h73q21 0 51 -1q20 0 23 -17q1 -7 11 -73q-7 -4 -15.5 -5.5t-16 -1t-16.5 0.5h-16q-4 -1 -64 -1q4 -9 13 -28.5t14.5 -34.5t9 -29t5 -30t2.5 -37.5t2 -32.5h14q127 1 148 1q23 1 29 -21q7 -29 8 -37
q2 -30 -28 -33q-18 -1 -75 -3q-23 0 -82.5 -2t-92.5 -3q-19 0 -27 6t-11 24q-3 22 -2 51q0 12 1.5 38t1.5 40q1 49 -25 100q-17 33 -30 66q-19 50 2 107q8 20 14 31q30 52 32 138q1 27 5 56q3 22 11.5 29.5t31.5 7.5q4 0 218 5q31 0 36.5 -5t5.5 -35q0 -2 0.5 -14.5
t0.5 -19.5q0 -15 -5.5 -22.5t-20.5 -9.5q-26 -5 -53 -6h-85z" />
    <glyph glyph-name="E" unicode="&#xc8;" 
d="M224 583h-26q-6 -32 -6 -34q-7 -39 -37 -89q-26 -44 -29 -76h73q21 0 51 -1q20 0 23 -17q1 -7 11 -73q-7 -4 -15.5 -5.5t-16 -1t-16.5 0.5h-16q-4 -1 -64 -1q4 -9 13 -28.5t14.5 -34.5t9 -29t5 -30t2.5 -37.5t2 -32.5h14q127 1 148 1q23 1 29 -21q7 -29 8 -37
q2 -30 -28 -33q-18 -1 -75 -3q-23 0 -82.5 -2t-92.5 -3q-19 0 -27 6t-11 24q-3 22 -2 51q0 12 1.5 38t1.5 40q1 49 -25 100q-17 33 -30 66q-19 50 2 107q8 20 14 31q30 52 32 138q1 27 5 56q3 22 11.5 29.5t31.5 7.5q4 0 218 5q31 0 36.5 -5t5.5 -35q0 -2 0.5 -14.5
t0.5 -19.5q0 -15 -5.5 -22.5t-20.5 -9.5q-26 -5 -53 -6h-85z" />
    <glyph glyph-name="F" unicode="F" 
d="M193 293q-1 1 -34 5q19 -41 20 -43q25 -54 22 -123q-2 -33 -4 -102q0 -17 -4 -22t-21 -7q-28 -3 -44 -1q-40 4 -43 43q-3 26 -1 51q8 107 -36 178q-52 87 0 179q36 63 41 111q1 2 6 63q2 20 3 22q2 15 8.5 20t22.5 5h58.5t67 -0.5t58.5 -0.5q1 0 53 3q15 1 21.5 -3.5
t10.5 -18.5q17 -61 -42 -69q-17 -3 -108 -5q-2 0 -38 3q-4 -17 -4 -18q-6 -49 -32 -101q-5 -12 -25 -63q0 -1 -3 -17h20q65 -2 77 -2q22 -1 29 -22q10 -33 14 -52q2 -13 -3 -18.5t-18 -4.5q-3 1 -72 10z" />
    <glyph glyph-name="G" unicode="G" horiz-adv-x="452" 
d="M360 448q-11 -2 -87 -7q11 23 11 24q18 43 19 49q4 17 -1 36q-5 20 -24 27t-36 -5q-16 -10 -27 -27q-34 -54 -61 -102q-44 -76 -1 -155q26 -50 41 -116q5 -23 15 -47q12 -29 43 -29q27 -1 42 27q38 70 -4 151q-4 7 -17 12q-9 2 -38 8q-32 6 -34 38q-1 16 0 25
q3 17 8 21.5t23 7.5q8 1 35 4.5t42 5.5q19 2 34 0q23 -2 25 -25q3 -36 33 -108q16 -37 24 -69q13 -53 -12 -105.5t-75 -74.5q-70 -32 -140 -14q-56 14 -81 71q-27 60 -33 101q-7 48 -40 109q-42 78 -4 156l16 32t18 38q23 49 27 62q18 56 62.5 84t104.5 21q84 -9 137 -82
q29 -39 5 -79q-24 -41 -30 -50q-10 -14 -20 -15z" />
    <glyph glyph-name="H" unicode="H" horiz-adv-x="433" 
d="M302 107q7 96 -48 185q-78 3 -105 1q12 -28 13 -29q27 -58 26 -118q-1 -81 -2 -90q-2 -19 -5 -30t-10.5 -16t-14 -5.5t-21.5 -0.5h-6q-38 0 -48 10t-10 47q0 15 -0.5 34t-0.5 37.5t-1 33.5q0 57 -22 109q-7 17 -14 38q-24 72 6 140q21 46 37 87q4 10 7 21t4.5 22.5
t2.5 21t2 23.5t2 22q2 19 6.5 23t23.5 4q39 1 51 -1q17 -1 24 -8.5t7 -23.5q0 -86 -26 -142q-5 -10 -17.5 -34t-18.5 -38q-2 -3 -18 -59q49 -2 111 -5l4 17q3 7 8 23t10 27.5t10 22.5q49 89 39 174q-1 9 -1 25q1 12 6.5 18t17.5 6q24 0 58 -4q20 -2 21 -23q5 -117 -37 -182
q-10 -16 -23 -46q-26 -61 7 -126q9 -19 18 -32q37 -58 34 -129q-2 -55 -7 -102q-2 -19 -7 -23.5t-25 -6.5q-17 -1 -34 -1q-12 1 -19 4t-10.5 10t-3.5 19q-3 49 -1 70z" />
    <glyph glyph-name="I" unicode="I" horiz-adv-x="226" 
d="M90 64v14.5v15v17.5q7 83 -36 157q-15 27 -27 65t7 88q9 21 28 59q30 59 30 139v14v11t1 8.5t1.5 6t3 4.5t3.5 2.5t6 2t7.5 1.5t9.5 2t12 1q14 3 24 3q15 0 20 -4t7 -18q16 -93 -22 -165q-27 -50 -28 -52q-32 -65 2 -125q13 -23 35 -58q25 -40 27 -85q3 -69 3 -104
q-1 -19 -9.5 -32.5t-23.5 -19t-33 -2.5q-3 1 -9 2q-27 5 -33 12.5t-6 39.5z" />
    <glyph glyph-name="I" unicode="&#xcf;" horiz-adv-x="226" 
d="M90 64v14.5v15v17.5q7 83 -36 157q-15 27 -27 65t7 88q9 21 28 59q30 59 30 139v14v11t1 8.5t1.5 6t3 4.5t3.5 2.5t6 2t7.5 1.5t9.5 2t12 1q14 3 24 3q15 0 20 -4t7 -18q16 -93 -22 -165q-27 -50 -28 -52q-32 -65 2 -125q13 -23 35 -58q25 -40 27 -85q3 -69 3 -104
q-1 -19 -9.5 -32.5t-23.5 -19t-33 -2.5q-3 1 -9 2q-27 5 -33 12.5t-6 39.5z" />
    <glyph glyph-name="I" unicode="&#xce;" horiz-adv-x="226" 
d="M90 64v14.5v15v17.5q7 83 -36 157q-15 27 -27 65t7 88q9 21 28 59q30 59 30 139v14v11t1 8.5t1.5 6t3 4.5t3.5 2.5t6 2t7.5 1.5t9.5 2t12 1q14 3 24 3q15 0 20 -4t7 -18q16 -93 -22 -165q-27 -50 -28 -52q-32 -65 2 -125q13 -23 35 -58q25 -40 27 -85q3 -69 3 -104
q-1 -19 -9.5 -32.5t-23.5 -19t-33 -2.5q-3 1 -9 2q-27 5 -33 12.5t-6 39.5z" />
    <glyph glyph-name="I" unicode="&#xcd;" horiz-adv-x="226" 
d="M90 64v14.5v15v17.5q7 83 -36 157q-15 27 -27 65t7 88q9 21 28 59q30 59 30 139v14v11t1 8.5t1.5 6t3 4.5t3.5 2.5t6 2t7.5 1.5t9.5 2t12 1q14 3 24 3q15 0 20 -4t7 -18q16 -93 -22 -165q-27 -50 -28 -52q-32 -65 2 -125q13 -23 35 -58q25 -40 27 -85q3 -69 3 -104
q-1 -19 -9.5 -32.5t-23.5 -19t-33 -2.5q-3 1 -9 2q-27 5 -33 12.5t-6 39.5z" />
    <glyph glyph-name="I" unicode="&#xcc;" horiz-adv-x="226" 
d="M90 64v14.5v15v17.5q7 83 -36 157q-15 27 -27 65t7 88q9 21 28 59q30 59 30 139v14v11t1 8.5t1.5 6t3 4.5t3.5 2.5t6 2t7.5 1.5t9.5 2t12 1q14 3 24 3q15 0 20 -4t7 -18q16 -93 -22 -165q-27 -50 -28 -52q-32 -65 2 -125q13 -23 35 -58q25 -40 27 -85q3 -69 3 -104
q-1 -19 -9.5 -32.5t-23.5 -19t-33 -2.5q-3 1 -9 2q-27 5 -33 12.5t-6 39.5z" />
    <glyph glyph-name="J" unicode="J" horiz-adv-x="273" 
d="M250 660q1 -1 1 -26q-2 -37 -4.5 -59t-12 -52t-26.5 -53q-27 -38 -33 -75q-8 -43 7 -79q12 -28 24 -50q30 -59 22 -156q-1 -15 -10.5 -32t-23 -31t-31 -24.5t-33.5 -12.5q-62 -6 -82 -8q-20 -1 -24 19q-2 13 -2 31q1 24 6.5 30.5t29.5 10.5q17 3 23 5q44 15 51 56
q9 51 -16 104q-18 36 -32 70q-17 40 -0.5 81t32.5 67q37 60 37 124q0 16 3 61q1 13 5 18t16 6q25 2 48 1q10 -1 15 -3t7 -7.5t3 -15.5z" />
    <glyph glyph-name="K" unicode="K" horiz-adv-x="475" 
d="M175 312l-6 1q-5 -28 6 -46q42 -74 32 -179q-4 -34 -9 -55q-4 -16 -13 -22.5t-26 -6.5q-38 -1 -49.5 10t-13.5 49q-1 15 -1.5 50.5t-1.5 54.5q-3 44 -33 101q-18 35 -31 68q-15 37 2 78q12 32 19 42q47 79 51 175v4.5v3.5q3 27 9 33.5t34 12.5t48 -2q15 -6 20 -14t3 -23
q-1 -4 -3 -19.5t-2.5 -20.5t-3 -19t-4 -20.5t-4.5 -18.5t-5.5 -20t-7 -17.5t-9.5 -18.5q0 -1 -6 -16q16 11 16 12q76 64 138 171q14 26 38.5 29t48.5 2q20 -1 15 -21q-3 -12 -11 -25q-60 -103 -127 -161q-11 -9 -29 -27t-26 -25q-15 -15 -5 -33q23 -43 28 -50q29 -37 64 -73
q75 -76 129 -226q3 -10 4 -21q1 -35 -32 -34q-20 1 -55 8q-19 3 -28 30q-9 22 -24.5 62t-21.5 56q-31 82 -117 161z" />
    <glyph glyph-name="L" unicode="L" horiz-adv-x="361" 
d="M176 99q0 -1 2 -13q56 3 60 3q46 0 72 -2q16 -2 22 -9t6 -23q1 -28 -9 -39t-37 -11q-56 -1 -150 0q-11 0 -34 5q-19 4 -25.5 12t-6.5 27q0 33 3 61q9 69 -23 137q-8 17 -23 53q-26 63 8 129q6 12 10 17q35 55 35 132q1 46 2 80q1 18 7.5 25t24.5 9q15 1 36 -5
q19 -5 22 -27v-1v-1q1 -24 0.5 -51t-1.5 -50.5t-7 -50t-18 -48.5q-3 -6 -22 -40q-43 -78 -4 -154q2 -3 6 -12t7 -14q36 -65 37 -139z" />
    <glyph glyph-name="M" unicode="M" horiz-adv-x="634" 
d="M292 233q3 2 5 4q-21 29 -23 31q-33 50 5 93q28 32 65 61q85 65 102 163q2 14 8 39t8 32q3 15 15 17q70 10 86 12q8 1 21 -2q14 -4 19.5 -10.5t4.5 -21.5q-4 -63 -9 -108q-6 -49 -45 -87q-7 -7 -29 -28.5t-34 -33.5q-18 -19 -31 -39q-19 -30 2 -57q14 -19 34 -35
q4 -4 49 -36q63 -45 65 -124q1 -63 1 -70q-2 -23 -8.5 -28.5t-29.5 -5.5q-22 0 -50 8q-27 8 -28 36q0 1 -1.5 26.5t-1.5 38.5q0 65 -50 103q-2 2 -44 35q-39 31 -56 64q-2 -17 11 -33q29 -36 44 -49q61 -53 41 -133q-7 -27 -19 -73q-6 -20 -28 -18q-3 0 -12 0.5t-14 1.5
q-16 2 -23 8.5t-11 22.5q-1 5 -4.5 18t-5.5 20q-17 77 -80 130q-47 38 -61 51q-48 43 -48 94q-17 -26 -7 -54q8 -20 21 -38q16 -22 38 -45q65 -67 53 -167q0 -3 -2 -19q-2 -13 -5 -19t-9 -8.5t-19 -1.5q-34 1 -56 4q-14 1 -17 5.5t-3 19.5v21.5t1 24.5q3 78 -50 141
q-21 25 -36 49q-39 60 1 118q15 21 40 52q40 50 41 117q0 22 3.5 63t4.5 51q1 17 18 17q33 0 59 -3q3 0 51 -9q5 -17 5 -18q20 -88 25 -112q13 -61 -28 -111q-23 -30 -33 -45q-34 -52 7 -97q6 -7 14 -14.5t14 -13t15 -13t14 -12.5z" />
    <glyph glyph-name="N" unicode="N" horiz-adv-x="494" 
d="M269 400q-11 -44 -8 -70q54 91 58 99q22 39 26 92q1 15 12 148q0 1 1 4q6 32 16 38t41 -4q6 -2 18 -5.5t17 -5.5q22 -6 22 -28q0 -108 -16 -186q-6 -33 -42 -89q-19 -29 -31 -55q-19 -40 -2 -81q17 -40 30 -63q38 -68 30 -143q-1 -10 -4 -24q-4 -17 -22 -19q-23 -2 -39 0
q-27 3 -36 28q-8 19 -11 30q-19 72 -75 125q-6 6 -15 14t-17.5 16t-15.5 15q-67 63 -40 148q2 6 0 13q-8 -10 -8 -11q-22 -46 -28 -62q-18 -44 8 -88q11 -20 31 -47q49 -63 28 -164q-5 -23 -30 -22q-20 0 -41 4q-11 2 -17 5.5t-9 10t-3 18.5q-3 45 -6 65q-4 33 -24 63
q-3 4 -25 39q-34 54 -11 112q16 39 36 71q46 74 36 165q-3 35 -3 117q0 22 9 30t31 8q39 1 55.5 -9.5t29.5 -45.5q24 -68 49 -160q10 -39 -5 -96z" />
    <glyph glyph-name="N" unicode="&#xd1;" horiz-adv-x="494" 
d="M269 400q-11 -44 -8 -70q54 91 58 99q22 39 26 92q1 15 12 148q0 1 1 4q6 32 16 38t41 -4q6 -2 18 -5.5t17 -5.5q22 -6 22 -28q0 -108 -16 -186q-6 -33 -42 -89q-19 -29 -31 -55q-19 -40 -2 -81q17 -40 30 -63q38 -68 30 -143q-1 -10 -4 -24q-4 -17 -22 -19q-23 -2 -39 0
q-27 3 -36 28q-8 19 -11 30q-19 72 -75 125q-6 6 -15 14t-17.5 16t-15.5 15q-67 63 -40 148q2 6 0 13q-8 -10 -8 -11q-22 -46 -28 -62q-18 -44 8 -88q11 -20 31 -47q49 -63 28 -164q-5 -23 -30 -22q-20 0 -41 4q-11 2 -17 5.5t-9 10t-3 18.5q-3 45 -6 65q-4 33 -24 63
q-3 4 -25 39q-34 54 -11 112q16 39 36 71q46 74 36 165q-3 35 -3 117q0 22 9 30t31 8q39 1 55.5 -9.5t29.5 -45.5q24 -68 49 -160q10 -39 -5 -96z" />
    <glyph glyph-name="O" unicode="O" horiz-adv-x="457" 
d="M429 594q0 -3 6 -48q-2 -64 -37 -122q-5 -7 -17 -26t-18 -29q-42 -70 -1 -136q3 -4 12.5 -18t14.5 -22q44 -73 -24 -132q-50 -45 -103 -41q-12 1 -21 4q-76 27 -115 78q-59 77 -90 141q-30 59 5 118q19 31 26 41q36 52 47 126q4 29 19 83q10 37 49 60q45 26 88 33
q14 2 48 -4q26 -4 49.5 -19t39.5 -38t22 -49zM286 441q21 39 24 86q-1 5 -2.5 16t-3.5 18.5t-5 14.5q-7 16 -21 18t-26 -11q-8 -8 -14 -23q-4 -11 -8 -33q-15 -72 -52 -127q-4 -5 -20 -33q-41 -71 7 -144q27 -40 55 -77q10 -13 24 -18q14 -6 24 2t9 23t-9 33q-3 6 -25 47
q-31 59 -8 114q6 14 21 41q4 8 14.5 25.5t15.5 27.5z" />
    <glyph glyph-name="O" unicode="&#xd8;" horiz-adv-x="457" 
d="M429 594q0 -3 6 -48q-2 -64 -37 -122q-5 -7 -17 -26t-18 -29q-42 -70 -1 -136q3 -4 12.5 -18t14.5 -22q44 -73 -24 -132q-50 -45 -103 -41q-12 1 -21 4q-76 27 -115 78q-59 77 -90 141q-30 59 5 118q19 31 26 41q36 52 47 126q4 29 19 83q10 37 49 60q45 26 88 33
q14 2 48 -4q26 -4 49.5 -19t39.5 -38t22 -49zM286 441q21 39 24 86q-1 5 -2.5 16t-3.5 18.5t-5 14.5q-7 16 -21 18t-26 -11q-8 -8 -14 -23q-4 -11 -8 -33q-15 -72 -52 -127q-4 -5 -20 -33q-41 -71 7 -144q27 -40 55 -77q10 -13 24 -18q14 -6 24 2t9 23t-9 33q-3 6 -25 47
q-31 59 -8 114q6 14 21 41q4 8 14.5 25.5t15.5 27.5z" />
    <glyph glyph-name="O" unicode="&#xd6;" horiz-adv-x="457" 
d="M429 594q0 -3 6 -48q-2 -64 -37 -122q-5 -7 -17 -26t-18 -29q-42 -70 -1 -136q3 -4 12.5 -18t14.5 -22q44 -73 -24 -132q-50 -45 -103 -41q-12 1 -21 4q-76 27 -115 78q-59 77 -90 141q-30 59 5 118q19 31 26 41q36 52 47 126q4 29 19 83q10 37 49 60q45 26 88 33
q14 2 48 -4q26 -4 49.5 -19t39.5 -38t22 -49zM286 441q21 39 24 86q-1 5 -2.5 16t-3.5 18.5t-5 14.5q-7 16 -21 18t-26 -11q-8 -8 -14 -23q-4 -11 -8 -33q-15 -72 -52 -127q-4 -5 -20 -33q-41 -71 7 -144q27 -40 55 -77q10 -13 24 -18q14 -6 24 2t9 23t-9 33q-3 6 -25 47
q-31 59 -8 114q6 14 21 41q4 8 14.5 25.5t15.5 27.5z" />
    <glyph glyph-name="O" unicode="&#xd5;" horiz-adv-x="457" 
d="M429 594q0 -3 6 -48q-2 -64 -37 -122q-5 -7 -17 -26t-18 -29q-42 -70 -1 -136q3 -4 12.5 -18t14.5 -22q44 -73 -24 -132q-50 -45 -103 -41q-12 1 -21 4q-76 27 -115 78q-59 77 -90 141q-30 59 5 118q19 31 26 41q36 52 47 126q4 29 19 83q10 37 49 60q45 26 88 33
q14 2 48 -4q26 -4 49.5 -19t39.5 -38t22 -49zM286 441q21 39 24 86q-1 5 -2.5 16t-3.5 18.5t-5 14.5q-7 16 -21 18t-26 -11q-8 -8 -14 -23q-4 -11 -8 -33q-15 -72 -52 -127q-4 -5 -20 -33q-41 -71 7 -144q27 -40 55 -77q10 -13 24 -18q14 -6 24 2t9 23t-9 33q-3 6 -25 47
q-31 59 -8 114q6 14 21 41q4 8 14.5 25.5t15.5 27.5z" />
    <glyph glyph-name="O" unicode="&#xd4;" horiz-adv-x="457" 
d="M429 594q0 -3 6 -48q-2 -64 -37 -122q-5 -7 -17 -26t-18 -29q-42 -70 -1 -136q3 -4 12.5 -18t14.5 -22q44 -73 -24 -132q-50 -45 -103 -41q-12 1 -21 4q-76 27 -115 78q-59 77 -90 141q-30 59 5 118q19 31 26 41q36 52 47 126q4 29 19 83q10 37 49 60q45 26 88 33
q14 2 48 -4q26 -4 49.5 -19t39.5 -38t22 -49zM286 441q21 39 24 86q-1 5 -2.5 16t-3.5 18.5t-5 14.5q-7 16 -21 18t-26 -11q-8 -8 -14 -23q-4 -11 -8 -33q-15 -72 -52 -127q-4 -5 -20 -33q-41 -71 7 -144q27 -40 55 -77q10 -13 24 -18q14 -6 24 2t9 23t-9 33q-3 6 -25 47
q-31 59 -8 114q6 14 21 41q4 8 14.5 25.5t15.5 27.5z" />
    <glyph glyph-name="O" unicode="&#xd3;" horiz-adv-x="457" 
d="M429 594q0 -3 6 -48q-2 -64 -37 -122q-5 -7 -17 -26t-18 -29q-42 -70 -1 -136q3 -4 12.5 -18t14.5 -22q44 -73 -24 -132q-50 -45 -103 -41q-12 1 -21 4q-76 27 -115 78q-59 77 -90 141q-30 59 5 118q19 31 26 41q36 52 47 126q4 29 19 83q10 37 49 60q45 26 88 33
q14 2 48 -4q26 -4 49.5 -19t39.5 -38t22 -49zM286 441q21 39 24 86q-1 5 -2.5 16t-3.5 18.5t-5 14.5q-7 16 -21 18t-26 -11q-8 -8 -14 -23q-4 -11 -8 -33q-15 -72 -52 -127q-4 -5 -20 -33q-41 -71 7 -144q27 -40 55 -77q10 -13 24 -18q14 -6 24 2t9 23t-9 33q-3 6 -25 47
q-31 59 -8 114q6 14 21 41q4 8 14.5 25.5t15.5 27.5z" />
    <glyph glyph-name="O" unicode="&#xd2;" horiz-adv-x="457" 
d="M429 594q0 -3 6 -48q-2 -64 -37 -122q-5 -7 -17 -26t-18 -29q-42 -70 -1 -136q3 -4 12.5 -18t14.5 -22q44 -73 -24 -132q-50 -45 -103 -41q-12 1 -21 4q-76 27 -115 78q-59 77 -90 141q-30 59 5 118q19 31 26 41q36 52 47 126q4 29 19 83q10 37 49 60q45 26 88 33
q14 2 48 -4q26 -4 49.5 -19t39.5 -38t22 -49zM286 441q21 39 24 86q-1 5 -2.5 16t-3.5 18.5t-5 14.5q-7 16 -21 18t-26 -11q-8 -8 -14 -23q-4 -11 -8 -33q-15 -72 -52 -127q-4 -5 -20 -33q-41 -71 7 -144q27 -40 55 -77q10 -13 24 -18q14 -6 24 2t9 23t-9 33q-3 6 -25 47
q-31 59 -8 114q6 14 21 41q4 8 14.5 25.5t15.5 27.5z" />
    <glyph glyph-name="P" unicode="P" horiz-adv-x="459" 
d="M148 267q-2 -1 -4 -4q29 -46 31 -48q57 -72 35 -190q-3 -15 -9.5 -20t-22.5 -4q-15 1 -58 3q-12 1 -14.5 4.5t-1.5 15.5q2 42 2 65q0 59 -32 108q-23 36 -33 51q-35 58 -5 123q9 21 21 38q47 75 48 156q1 41 6 119q1 18 5.5 21.5t24.5 5.5q63 6 140 -4q34 -5 70 -25
q28 -16 47.5 -39.5t28 -49t10 -53.5t-6.5 -55q-8 -24 -35 -60q-11 -14 -40.5 -47.5t-43.5 -53.5q-50 -70 -144 -59q-3 0 -19 2zM286 595q-4 1 -70 10q-2 -49 -2 -52q2 -71 -39 -130q0 -2 -20 -33q63 -14 103 16q65 47 75 121q7 55 -47 68z" />
    <glyph glyph-name="Q" unicode="Q" horiz-adv-x="466" 
d="M390 101q0 -1 -6 -23q36 -14 38 -15q16 -5 20 -11.5t0 -22.5t-10 -32q-6 -14 -13.5 -18.5t-22.5 -1.5q-40 7 -58 35q-43 -11 -45 -11q-32 -5 -72.5 10t-72 42t-42.5 55q-11 26 -68 148q-33 70 3 132q2 3 7 13t9 15q35 50 50 128q15 72 40 105q54 72 143 62q87 -9 115 -96
q11 -34 16 -66q8 -45 -16 -92q-17 -34 -28 -53q-38 -67 -8 -143q11 -28 15 -38q25 -61 6 -122zM288 436q20 43 22 90q-2 17 -2 18q-3 18 -8.5 27.5t-14.5 14.5t-27 7q-19 3 -27 -12q-9 -19 -12 -31q-16 -67 -61 -140q-10 -15 -24 -47q-29 -63 11 -119q8 -11 16.5 -24.5
t15.5 -24t16.5 -25t15.5 -23.5q7 -10 12 -16q14 -16 28 -13.5t21 23.5q12 33 4 64q-4 15 -14 49q-20 69 4 128q13 31 24 54z" />
    <glyph glyph-name="R" unicode="R" horiz-adv-x="448" 
d="M375 430q-6 -7 -94 -121q27 -40 29 -43q5 -6 13 -15t15.5 -17.5t12.5 -15.5q35 -51 42 -71q14 -40 31 -124q3 -13 1 -20t-8.5 -9t-20.5 -2q-7 0 -15 1t-16.5 1.5t-14.5 1.5q-23 1 -28 25q-14 75 -15 81q-8 52 -38 94q-5 6 -60 81q-10 1 -29.5 2.5t-30.5 1.5
q10 -29 11 -31q1 -3 10.5 -26.5t13.5 -36.5q21 -67 1 -154q-1 -4 -4.5 -11t-3.5 -9q-6 -17 -27 -17q-12 0 -36.5 6.5t-38.5 13.5v89q2 66 -26 127q-7 16 -17 45q-21 61 4 124q9 22 12 28q36 70 36 162q0 17 2.5 47t2.5 38q1 20 22 25q116 29 223 -17q39 -17 62 -62
q51 -104 -21 -192zM200 608q4 -90 -52 -218q31 3 44 4.5t33 10t33 24.5q47 57 44 130q-2 34 -35 45q-23 7 -67 4z" />
    <glyph glyph-name="S" unicode="S" horiz-adv-x="391" 
d="M39 195q2 0 39 -2q18 1 26 2q19 1 26 -17q8 -19 27 -46q19 -26 57 -27q13 0 25.5 10.5t19 26.5t2.5 31q-5 20 -18 36q-17 21 -42 40q-10 8 -22 16l-25.5 17l-22.5 15q-30 22 -51 38q-60 48 -51 126q2 16 11 111q4 42 30 70q27 29 42 40q44 34 94.5 35.5t94.5 -25.5
q15 -9 31 -27q27 -33 36 -91q4 -29 -24 -33q-4 0 -65 -6q-17 -1 -23 17q-6 24 -13 36q-9 16 -23 25q-14 10 -28.5 6.5t-23.5 -18.5q-6 -10 -8 -20q-7 -38 -19 -107q-2 -14 8 -37q30 -64 112 -140q11 -10 31.5 -28.5t27.5 -25.5q65 -59 29 -135q-13 -29 -19 -39
q-27 -45 -71 -62t-94 -3q-81 23 -119 103q-8 17 -23 69q-3 11 0.5 15.5t15.5 3.5z" />
    <glyph glyph-name="T" unicode="T" horiz-adv-x="393" 
d="M147 576q0 1 -1 13q-86 6 -87 6q-21 2 -28 8t-9 27q-1 22 4 57q3 24 28 25h27q164 -7 197 -8q38 -2 67 -9q15 -3 20 -10.5t5 -24.5q0 -28 -1 -38q-4 -20 -11.5 -27t-26.5 -9q-9 -1 -18.5 -1t-21.5 -0.5t-19 -0.5l-20 -1q-2 -21 -2 -23q-4 -54 -38 -95q-37 -44 -38 -45
q-15 -20 -24 -36q-19 -36 -1 -72q9 -19 29 -45q5 -6 11 -13t13 -14.5t11 -12.5q41 -48 41 -112v-39.5v-40.5q-1 -21 -9 -28t-29 -6q-14 0 -45 5q-14 2 -15 16q-1 4 -2 15t-2 16v33t-1 33q-2 56 -31 96q-4 5 -9 11.5t-11 14t-9 12.5q-31 40 -34 45q-36 58 5 110q8 11 43 53
q45 55 42 115z" />
    <glyph glyph-name="U" unicode="U" horiz-adv-x="496" 
d="M145 697q45 5 79 -1q3 -67 3 -71q1 -55 0 -85q-2 -52 -42 -97q-25 -29 -37 -44q-24 -34 -24.5 -60.5t22.5 -60.5q11 -15 23.5 -32.5t26.5 -37.5t23 -33q2 -4 7.5 -12t8.5 -12q17 -24 45 -32q21 -6 35.5 4.5t16.5 32.5q1 30 -17 60q-5 9 -12 20t-14 22.5t-12 19.5
q-34 56 5 109q14 20 34 44q45 52 45 125q0 16 5 131q0 1 3 15q19 2 54.5 2t46.5 1q3 -14 3.5 -27.5t-1 -34.5t-1.5 -26q-1 -12 -2.5 -32.5t-1.5 -28.5q-3 -71 -48 -125q-28 -34 -36 -46q-22 -33 -22.5 -55t22.5 -60q6 -10 14 -20.5t18 -23t15 -19.5q22 -29 23 -58
q2 -67 -46 -104q-78 -59 -163 -30q-51 18 -79 68q-12 24 -32 68q-25 58 -69 108q-14 16 -25 33q-34 50 -1 100q20 32 32 46q55 62 49 143q-2 15 4 89q1 25 22 27z" />
    <glyph glyph-name="U" unicode="&#xdc;" horiz-adv-x="496" 
d="M145 697q45 5 79 -1q3 -67 3 -71q1 -55 0 -85q-2 -52 -42 -97q-25 -29 -37 -44q-24 -34 -24.5 -60.5t22.5 -60.5q11 -15 23.5 -32.5t26.5 -37.5t23 -33q2 -4 7.5 -12t8.5 -12q17 -24 45 -32q21 -6 35.5 4.5t16.5 32.5q1 30 -17 60q-5 9 -12 20t-14 22.5t-12 19.5
q-34 56 5 109q14 20 34 44q45 52 45 125q0 16 5 131q0 1 3 15q19 2 54.5 2t46.5 1q3 -14 3.5 -27.5t-1 -34.5t-1.5 -26q-1 -12 -2.5 -32.5t-1.5 -28.5q-3 -71 -48 -125q-28 -34 -36 -46q-22 -33 -22.5 -55t22.5 -60q6 -10 14 -20.5t18 -23t15 -19.5q22 -29 23 -58
q2 -67 -46 -104q-78 -59 -163 -30q-51 18 -79 68q-12 24 -32 68q-25 58 -69 108q-14 16 -25 33q-34 50 -1 100q20 32 32 46q55 62 49 143q-2 15 4 89q1 25 22 27z" />
    <glyph glyph-name="U" unicode="&#xdb;" horiz-adv-x="496" 
d="M145 697q45 5 79 -1q3 -67 3 -71q1 -55 0 -85q-2 -52 -42 -97q-25 -29 -37 -44q-24 -34 -24.5 -60.5t22.5 -60.5q11 -15 23.5 -32.5t26.5 -37.5t23 -33q2 -4 7.5 -12t8.5 -12q17 -24 45 -32q21 -6 35.5 4.5t16.5 32.5q1 30 -17 60q-5 9 -12 20t-14 22.5t-12 19.5
q-34 56 5 109q14 20 34 44q45 52 45 125q0 16 5 131q0 1 3 15q19 2 54.5 2t46.5 1q3 -14 3.5 -27.5t-1 -34.5t-1.5 -26q-1 -12 -2.5 -32.5t-1.5 -28.5q-3 -71 -48 -125q-28 -34 -36 -46q-22 -33 -22.5 -55t22.5 -60q6 -10 14 -20.5t18 -23t15 -19.5q22 -29 23 -58
q2 -67 -46 -104q-78 -59 -163 -30q-51 18 -79 68q-12 24 -32 68q-25 58 -69 108q-14 16 -25 33q-34 50 -1 100q20 32 32 46q55 62 49 143q-2 15 4 89q1 25 22 27z" />
    <glyph glyph-name="U" unicode="&#xda;" horiz-adv-x="496" 
d="M145 697q45 5 79 -1q3 -67 3 -71q1 -55 0 -85q-2 -52 -42 -97q-25 -29 -37 -44q-24 -34 -24.5 -60.5t22.5 -60.5q11 -15 23.5 -32.5t26.5 -37.5t23 -33q2 -4 7.5 -12t8.5 -12q17 -24 45 -32q21 -6 35.5 4.5t16.5 32.5q1 30 -17 60q-5 9 -12 20t-14 22.5t-12 19.5
q-34 56 5 109q14 20 34 44q45 52 45 125q0 16 5 131q0 1 3 15q19 2 54.5 2t46.5 1q3 -14 3.5 -27.5t-1 -34.5t-1.5 -26q-1 -12 -2.5 -32.5t-1.5 -28.5q-3 -71 -48 -125q-28 -34 -36 -46q-22 -33 -22.5 -55t22.5 -60q6 -10 14 -20.5t18 -23t15 -19.5q22 -29 23 -58
q2 -67 -46 -104q-78 -59 -163 -30q-51 18 -79 68q-12 24 -32 68q-25 58 -69 108q-14 16 -25 33q-34 50 -1 100q20 32 32 46q55 62 49 143q-2 15 4 89q1 25 22 27z" />
    <glyph glyph-name="U" unicode="&#xd9;" horiz-adv-x="496" 
d="M145 697q45 5 79 -1q3 -67 3 -71q1 -55 0 -85q-2 -52 -42 -97q-25 -29 -37 -44q-24 -34 -24.5 -60.5t22.5 -60.5q11 -15 23.5 -32.5t26.5 -37.5t23 -33q2 -4 7.5 -12t8.5 -12q17 -24 45 -32q21 -6 35.5 4.5t16.5 32.5q1 30 -17 60q-5 9 -12 20t-14 22.5t-12 19.5
q-34 56 5 109q14 20 34 44q45 52 45 125q0 16 5 131q0 1 3 15q19 2 54.5 2t46.5 1q3 -14 3.5 -27.5t-1 -34.5t-1.5 -26q-1 -12 -2.5 -32.5t-1.5 -28.5q-3 -71 -48 -125q-28 -34 -36 -46q-22 -33 -22.5 -55t22.5 -60q6 -10 14 -20.5t18 -23t15 -19.5q22 -29 23 -58
q2 -67 -46 -104q-78 -59 -163 -30q-51 18 -79 68q-12 24 -32 68q-25 58 -69 108q-14 16 -25 33q-34 50 -1 100q20 32 32 46q55 62 49 143q-2 15 4 89q1 25 22 27z" />
    <glyph glyph-name="V" unicode="V" horiz-adv-x="491" 
d="M84 667q0 2 4 36q33 -4 95 -12q7 -29 7 -30q1 -14 2.5 -31t2.5 -31t2.5 -31t3.5 -31q8 -68 -34 -120q-14 -17 -27 -40q-23 -43 4 -85q15 -24 57 -63q3 2 4 3q-8 21 -9 22q-32 65 19 121q22 25 41 41q67 57 76 152q1 20 17 110q0 2 8 25q83 -2 92 -2q11 -1 15 -5t4 -15
q1 -22 -2 -39q-3 -24 -16 -98q-10 -61 -57 -110q-8 -8 -27 -26.5t-28 -28.5q-38 -39 -40 -69t28 -75q9 -13 13 -17q47 -56 29 -132q-6 -22 -12 -55q-2 -14 -7 -19t-19 -5q-13 0 -123 3q-8 23 -8 24q-2 7 -8.5 31t-10.5 37q-18 58 -63 102q-5 5 -14 13.5t-16 15.5l-14 14
q-16 16 -27 30q-43 54 -8 113q12 21 15 25q50 63 37 160q-4 30 -6 92z" />
    <glyph glyph-name="W" unicode="W" horiz-adv-x="621" 
d="M280 257q-18 28 -22 66q-16 -29 -3 -65q11 -29 26 -60q13 -27 15.5 -58.5t-1.5 -56t-14 -58.5q-3 -10 -18 -14q-17 -3 -25 -3t-25 1.5t-25 2.5q-10 0 -14 16q-2 8 -4.5 20t-4.5 22.5t-4 19.5q-11 55 -54 104q-49 56 -51 59q-15 19 -25 39q-19 39 2 77q11 21 18 31
q42 56 33 128q0 4 -21 152l-1 16q25 3 27 3q11 0 35 -0.5t37 -0.5q18 0 21 -16q7 -33 8 -48q2 -17 3.5 -39t3 -44.5t2.5 -39.5q5 -52 -12 -88q0 -1 -4 -16q41 41 54 93q3 10 20 97q2 7 4 20t4.5 24t4.5 20q1 3 15 44h83q11 -42 19 -73q25 -96 27 -106q15 -56 3 -114
q10 13 10 14q28 46 37 100q7 45 21 154q2 16 7.5 20.5t21.5 5.5q7 0 25 1t28 2q16 0 23 -6t8 -22q2 -13 0 -27q-4 -27 -10.5 -76t-8.5 -68q-7 -52 -39 -102q-20 -32 -36 -60q-29 -50 -16 -115q2 -11 13 -54q16 -65 -8 -141q-7 -23 -27 -24q-58 -3 -63 -3q-4 0 -8.5 4.5
t-6.5 8.5q-9 28 -14 54q-14 71 -58 127q-17 21 -36 52z" />
    <glyph glyph-name="X" unicode="X" horiz-adv-x="448" 
d="M31 683q0 1 -5 22l16 2q4 0 36 -1t35 0q26 2 35 -23q4 -10 10 -29q5 -17 13 -43t15.5 -49t13.5 -43q1 -1 9 -22q9 17 9 18q54 134 71 177q5 13 18 12q11 0 27.5 -0.5t31 -1t26.5 -1.5q23 -1 16 -23q-3 -10 -12 -29q-7 -15 -17 -36t-19.5 -41.5t-17.5 -36.5
q-37 -80 -94 -144q-19 -20 -12 -48q12 -50 37 -81q36 -45 61 -72q59 -61 89 -152q6 -18 0 -25.5t-25 -6.5q-14 0 -44 2l-45 3q-17 1 -22 15q-11 29 -12 32q-24 77 -80 141q-20 23 -31 31q2 -24 2 -25q13 -88 -23 -171q-8 -20 -13.5 -24t-27.5 -3q-4 0 -80 4q3 23 3 24
q2 5 13 34q28 69 25 130q-5 79 43 144q7 9 8 26q6 80 -28 161q-7 17 -55 153z" />
    <glyph glyph-name="Y" unicode="Y" horiz-adv-x="419" 
d="M204 512q0 -1 5 -12q12 20 26 59t16 44q3 8 41 101q76 5 83 6q12 0 17.5 -6t3.5 -18q-1 -6 -3 -12q-53 -136 -61 -154q-20 -48 -65 -95q-7 -8 -20.5 -24t-21.5 -23q-37 -39 -19 -100q9 -30 22 -54q44 -82 37 -198q-1 -18 -8 -24t-26 -3q-9 1 -27.5 2t-22.5 1q-22 2 -29 9
t-7 28q0 6 2 32q6 78 -25 141q-32 66 -33 104q-3 87 -1 109q6 69 -18 131q-8 21 -23 60.5t-18 45.5q-4 12 -5 16q-4 13 -0.5 18t16.5 7q9 1 18.5 2t21 2t18.5 2q30 3 42 -22q29 -64 33 -76q1 -3 31 -99z" />
    <glyph glyph-name="Y" unicode="&#xdd;" horiz-adv-x="419" 
d="M204 512q0 -1 5 -12q12 20 26 59t16 44q3 8 41 101q76 5 83 6q12 0 17.5 -6t3.5 -18q-1 -6 -3 -12q-53 -136 -61 -154q-20 -48 -65 -95q-7 -8 -20.5 -24t-21.5 -23q-37 -39 -19 -100q9 -30 22 -54q44 -82 37 -198q-1 -18 -8 -24t-26 -3q-9 1 -27.5 2t-22.5 1q-22 2 -29 9
t-7 28q0 6 2 32q6 78 -25 141q-32 66 -33 104q-3 87 -1 109q6 69 -18 131q-8 21 -23 60.5t-18 45.5q-4 12 -5 16q-4 13 -0.5 18t16.5 7q9 1 18.5 2t21 2t18.5 2q30 3 42 -22q29 -64 33 -76q1 -3 31 -99z" />
    <glyph glyph-name="Z" unicode="Z" horiz-adv-x="352" 
d="M216 576q0 1 6 17q-14 2 -15 2q-110 0 -146 -1q-23 0 -30 6.5t-8 29.5q-2 25 0 56q1 16 5.5 20t21.5 5h9.5h9.5q97 3 221 8q2 0 7 0.5t8 0.5q13 0 17 -4.5t5 -16.5q0 -9 1 -54q0 -1 -0.5 -13.5t-0.5 -13.5q7 -44 -25 -96q-2 -3 -45 -66q-45 -66 -49 -72q-38 -61 -39 -129
q0 -58 -20 -114q-1 -1 -5 -16h100q4 0 29 1t29 0q16 -1 21 -6t5 -21q2 -27 2 -53q0 -12 -1.5 -17t-6 -7.5t-16.5 -3.5q-40 -6 -63 -6q-38 0 -187 3q-7 0 -17 2q-17 4 -16 21q0 5 0.5 26.5t1 31t3 25.5t7.5 29q16 43 12 91q-7 80 45 150q31 42 52 68q36 45 72 117z" />
    <glyph glyph-name="backslash" unicode="\" horiz-adv-x="367" 
d="M337 35q12 -26 5.5 -42t-32.5 -26q-22 -8 -33.5 -4t-21.5 25q-7 15 -47 108q-23 53 -28 68q-7 18 -23.5 64.5t-26.5 71.5q-11 27 -32.5 79t-31.5 78q-7 17 -42 117q-6 16 5 21q22 12 71 35h12q20 -55 21 -58q20 -54 75 -202q69 -184 78 -207q29 -78 51 -128z" />
    <glyph glyph-name="underscore" unicode="_" horiz-adv-x="529" 
d="M504 37q2 -16 2 -21q1 -29 -24 -38q-21 -7 -45 -10q-104 -13 -188 -22q-8 -1 -126 -11v1.5v1.5h-63q-7 0 -19 4q-13 4 -16.5 8t-2.5 17q1 17 7 43q5 20 25 23q4 0 22 2q225 16 242.5 17.5t57 5t61.5 5.5q11 1 46 -3q19 -2 21 -23z" />
    <glyph glyph-name="a" unicode="a" horiz-adv-x="409" 
d="M282 48q-12 61 -30 96q-26 2 -58.5 1t-57.5 -8q-1 -17 -1 -18q1 -38 -15 -105q-5 -17 -13 -23.5t-26 -8.5q-12 -1 -32 1q-17 1 -16 18q1 53 2 58q7 60 -5 107q-23 93 21 171q42 75 69 187q2 10 10.5 43.5t13.5 52.5q6 26 28 27q11 0 37 3t41 3q16 0 23 -6.5t10 -23.5
q3 -16 7.5 -39t8 -44t7.5 -39q8 -42 -5 -84q-1 -4 -6 -20.5t-8 -25.5q-19 -71 17 -131q14 -24 26 -40q32 -45 42 -101q6 -36 14 -87q2 -14 -2 -19t-18 -6q-44 -3 -60 8t-24 53zM210 403q9 43 2 68q-5 -16 -13.5 -34.5t-14.5 -30t-18 -33.5t-16 -30q-13 -24 -23 -53
q-12 -38 -5 -68q55 9 83 14q-20 49 -10 105q2 11 7.5 32.5t7.5 29.5z" />
    <glyph glyph-name="a" unicode="&#xe5;" horiz-adv-x="409" 
d="M282 48q-12 61 -30 96q-26 2 -58.5 1t-57.5 -8q-1 -17 -1 -18q1 -38 -15 -105q-5 -17 -13 -23.5t-26 -8.5q-12 -1 -32 1q-17 1 -16 18q1 53 2 58q7 60 -5 107q-23 93 21 171q42 75 69 187q2 10 10.5 43.5t13.5 52.5q6 26 28 27q11 0 37 3t41 3q16 0 23 -6.5t10 -23.5
q3 -16 7.5 -39t8 -44t7.5 -39q8 -42 -5 -84q-1 -4 -6 -20.5t-8 -25.5q-19 -71 17 -131q14 -24 26 -40q32 -45 42 -101q6 -36 14 -87q2 -14 -2 -19t-18 -6q-44 -3 -60 8t-24 53zM210 403q9 43 2 68q-5 -16 -13.5 -34.5t-14.5 -30t-18 -33.5t-16 -30q-13 -24 -23 -53
q-12 -38 -5 -68q55 9 83 14q-20 49 -10 105q2 11 7.5 32.5t7.5 29.5z" />
    <glyph glyph-name="a" unicode="&#xe4;" horiz-adv-x="409" 
d="M282 48q-12 61 -30 96q-26 2 -58.5 1t-57.5 -8q-1 -17 -1 -18q1 -38 -15 -105q-5 -17 -13 -23.5t-26 -8.5q-12 -1 -32 1q-17 1 -16 18q1 53 2 58q7 60 -5 107q-23 93 21 171q42 75 69 187q2 10 10.5 43.5t13.5 52.5q6 26 28 27q11 0 37 3t41 3q16 0 23 -6.5t10 -23.5
q3 -16 7.5 -39t8 -44t7.5 -39q8 -42 -5 -84q-1 -4 -6 -20.5t-8 -25.5q-19 -71 17 -131q14 -24 26 -40q32 -45 42 -101q6 -36 14 -87q2 -14 -2 -19t-18 -6q-44 -3 -60 8t-24 53zM210 403q9 43 2 68q-5 -16 -13.5 -34.5t-14.5 -30t-18 -33.5t-16 -30q-13 -24 -23 -53
q-12 -38 -5 -68q55 9 83 14q-20 49 -10 105q2 11 7.5 32.5t7.5 29.5z" />
    <glyph glyph-name="a" unicode="&#xe3;" horiz-adv-x="409" 
d="M282 48q-12 61 -30 96q-26 2 -58.5 1t-57.5 -8q-1 -17 -1 -18q1 -38 -15 -105q-5 -17 -13 -23.5t-26 -8.5q-12 -1 -32 1q-17 1 -16 18q1 53 2 58q7 60 -5 107q-23 93 21 171q42 75 69 187q2 10 10.5 43.5t13.5 52.5q6 26 28 27q11 0 37 3t41 3q16 0 23 -6.5t10 -23.5
q3 -16 7.5 -39t8 -44t7.5 -39q8 -42 -5 -84q-1 -4 -6 -20.5t-8 -25.5q-19 -71 17 -131q14 -24 26 -40q32 -45 42 -101q6 -36 14 -87q2 -14 -2 -19t-18 -6q-44 -3 -60 8t-24 53zM210 403q9 43 2 68q-5 -16 -13.5 -34.5t-14.5 -30t-18 -33.5t-16 -30q-13 -24 -23 -53
q-12 -38 -5 -68q55 9 83 14q-20 49 -10 105q2 11 7.5 32.5t7.5 29.5z" />
    <glyph glyph-name="a" unicode="&#xe2;" horiz-adv-x="409" 
d="M282 48q-12 61 -30 96q-26 2 -58.5 1t-57.5 -8q-1 -17 -1 -18q1 -38 -15 -105q-5 -17 -13 -23.5t-26 -8.5q-12 -1 -32 1q-17 1 -16 18q1 53 2 58q7 60 -5 107q-23 93 21 171q42 75 69 187q2 10 10.5 43.5t13.5 52.5q6 26 28 27q11 0 37 3t41 3q16 0 23 -6.5t10 -23.5
q3 -16 7.5 -39t8 -44t7.5 -39q8 -42 -5 -84q-1 -4 -6 -20.5t-8 -25.5q-19 -71 17 -131q14 -24 26 -40q32 -45 42 -101q6 -36 14 -87q2 -14 -2 -19t-18 -6q-44 -3 -60 8t-24 53zM210 403q9 43 2 68q-5 -16 -13.5 -34.5t-14.5 -30t-18 -33.5t-16 -30q-13 -24 -23 -53
q-12 -38 -5 -68q55 9 83 14q-20 49 -10 105q2 11 7.5 32.5t7.5 29.5z" />
    <glyph glyph-name="a" unicode="&#xe1;" horiz-adv-x="409" 
d="M282 48q-12 61 -30 96q-26 2 -58.5 1t-57.5 -8q-1 -17 -1 -18q1 -38 -15 -105q-5 -17 -13 -23.5t-26 -8.5q-12 -1 -32 1q-17 1 -16 18q1 53 2 58q7 60 -5 107q-23 93 21 171q42 75 69 187q2 10 10.5 43.5t13.5 52.5q6 26 28 27q11 0 37 3t41 3q16 0 23 -6.5t10 -23.5
q3 -16 7.5 -39t8 -44t7.5 -39q8 -42 -5 -84q-1 -4 -6 -20.5t-8 -25.5q-19 -71 17 -131q14 -24 26 -40q32 -45 42 -101q6 -36 14 -87q2 -14 -2 -19t-18 -6q-44 -3 -60 8t-24 53zM210 403q9 43 2 68q-5 -16 -13.5 -34.5t-14.5 -30t-18 -33.5t-16 -30q-13 -24 -23 -53
q-12 -38 -5 -68q55 9 83 14q-20 49 -10 105q2 11 7.5 32.5t7.5 29.5z" />
    <glyph glyph-name="a" unicode="&#xe0;" horiz-adv-x="409" 
d="M282 48q-12 61 -30 96q-26 2 -58.5 1t-57.5 -8q-1 -17 -1 -18q1 -38 -15 -105q-5 -17 -13 -23.5t-26 -8.5q-12 -1 -32 1q-17 1 -16 18q1 53 2 58q7 60 -5 107q-23 93 21 171q42 75 69 187q2 10 10.5 43.5t13.5 52.5q6 26 28 27q11 0 37 3t41 3q16 0 23 -6.5t10 -23.5
q3 -16 7.5 -39t8 -44t7.5 -39q8 -42 -5 -84q-1 -4 -6 -20.5t-8 -25.5q-19 -71 17 -131q14 -24 26 -40q32 -45 42 -101q6 -36 14 -87q2 -14 -2 -19t-18 -6q-44 -3 -60 8t-24 53zM210 403q9 43 2 68q-5 -16 -13.5 -34.5t-14.5 -30t-18 -33.5t-16 -30q-13 -24 -23 -53
q-12 -38 -5 -68q55 9 83 14q-20 49 -10 105q2 11 7.5 32.5t7.5 29.5z" />
    <glyph glyph-name="b" unicode="b" horiz-adv-x="455" 
d="M310 355q-2 -2 -31 -22q57 -29 60 -31q44 -23 70 -54q30 -36 22 -78q-17 -87 -79 -135q-17 -13 -41 -20q-65 -20 -152 -19q-38 0 -49 10.5t-14 49.5q-5 67 -10 91q-3 18 -23 62q0 1 -22 37q-32 55 -10 113q14 38 31 69q33 61 38 132q1 7 2 21t2 25.5t2 21.5q1 13 4 16.5
t16 5.5q98 13 195 -21q44 -15 65 -60t4 -88q-19 -46 -40 -83q-8 -13 -40 -43zM205 189q5 -15 8 -31.5t6 -39.5t5 -34q37 1 66 27q31 27 32 64t-29 65q-37 33 -83 43q-15 3 -50 1q5 -10 15.5 -30t17.5 -35.5t12 -29.5zM207 567q0 -12 -1.5 -24t-3 -21.5t-5.5 -22.5t-6 -20
t-8.5 -21.5t-9 -19t-10 -21t-9.5 -19.5l9 -3q38 -2 80 31.5t49 69.5q5 24 -13 37q-22 16 -44 28q-1 1 -28 6z" />
    <glyph glyph-name="c" unicode="c" horiz-adv-x="412" 
d="M324 437q-24 -3 -72 11l22 55q5 14 7 24q4 24 -19 29t-38 -7q-21 -16 -28 -26q-35 -53 -55 -90q-32 -59 -1 -122q9 -18 13 -24q28 -50 35 -111q1 -10 9 -43q2 -8 7 -14q15 -23 32 -23q18 0 30 25q22 49 19 89v23q36 5 39 6q3 0 16 -0.5t16 -0.5q14 0 20.5 -5t9.5 -19
q2 -7 2.5 -14t0.5 -15.5t-0.5 -13.5t-2 -15.5t-2.5 -14.5q0 -1 -0.5 -3t-0.5 -3q-16 -108 -134 -137q-63 -15 -110 46q-16 21 -24 49q-10 36 -22 97q-8 44 -29 79q-21 34 -34 63q-16 37 0 80q6 17 6 18l70 152q19 44 73.5 65.5t100.5 4.5q26 -10 28 -11q29 -8 50 -41
q40 -61 3 -135q-11 -24 -37 -28z" />
    <glyph glyph-name="c" unicode="&#xe7;" horiz-adv-x="412" 
d="M324 437q-24 -3 -72 11l22 55q5 14 7 24q4 24 -19 29t-38 -7q-21 -16 -28 -26q-35 -53 -55 -90q-32 -59 -1 -122q9 -18 13 -24q28 -50 35 -111q1 -10 9 -43q2 -8 7 -14q15 -23 32 -23q18 0 30 25q22 49 19 89v23q36 5 39 6q3 0 16 -0.5t16 -0.5q14 0 20.5 -5t9.5 -19
q2 -7 2.5 -14t0.5 -15.5t-0.5 -13.5t-2 -15.5t-2.5 -14.5q0 -1 -0.5 -3t-0.5 -3q-16 -108 -134 -137q-63 -15 -110 46q-16 21 -24 49q-10 36 -22 97q-8 44 -29 79q-21 34 -34 63q-16 37 0 80q6 17 6 18l70 152q19 44 73.5 65.5t100.5 4.5q26 -10 28 -11q29 -8 50 -41
q40 -61 3 -135q-11 -24 -37 -28z" />
    <glyph glyph-name="d" unicode="d" horiz-adv-x="404" 
d="M197 1v3h-46h-14q-25 2 -34.5 12.5t-10.5 35.5q-1 61 -2 103q0 67 -30 124q-20 40 -29 63q-19 48 3 98q11 25 21 41q32 53 37 127q1 17 2 27q2 12 6.5 16.5t17.5 5.5q8 1 14 1q104 -8 117 -10q70 -9 107 -59q43 -58 12 -124q-9 -20 -19 -36q-29 -50 -12 -114
q9 -34 28 -80q21 -51 12 -94q-1 -1 -12 -68q-5 -31 -36 -50q-35 -21 -77 -22h-55zM176 139q0 -3 3 -62h12h13t11 1t12 3.5t9 6.5q22 18 35 36q11 17 13 36q5 46 -15 89q-24 52 -32 77q-20 59 7 109q13 24 20 46q8 26 -5 46t-40 25q-2 0 -31 3q-7 -42 -45 -96q-6 -9 -13 -22
q-30 -56 -11 -108q12 -30 25 -55q32 -62 32 -135z" />
    <glyph glyph-name="e" unicode="e" horiz-adv-x="403" 
d="M214 552h-25q-6 -31 -6 -32q-7 -37 -35 -84q-25 -42 -28 -73h70h48q19 0 22 -17q1 -6 10 -68q-9 -5 -18.5 -6t-22.5 -0.5t-19 0.5q-5 -1 -61 -1q3 -9 11.5 -27.5t14 -32.5t9.5 -27q2 -10 3.5 -23t2 -23t1 -24.5t1.5 -24.5h14q120 1 140 1q22 1 27 -19q7 -28 8 -36
q2 -29 -27 -31q-16 -1 -71 -3q-21 0 -77.5 -1.5t-87.5 -2.5q-13 -1 -19.5 1.5t-10.5 8.5t-6 18q-3 20 -3 48q1 11 2.5 35.5t1.5 37.5q0 47 -24 95q-16 31 -28 63q-19 48 2 101q7 20 13 30q28 49 30 130q1 26 4 53q4 21 12 28t29 8q5 0 207 4q29 0 34 -4.5t6 -33.5v-14v-18
q0 -15 -5 -21.5t-19 -9.5q-25 -4 -50 -5h-80z" />
    <glyph glyph-name="e" unicode="&#xeb;" horiz-adv-x="403" 
d="M214 552h-25q-6 -31 -6 -32q-7 -37 -35 -84q-25 -42 -28 -73h70h48q19 0 22 -17q1 -6 10 -68q-9 -5 -18.5 -6t-22.5 -0.5t-19 0.5q-5 -1 -61 -1q3 -9 11.5 -27.5t14 -32.5t9.5 -27q2 -10 3.5 -23t2 -23t1 -24.5t1.5 -24.5h14q120 1 140 1q22 1 27 -19q7 -28 8 -36
q2 -29 -27 -31q-16 -1 -71 -3q-21 0 -77.5 -1.5t-87.5 -2.5q-13 -1 -19.5 1.5t-10.5 8.5t-6 18q-3 20 -3 48q1 11 2.5 35.5t1.5 37.5q0 47 -24 95q-16 31 -28 63q-19 48 2 101q7 20 13 30q28 49 30 130q1 26 4 53q4 21 12 28t29 8q5 0 207 4q29 0 34 -4.5t6 -33.5v-14v-18
q0 -15 -5 -21.5t-19 -9.5q-25 -4 -50 -5h-80z" />
    <glyph glyph-name="e" unicode="&#xea;" horiz-adv-x="403" 
d="M214 552h-25q-6 -31 -6 -32q-7 -37 -35 -84q-25 -42 -28 -73h70h48q19 0 22 -17q1 -6 10 -68q-9 -5 -18.5 -6t-22.5 -0.5t-19 0.5q-5 -1 -61 -1q3 -9 11.5 -27.5t14 -32.5t9.5 -27q2 -10 3.5 -23t2 -23t1 -24.5t1.5 -24.5h14q120 1 140 1q22 1 27 -19q7 -28 8 -36
q2 -29 -27 -31q-16 -1 -71 -3q-21 0 -77.5 -1.5t-87.5 -2.5q-13 -1 -19.5 1.5t-10.5 8.5t-6 18q-3 20 -3 48q1 11 2.5 35.5t1.5 37.5q0 47 -24 95q-16 31 -28 63q-19 48 2 101q7 20 13 30q28 49 30 130q1 26 4 53q4 21 12 28t29 8q5 0 207 4q29 0 34 -4.5t6 -33.5v-14v-18
q0 -15 -5 -21.5t-19 -9.5q-25 -4 -50 -5h-80z" />
    <glyph glyph-name="e" unicode="&#xe9;" horiz-adv-x="403" 
d="M214 552h-25q-6 -31 -6 -32q-7 -37 -35 -84q-25 -42 -28 -73h70h48q19 0 22 -17q1 -6 10 -68q-9 -5 -18.5 -6t-22.5 -0.5t-19 0.5q-5 -1 -61 -1q3 -9 11.5 -27.5t14 -32.5t9.5 -27q2 -10 3.5 -23t2 -23t1 -24.5t1.5 -24.5h14q120 1 140 1q22 1 27 -19q7 -28 8 -36
q2 -29 -27 -31q-16 -1 -71 -3q-21 0 -77.5 -1.5t-87.5 -2.5q-13 -1 -19.5 1.5t-10.5 8.5t-6 18q-3 20 -3 48q1 11 2.5 35.5t1.5 37.5q0 47 -24 95q-16 31 -28 63q-19 48 2 101q7 20 13 30q28 49 30 130q1 26 4 53q4 21 12 28t29 8q5 0 207 4q29 0 34 -4.5t6 -33.5v-14v-18
q0 -15 -5 -21.5t-19 -9.5q-25 -4 -50 -5h-80z" />
    <glyph glyph-name="e" unicode="&#xe8;" horiz-adv-x="403" 
d="M214 552h-25q-6 -31 -6 -32q-7 -37 -35 -84q-25 -42 -28 -73h70h48q19 0 22 -17q1 -6 10 -68q-9 -5 -18.5 -6t-22.5 -0.5t-19 0.5q-5 -1 -61 -1q3 -9 11.5 -27.5t14 -32.5t9.5 -27q2 -10 3.5 -23t2 -23t1 -24.5t1.5 -24.5h14q120 1 140 1q22 1 27 -19q7 -28 8 -36
q2 -29 -27 -31q-16 -1 -71 -3q-21 0 -77.5 -1.5t-87.5 -2.5q-13 -1 -19.5 1.5t-10.5 8.5t-6 18q-3 20 -3 48q1 11 2.5 35.5t1.5 37.5q0 47 -24 95q-16 31 -28 63q-19 48 2 101q7 20 13 30q28 49 30 130q1 26 4 53q4 21 12 28t29 8q5 0 207 4q29 0 34 -4.5t6 -33.5v-14v-18
q0 -15 -5 -21.5t-19 -9.5q-25 -4 -50 -5h-80z" />
    <glyph glyph-name="f" unicode="f" horiz-adv-x="404" 
d="M183 278q-1 0 -31 4q17 -38 18 -40q24 -52 21 -117q-1 -31 -3 -96q0 -12 -2 -17t-6.5 -7.5t-15.5 -3.5q-26 -3 -41 -1q-38 3 -42 41q-2 24 0 48q7 101 -34 168q-50 83 0 170q34 60 39 105q0 3 6 60q1 19 2 20q2 15 8 20t21 5q16 0 78.5 -1t96.5 -1l50 3q10 1 15.5 -0.5
t8.5 -6t6 -13.5q16 -58 -39 -66q-17 -2 -103 -4q-2 0 -36 2q-4 -16 -4 -17q-6 -46 -30 -96q-5 -11 -24 -59q0 -1 -3 -17h19q61 -1 73 -1q21 -1 28 -21q9 -31 13 -49q2 -12 -2.5 -17.5t-17.5 -4.5q-3 1 -69 10z" />
    <glyph glyph-name="g" unicode="g" horiz-adv-x="430" 
d="M341.5 424q-9.5 -1 -81.5 -6q9 21 10 22q17 41 18 47q4 15 -1 34q-5 18 -23 25t-34 -4q-15 -10 -25 -26q-33 -51 -59 -96q-41 -73 0 -148q25 -47 39 -110q4 -20 14 -43q12 -28 41 -29q26 0 40 27q35 66 -4 143q-4 6 -17 10q-8 3 -36 8q-30 6 -32 37q0 15 1 23
q2 16 7 20.5t22 6.5q7 1 32.5 4.5t39.5 5.5q19 2 33 0q22 -2 23 -23q3 -35 32 -103q15 -35 23 -65q12 -50 -12 -100t-71 -71q-67 -30 -132 -13q-54 13 -77 67q-25 57 -31 96q-6 45 -38 103q-40 74 -4 148q3 7 8 16t8.5 16.5t8 16.5t7.5 17q22 46 26 59q17 53 59 79.5
t99 20.5q80 -9 130 -78q27 -37 4 -76q-23 -38 -29 -47q-9 -13 -18.5 -14z" />
    <glyph glyph-name="h" unicode="h" horiz-adv-x="412" 
d="M287 101q7 91 -45 175q-74 3 -100 1q12 -26 13 -27q25 -55 25 -112q-2 -77 -3 -85q-1 -13 -3 -21.5t-5 -14.5t-7 -8.5t-9.5 -3.5t-13 -1h-16.5q-35 0 -44.5 9.5t-10.5 44.5v25t-0.5 25t-0.5 24.5v24.5q-1 55 -21 103q-7 16 -14 37q-23 67 6 132q20 43 35 82q5 12 8 26.5
t4 24.5t2.5 28t2.5 25q2 18 6 22t22 4q37 1 48 -1q17 -1 23.5 -8t6.5 -22q0 -81 -25 -135q-3 -7 -8 -16.5t-9 -17t-8.5 -17t-8.5 -17.5q-1 -3 -16 -56q33 -1 104 -4q4 15 5 16q2 7 7 22t9.5 26t9.5 20q46 85 36 166q-1 8 0 23q1 23 22 23q23 0 55 -4q20 -2 20 -21
q5 -112 -35 -173q-9 -15 -21 -43q-25 -58 6 -120q9 -18 17 -30q35 -55 33 -123q-2 -51 -7 -96q-2 -18 -7 -22.5t-24 -5.5q-16 -1 -32 -1q-17 1 -23.5 7.5t-7.5 23.5q-2 47 -1 66z" />
    <glyph glyph-name="i" unicode="i" horiz-adv-x="217" 
d="M86 60v45q7 79 -33 149q-15 25 -26 61q-12 36 7 83q8 21 26 57q28 56 28 131q0 11 0.5 16.5t0 11.5t2 8.5t2.5 5t5.5 3.5t7 2t10.5 2t14 2q13 2 22 2q8 0 12 -0.5t7 -3t4.5 -6.5t3.5 -11q15 -88 -22 -156q-25 -48 -26 -49q-31 -62 2 -119q12 -21 33 -55q24 -37 26 -80
q3 -65 2 -98q-1 -28 -18.5 -42.5t-44.5 -8.5q-2 0 -7 1q-26 5 -32 12t-6 37z" />
    <glyph glyph-name="i" unicode="&#xef;" horiz-adv-x="217" 
d="M86 60v45q7 79 -33 149q-15 25 -26 61q-12 36 7 83q8 21 26 57q28 56 28 131q0 11 0.5 16.5t0 11.5t2 8.5t2.5 5t5.5 3.5t7 2t10.5 2t14 2q13 2 22 2q8 0 12 -0.5t7 -3t4.5 -6.5t3.5 -11q15 -88 -22 -156q-25 -48 -26 -49q-31 -62 2 -119q12 -21 33 -55q24 -37 26 -80
q3 -65 2 -98q-1 -28 -18.5 -42.5t-44.5 -8.5q-2 0 -7 1q-26 5 -32 12t-6 37z" />
    <glyph glyph-name="i" unicode="&#xee;" horiz-adv-x="217" 
d="M86 60v45q7 79 -33 149q-15 25 -26 61q-12 36 7 83q8 21 26 57q28 56 28 131q0 11 0.5 16.5t0 11.5t2 8.5t2.5 5t5.5 3.5t7 2t10.5 2t14 2q13 2 22 2q8 0 12 -0.5t7 -3t4.5 -6.5t3.5 -11q15 -88 -22 -156q-25 -48 -26 -49q-31 -62 2 -119q12 -21 33 -55q24 -37 26 -80
q3 -65 2 -98q-1 -28 -18.5 -42.5t-44.5 -8.5q-2 0 -7 1q-26 5 -32 12t-6 37z" />
    <glyph glyph-name="i" unicode="&#xed;" horiz-adv-x="217" 
d="M86 60v45q7 79 -33 149q-15 25 -26 61q-12 36 7 83q8 21 26 57q28 56 28 131q0 11 0.5 16.5t0 11.5t2 8.5t2.5 5t5.5 3.5t7 2t10.5 2t14 2q13 2 22 2q8 0 12 -0.5t7 -3t4.5 -6.5t3.5 -11q15 -88 -22 -156q-25 -48 -26 -49q-31 -62 2 -119q12 -21 33 -55q24 -37 26 -80
q3 -65 2 -98q-1 -28 -18.5 -42.5t-44.5 -8.5q-2 0 -7 1q-26 5 -32 12t-6 37z" />
    <glyph glyph-name="i" unicode="&#xec;" horiz-adv-x="217" 
d="M86 60v45q7 79 -33 149q-15 25 -26 61q-12 36 7 83q8 21 26 57q28 56 28 131q0 11 0.5 16.5t0 11.5t2 8.5t2.5 5t5.5 3.5t7 2t10.5 2t14 2q13 2 22 2q8 0 12 -0.5t7 -3t4.5 -6.5t3.5 -11q15 -88 -22 -156q-25 -48 -26 -49q-31 -62 2 -119q12 -21 33 -55q24 -37 26 -80
q3 -65 2 -98q-1 -28 -18.5 -42.5t-44.5 -8.5q-2 0 -7 1q-26 5 -32 12t-6 37z" />
    <glyph glyph-name="j" unicode="j" horiz-adv-x="261" 
d="M238 625v-25q-1 -34 -3.5 -55t-11.5 -49.5t-25 -50.5q-25 -36 -32 -71q-7 -40 8 -74q11 -27 22 -48q29 -56 21 -148q-2 -29 -31.5 -60t-60.5 -34q-60 -7 -78 -8q-19 -1 -23 18q-2 13 -2 29q1 23 6.5 29t27.5 10q16 3 22 5q42 14 49 53q8 48 -16 98q-17 35 -31 67
q-15 38 0.5 76.5t30.5 63.5q35 57 35 117q0 15 3 58q0 12 4 16.5t15 5.5q24 3 46 1q14 0 18.5 -5t5.5 -19z" />
    <glyph glyph-name="k" unicode="k" horiz-adv-x="452" 
d="M167 296l-6 1q-5 -27 5 -45q41 -70 31 -169q-3 -32 -8 -52q-7 -27 -37 -28q-36 0 -47 10.5t-13 46.5q-1 14 -1.5 47.5t-1.5 51.5q-2 42 -31 95q-18 34 -30 65q-13 36 2 74q12 30 18 40q45 75 49 166v7q2 26 8 32t32.5 11.5t45.5 -1.5q14 -6 19 -13.5t3 -21.5
q-1 -4 -3 -18.5t-2.5 -19.5t-2.5 -18t-3.5 -19.5t-4.5 -17.5t-5.5 -18.5t-6.5 -17t-9 -17.5q0 -1 -6 -15q15 10 15 11q72 61 131 162q13 24 36.5 27t45.5 2q20 -1 14 -20q-3 -11 -10 -23q-57 -97 -121 -153q-9 -8 -26.5 -25.5t-24.5 -23.5q-15 -14 -5 -31q21 -41 27 -48
q27 -35 60 -69q71 -72 122 -214q4 -9 4 -20q1 -33 -30 -32q-19 1 -52 8q-18 3 -27 28q-8 21 -22.5 59t-20.5 53q-30 78 -111 153z" />
    <glyph glyph-name="l" unicode="l" horiz-adv-x="344" 
d="M168 94q0 -1 1 -12q53 2 57 2q44 1 69 -2q14 -1 20 -8t7 -22q0 -26 -9.5 -36.5t-34.5 -11.5q-53 -1 -143 0q-10 1 -31 5q-19 4 -25 11.5t-6 26.5q0 30 3 57q9 66 -22 130q-7 15 -22 50q-24 60 8 122q6 11 9 16q33 52 34 125q1 43 2 76q1 18 7 24.5t23 7.5q14 1 34 -5
q18 -5 21 -25v-1v-1v-48.5t-1 -48t-7 -47t-17 -45.5q-3 -6 -21 -39q-40 -73 -4 -145q2 -3 4 -7.5t4.5 -9t4.5 -7.5q34 -62 35 -132z" />
    <glyph glyph-name="m" unicode="m" horiz-adv-x="602" 
d="M278 221l4 4q-20 27 -21 29q-32 47 4 88q27 30 62 58q80 61 96 154q2 13 8 37t7 30q3 14 14 16q67 10 82 12q8 1 21 -3q13 -3 17.5 -9.5t4.5 -19.5q-4 -60 -9 -103q-6 -46 -42 -83q-8 -7 -19.5 -18t-21.5 -21l-19 -19q-17 -18 -30 -37q-18 -28 3 -54q13 -17 31 -33
q5 -4 47 -34q60 -42 61 -117q2 -60 1 -67q-1 -21 -7.5 -26.5t-28.5 -5.5q-20 0 -47 7q-25 8 -26 35q0 6 -0.5 15t-1 15.5t-1 15t-0.5 16.5q0 61 -47 97q-2 1 -42 33q-37 29 -53 61q-2 -17 11 -32q27 -33 41 -46q58 -51 39 -126q-6 -26 -18 -69q-6 -20 -26 -17
q-4 0 -12.5 0.5t-12.5 1.5q-16 2 -22 8t-10 21q-1 5 -4.5 17t-5.5 19q-16 73 -76 123q-44 36 -58 49q-45 40 -45 88q-16 -24 -6 -51q7 -18 20 -36q14 -20 35 -42q62 -64 51 -159q-1 -3 -3 -18q-2 -17 -7.5 -22.5t-22.5 -4.5q-33 1 -53 3q-13 2 -16.5 6t-2.5 19v20v23
q4 74 -47 134q-20 23 -34 46q-37 57 1 112q14 20 38 49q37 48 39 111q0 21 3 60t4 47q1 17 18 17q31 0 55 -3q3 0 48 -9q5 -16 5 -17q19 -83 24 -105q12 -59 -26 -106q-23 -28 -32 -42q-32 -50 7 -92q5 -6 10 -11t11 -10t11 -9.5t11 -10t11 -9.5z" />
    <glyph glyph-name="n" unicode="n" horiz-adv-x="470" 
d="M256 379q-11 -42 -8 -66q51 86 55 93q21 37 24 87q1 14 13 140v5q6 30 15.5 35.5t38.5 -4.5q6 -2 17.5 -5t15.5 -5q21 -6 21 -27q0 -102 -15 -176q-6 -31 -40 -84q-18 -28 -29 -52q-18 -38 -2 -76q16 -39 28 -60q36 -65 29 -135q-2 -10 -4 -23q-2 -8 -7.5 -13t-13.5 -5
q-22 -2 -37 -1q-25 3 -34 27q-7 18 -10 28q-18 69 -71 119q-6 5 -14.5 13t-16.5 15.5t-15 13.5q-63 61 -38 140q2 6 1 13q-8 -10 -9 -10q-20 -44 -26 -59q-16 -41 8 -84q11 -19 30 -44q45 -60 25 -155q-4 -22 -28 -22q-19 1 -39 4q-15 3 -20.5 10t-6.5 23q-3 42 -6 62
q-4 31 -23 59q-2 4 -23 37q-32 51 -10 106q15 37 34 67q43 70 34 157q-4 32 -3 110q0 21 8 28.5t30 8.5q36 0 52 -10t28 -43q23 -64 46 -151q10 -37 -4 -91z" />
    <glyph glyph-name="n" unicode="&#xf1;" horiz-adv-x="470" 
d="M256 379q-11 -42 -8 -66q51 86 55 93q21 37 24 87q1 14 13 140v5q6 30 15.5 35.5t38.5 -4.5q6 -2 17.5 -5t15.5 -5q21 -6 21 -27q0 -102 -15 -176q-6 -31 -40 -84q-18 -28 -29 -52q-18 -38 -2 -76q16 -39 28 -60q36 -65 29 -135q-2 -10 -4 -23q-2 -8 -7.5 -13t-13.5 -5
q-22 -2 -37 -1q-25 3 -34 27q-7 18 -10 28q-18 69 -71 119q-6 5 -14.5 13t-16.5 15.5t-15 13.5q-63 61 -38 140q2 6 1 13q-8 -10 -9 -10q-20 -44 -26 -59q-16 -41 8 -84q11 -19 30 -44q45 -60 25 -155q-4 -22 -28 -22q-19 1 -39 4q-15 3 -20.5 10t-6.5 23q-3 42 -6 62
q-4 31 -23 59q-2 4 -23 37q-32 51 -10 106q15 37 34 67q43 70 34 157q-4 32 -3 110q0 21 8 28.5t30 8.5q36 0 52 -10t28 -43q23 -64 46 -151q10 -37 -4 -91z" />
    <glyph glyph-name="o" unicode="o" horiz-adv-x="436" 
d="M407 562q0 -2 6 -45q-1 -60 -35 -116q-5 -6 -16.5 -24t-17.5 -28q-39 -66 0 -128q3 -4 12 -17.5t13 -21.5q42 -68 -22 -124q-48 -43 -98 -39q-11 1 -20 4q-72 26 -108 74q-56 73 -86 133q-28 56 5 112q18 29 25 39q33 49 44 119q4 27 18 78q9 35 47 57q42 25 83 31
q13 2 45 -3q37 -6 67 -34.5t38 -66.5zM272 417q20 38 23 82q-1 5 -2.5 12t-2 12t-2.5 11.5t-4 11.5q-7 14 -20 16t-25 -10q-7 -8 -12 -22q-4 -11 -8 -31q-14 -68 -50 -120q-3 -5 -18 -32q-39 -67 6 -136q26 -38 52 -73q10 -12 23 -17q14 -5 23.5 2.5t7.5 21.5q-1 14 -8 31
q-3 6 -23 45q-30 56 -8 108q5 13 19 39q3 5 7.5 12t7.5 12.5t7 12t7 12.5z" />
    <glyph glyph-name="o" unicode="&#xf8;" horiz-adv-x="436" 
d="M407 562q0 -2 6 -45q-1 -60 -35 -116q-5 -6 -16.5 -24t-17.5 -28q-39 -66 0 -128q3 -4 12 -17.5t13 -21.5q42 -68 -22 -124q-48 -43 -98 -39q-11 1 -20 4q-72 26 -108 74q-56 73 -86 133q-28 56 5 112q18 29 25 39q33 49 44 119q4 27 18 78q9 35 47 57q42 25 83 31
q13 2 45 -3q37 -6 67 -34.5t38 -66.5zM272 417q20 38 23 82q-1 5 -2.5 12t-2 12t-2.5 11.5t-4 11.5q-7 14 -20 16t-25 -10q-7 -8 -12 -22q-4 -11 -8 -31q-14 -68 -50 -120q-3 -5 -18 -32q-39 -67 6 -136q26 -38 52 -73q10 -12 23 -17q14 -5 23.5 2.5t7.5 21.5q-1 14 -8 31
q-3 6 -23 45q-30 56 -8 108q5 13 19 39q3 5 7.5 12t7.5 12.5t7 12t7 12.5z" />
    <glyph glyph-name="o" unicode="&#xf6;" horiz-adv-x="436" 
d="M407 562q0 -2 6 -45q-1 -60 -35 -116q-5 -6 -16.5 -24t-17.5 -28q-39 -66 0 -128q3 -4 12 -17.5t13 -21.5q42 -68 -22 -124q-48 -43 -98 -39q-11 1 -20 4q-72 26 -108 74q-56 73 -86 133q-28 56 5 112q18 29 25 39q33 49 44 119q4 27 18 78q9 35 47 57q42 25 83 31
q13 2 45 -3q37 -6 67 -34.5t38 -66.5zM272 417q20 38 23 82q-1 5 -2.5 12t-2 12t-2.5 11.5t-4 11.5q-7 14 -20 16t-25 -10q-7 -8 -12 -22q-4 -11 -8 -31q-14 -68 -50 -120q-3 -5 -18 -32q-39 -67 6 -136q26 -38 52 -73q10 -12 23 -17q14 -5 23.5 2.5t7.5 21.5q-1 14 -8 31
q-3 6 -23 45q-30 56 -8 108q5 13 19 39q3 5 7.5 12t7.5 12.5t7 12t7 12.5z" />
    <glyph glyph-name="o" unicode="&#xf5;" horiz-adv-x="436" 
d="M407 562q0 -2 6 -45q-1 -60 -35 -116q-5 -6 -16.5 -24t-17.5 -28q-39 -66 0 -128q3 -4 12 -17.5t13 -21.5q42 -68 -22 -124q-48 -43 -98 -39q-11 1 -20 4q-72 26 -108 74q-56 73 -86 133q-28 56 5 112q18 29 25 39q33 49 44 119q4 27 18 78q9 35 47 57q42 25 83 31
q13 2 45 -3q37 -6 67 -34.5t38 -66.5zM272 417q20 38 23 82q-1 5 -2.5 12t-2 12t-2.5 11.5t-4 11.5q-7 14 -20 16t-25 -10q-7 -8 -12 -22q-4 -11 -8 -31q-14 -68 -50 -120q-3 -5 -18 -32q-39 -67 6 -136q26 -38 52 -73q10 -12 23 -17q14 -5 23.5 2.5t7.5 21.5q-1 14 -8 31
q-3 6 -23 45q-30 56 -8 108q5 13 19 39q3 5 7.5 12t7.5 12.5t7 12t7 12.5z" />
    <glyph glyph-name="o" unicode="&#xf4;" horiz-adv-x="436" 
d="M407 562q0 -2 6 -45q-1 -60 -35 -116q-5 -6 -16.5 -24t-17.5 -28q-39 -66 0 -128q3 -4 12 -17.5t13 -21.5q42 -68 -22 -124q-48 -43 -98 -39q-11 1 -20 4q-72 26 -108 74q-56 73 -86 133q-28 56 5 112q18 29 25 39q33 49 44 119q4 27 18 78q9 35 47 57q42 25 83 31
q13 2 45 -3q37 -6 67 -34.5t38 -66.5zM272 417q20 38 23 82q-1 5 -2.5 12t-2 12t-2.5 11.5t-4 11.5q-7 14 -20 16t-25 -10q-7 -8 -12 -22q-4 -11 -8 -31q-14 -68 -50 -120q-3 -5 -18 -32q-39 -67 6 -136q26 -38 52 -73q10 -12 23 -17q14 -5 23.5 2.5t7.5 21.5q-1 14 -8 31
q-3 6 -23 45q-30 56 -8 108q5 13 19 39q3 5 7.5 12t7.5 12.5t7 12t7 12.5z" />
    <glyph glyph-name="o" unicode="&#xf3;" horiz-adv-x="436" 
d="M407 562q0 -2 6 -45q-1 -60 -35 -116q-5 -6 -16.5 -24t-17.5 -28q-39 -66 0 -128q3 -4 12 -17.5t13 -21.5q42 -68 -22 -124q-48 -43 -98 -39q-11 1 -20 4q-72 26 -108 74q-56 73 -86 133q-28 56 5 112q18 29 25 39q33 49 44 119q4 27 18 78q9 35 47 57q42 25 83 31
q13 2 45 -3q37 -6 67 -34.5t38 -66.5zM272 417q20 38 23 82q-1 5 -2.5 12t-2 12t-2.5 11.5t-4 11.5q-7 14 -20 16t-25 -10q-7 -8 -12 -22q-4 -11 -8 -31q-14 -68 -50 -120q-3 -5 -18 -32q-39 -67 6 -136q26 -38 52 -73q10 -12 23 -17q14 -5 23.5 2.5t7.5 21.5q-1 14 -8 31
q-3 6 -23 45q-30 56 -8 108q5 13 19 39q3 5 7.5 12t7.5 12.5t7 12t7 12.5z" />
    <glyph glyph-name="o" unicode="&#xf2;" horiz-adv-x="436" 
d="M407 562q0 -2 6 -45q-1 -60 -35 -116q-5 -6 -16.5 -24t-17.5 -28q-39 -66 0 -128q3 -4 12 -17.5t13 -21.5q42 -68 -22 -124q-48 -43 -98 -39q-11 1 -20 4q-72 26 -108 74q-56 73 -86 133q-28 56 5 112q18 29 25 39q33 49 44 119q4 27 18 78q9 35 47 57q42 25 83 31
q13 2 45 -3q37 -6 67 -34.5t38 -66.5zM272 417q20 38 23 82q-1 5 -2.5 12t-2 12t-2.5 11.5t-4 11.5q-7 14 -20 16t-25 -10q-7 -8 -12 -22q-4 -11 -8 -31q-14 -68 -50 -120q-3 -5 -18 -32q-39 -67 6 -136q26 -38 52 -73q10 -12 23 -17q14 -5 23.5 2.5t7.5 21.5q-1 14 -8 31
q-3 6 -23 45q-30 56 -8 108q5 13 19 39q3 5 7.5 12t7.5 12.5t7 12t7 12.5z" />
    <glyph glyph-name="p" unicode="p" horiz-adv-x="437" 
d="M141 253l-2 -2l-2 -2q28 -44 30 -46q54 -67 33 -179q-3 -15 -9 -19.5t-21 -3.5q-14 1 -55 3q-11 1 -13.5 4t-2.5 14q3 41 3 62q0 56 -31 103q-22 35 -31 48q-34 54 -5 116q9 20 20 37q45 70 46 147q0 39 5 112q1 18 5 21.5t23 4.5q61 6 133 -4q32 -4 67 -24
q52 -29 70.5 -80.5t3.5 -104.5q-7 -24 -33 -58q-10 -13 -25.5 -30t-29.5 -34t-24 -31q-47 -66 -137 -56q-4 0 -10.5 1t-7.5 1zM272 563q-4 1 -66 10q-2 -47 -2 -49q1 -68 -37 -124q-1 -1 -19 -31q59 -13 98 15q61 45 70 115q7 52 -44 64z" />
    <glyph glyph-name="q" unicode="q" horiz-adv-x="444" 
d="M371 96q0 -1 -6 -22q34 -13 36 -14q15 -5 18.5 -11t0.5 -21q-4 -16 -10 -31q-5 -13 -12.5 -17t-21.5 -2q-38 7 -54 34q-41 -11 -43 -11q-47 -7 -104 26.5t-74 74.5q-10 26 -64 140q-31 67 3 126q2 2 4 6l3.5 7t3.5 6.5t4 6.5q33 48 48 121q13 68 37 100q51 68 136 59
q82 -9 109 -92q10 -32 15 -62q7 -43 -15 -87q-16 -32 -27 -51q-35 -63 -7 -135q11 -28 14 -36q23 -57 6 -115zM274 413q19 41 20 85q-1 16 -2 17q-4 25 -13 34t-34 13q-18 2 -25 -12q-9 -18 -12 -29q-14 -64 -57 -132q-9 -15 -23 -45q-28 -60 10 -113q10 -14 20 -29
t22.5 -34t18.5 -29q7 -10 11 -15q14 -15 27 -12.5t20 21.5q11 32 4 61q-4 14 -14 47q-19 65 5 121q12 29 22 51z" />
    <glyph glyph-name="r" unicode="r" horiz-adv-x="427" 
d="M356 407q-6 -7 -88 -115q25 -37 27 -40q5 -6 18.5 -21.5t19.5 -24.5q34 -48 40 -67q13 -38 30 -117q3 -19 -2.5 -24.5t-24.5 -4.5q-8 0 -22.5 1.5t-21.5 1.5q-21 1 -26 24q-14 71 -14 77q-8 49 -36 88q-4 5 -57 77q-7 1 -26 2.5t-31 1.5q10 -28 10 -29q2 -5 4.5 -10.5
t4 -10t4 -9.5t4 -10t3.5 -10l4 -10q19 -64 0 -145q-1 -4 -4 -11t-3 -9q-6 -15 -26 -15q-11 0 -34 5.5t-37 12.5v84q2 63 -24 121q-7 15 -17 42q-20 58 4 117q8 21 12 28q34 65 33 153q0 15 2.5 44t2.5 36q1 19 21 24q110 27 211 -16q38 -16 59 -59q48 -98 -20 -182zM191 575
q3 -84 -50 -205q29 2 41.5 3.5t31.5 9.5t31 23q45 54 42 124q-1 31 -33 42q-22 7 -63 3z" />
    <glyph glyph-name="s" unicode="s" horiz-adv-x="373" 
d="M38 185q2 0 37 -2h6t9 0.5t10 0.5q17 1 24 -15q8 -18 26 -43.5t54 -25.5q19 -1 34.5 21t10.5 43q-5 19 -17 34q-17 20 -40 38q-13 9 -36.5 25t-30.5 21q-28 20 -48 35q-57 45 -49 120q2 15 11 105q4 39 29 66t40 38q41 32 89 33.5t89 -24.5q14 -8 29 -25q26 -32 35 -87
q4 -27 -23 -30q-4 -1 -62 -6q-16 -2 -21 16q-6 23 -13 34q-8 15 -21 24q-14 9 -27.5 5.5t-21.5 -17.5q-6 -10 -8 -19q-7 -37 -18 -102q-3 -13 8 -34q28 -61 105 -133q10 -9 29.5 -26.5t26.5 -23.5q62 -56 28 -129q-13 -28 -18 -37q-26 -42 -67.5 -58.5t-89.5 -2.5
q-76 22 -113 98q-7 15 -21 65q-3 10 0.5 14t14.5 4z" />
    <glyph glyph-name="s" unicode="&#xdf;" horiz-adv-x="373" 
d="M38 185q2 0 37 -2h6t9 0.5t10 0.5q17 1 24 -15q8 -18 26 -43.5t54 -25.5q19 -1 34.5 21t10.5 43q-5 19 -17 34q-17 20 -40 38q-13 9 -36.5 25t-30.5 21q-28 20 -48 35q-57 45 -49 120q2 15 11 105q4 39 29 66t40 38q41 32 89 33.5t89 -24.5q14 -8 29 -25q26 -32 35 -87
q4 -27 -23 -30q-4 -1 -62 -6q-16 -2 -21 16q-6 23 -13 34q-8 15 -21 24q-14 9 -27.5 5.5t-21.5 -17.5q-6 -10 -8 -19q-7 -37 -18 -102q-3 -13 8 -34q28 -61 105 -133q10 -9 29.5 -26.5t26.5 -23.5q62 -56 28 -129q-13 -28 -18 -37q-26 -42 -67.5 -58.5t-89.5 -2.5
q-76 22 -113 98q-7 15 -21 65q-3 10 0.5 14t14.5 4z" />
    <glyph glyph-name="t" unicode="t" horiz-adv-x="374" 
d="M141 546l-2 12q-75 5 -82 6q-20 1 -26.5 7t-8.5 25q-1 21 3 55q3 22 28 23h25q154 -6 186 -8q36 -2 64 -8q14 -3 19 -10t5 -23q0 -27 -2 -36q-3 -19 -10 -25.5t-26 -8.5q-6 -1 -13.5 -1h-13.5t-14 -0.5t-14 -0.5q-1 0 -19 -1l-2 -21q-4 -52 -36 -91q-35 -41 -36 -42
q-15 -19 -23 -34q-18 -35 -1 -69q9 -18 28 -42q6 -7 17.5 -20t15.5 -18q39 -46 38 -106q0 -7 0.5 -38t-0.5 -38q0 -19 -7.5 -26t-27.5 -6q-13 0 -43 5q-13 2 -15 15q0 3 -1 13.5t-1 16.5q-1 8 -1 19.5v22.5t-1 20q-2 53 -29 90q-5 7 -15.5 20t-12.5 17q-29 37 -32 42
q-34 55 5 105q7 9 40 49q43 53 41 110z" />
    <glyph glyph-name="u" unicode="u" horiz-adv-x="472" 
d="M139 660q42 5 74 -1q3 -63 3 -67q1 -52 0 -81q-2 -49 -39 -91q-25 -28 -36 -43q-22 -31 -22.5 -56t21.5 -57q13 -19 37.5 -54t30.5 -44q3 -4 8 -11.5t7 -11.5q17 -23 43 -30q20 -6 34 4t15 31q2 28 -16 57q-6 10 -18 29.5t-18 28.5q-32 53 5 104q13 18 33 41
q42 50 42 119q0 15 5 124l2 13q18 3 52 3t44 1q3 -14 3.5 -27t-1 -32.5t-1.5 -24.5q0 -11 -1.5 -30.5t-2.5 -27.5q-3 -66 -45 -118q-27 -32 -34 -43q-21 -31 -21.5 -52t21.5 -58q6 -9 13.5 -19t16.5 -21.5t14 -18.5q21 -28 22 -55q2 -64 -44 -99q-73 -56 -154 -27
q-48 17 -74 64q-12 22 -31 64q-24 55 -65 103q-13 15 -24 31q-32 47 -1 95q19 29 31 43q51 58 46 135q-2 15 3 84q2 24 22 26z" />
    <glyph glyph-name="u" unicode="&#xfc;" horiz-adv-x="472" 
d="M139 660q42 5 74 -1q3 -63 3 -67q1 -52 0 -81q-2 -49 -39 -91q-25 -28 -36 -43q-22 -31 -22.5 -56t21.5 -57q13 -19 37.5 -54t30.5 -44q3 -4 8 -11.5t7 -11.5q17 -23 43 -30q20 -6 34 4t15 31q2 28 -16 57q-6 10 -18 29.5t-18 28.5q-32 53 5 104q13 18 33 41
q42 50 42 119q0 15 5 124l2 13q18 3 52 3t44 1q3 -14 3.5 -27t-1 -32.5t-1.5 -24.5q0 -11 -1.5 -30.5t-2.5 -27.5q-3 -66 -45 -118q-27 -32 -34 -43q-21 -31 -21.5 -52t21.5 -58q6 -9 13.5 -19t16.5 -21.5t14 -18.5q21 -28 22 -55q2 -64 -44 -99q-73 -56 -154 -27
q-48 17 -74 64q-12 22 -31 64q-24 55 -65 103q-13 15 -24 31q-32 47 -1 95q19 29 31 43q51 58 46 135q-2 15 3 84q2 24 22 26z" />
    <glyph glyph-name="u" unicode="&#xfb;" horiz-adv-x="472" 
d="M139 660q42 5 74 -1q3 -63 3 -67q1 -52 0 -81q-2 -49 -39 -91q-25 -28 -36 -43q-22 -31 -22.5 -56t21.5 -57q13 -19 37.5 -54t30.5 -44q3 -4 8 -11.5t7 -11.5q17 -23 43 -30q20 -6 34 4t15 31q2 28 -16 57q-6 10 -18 29.5t-18 28.5q-32 53 5 104q13 18 33 41
q42 50 42 119q0 15 5 124l2 13q18 3 52 3t44 1q3 -14 3.5 -27t-1 -32.5t-1.5 -24.5q0 -11 -1.5 -30.5t-2.5 -27.5q-3 -66 -45 -118q-27 -32 -34 -43q-21 -31 -21.5 -52t21.5 -58q6 -9 13.5 -19t16.5 -21.5t14 -18.5q21 -28 22 -55q2 -64 -44 -99q-73 -56 -154 -27
q-48 17 -74 64q-12 22 -31 64q-24 55 -65 103q-13 15 -24 31q-32 47 -1 95q19 29 31 43q51 58 46 135q-2 15 3 84q2 24 22 26z" />
    <glyph glyph-name="u" unicode="&#xfa;" horiz-adv-x="472" 
d="M139 660q42 5 74 -1q3 -63 3 -67q1 -52 0 -81q-2 -49 -39 -91q-25 -28 -36 -43q-22 -31 -22.5 -56t21.5 -57q13 -19 37.5 -54t30.5 -44q3 -4 8 -11.5t7 -11.5q17 -23 43 -30q20 -6 34 4t15 31q2 28 -16 57q-6 10 -18 29.5t-18 28.5q-32 53 5 104q13 18 33 41
q42 50 42 119q0 15 5 124l2 13q18 3 52 3t44 1q3 -14 3.5 -27t-1 -32.5t-1.5 -24.5q0 -11 -1.5 -30.5t-2.5 -27.5q-3 -66 -45 -118q-27 -32 -34 -43q-21 -31 -21.5 -52t21.5 -58q6 -9 13.5 -19t16.5 -21.5t14 -18.5q21 -28 22 -55q2 -64 -44 -99q-73 -56 -154 -27
q-48 17 -74 64q-12 22 -31 64q-24 55 -65 103q-13 15 -24 31q-32 47 -1 95q19 29 31 43q51 58 46 135q-2 15 3 84q2 24 22 26z" />
    <glyph glyph-name="u" unicode="&#xf9;" horiz-adv-x="472" 
d="M139 660q42 5 74 -1q3 -63 3 -67q1 -52 0 -81q-2 -49 -39 -91q-25 -28 -36 -43q-22 -31 -22.5 -56t21.5 -57q13 -19 37.5 -54t30.5 -44q3 -4 8 -11.5t7 -11.5q17 -23 43 -30q20 -6 34 4t15 31q2 28 -16 57q-6 10 -18 29.5t-18 28.5q-32 53 5 104q13 18 33 41
q42 50 42 119q0 15 5 124l2 13q18 3 52 3t44 1q3 -14 3.5 -27t-1 -32.5t-1.5 -24.5q0 -11 -1.5 -30.5t-2.5 -27.5q-3 -66 -45 -118q-27 -32 -34 -43q-21 -31 -21.5 -52t21.5 -58q6 -9 13.5 -19t16.5 -21.5t14 -18.5q21 -28 22 -55q2 -64 -44 -99q-73 -56 -154 -27
q-48 17 -74 64q-12 22 -31 64q-24 55 -65 103q-13 15 -24 31q-32 47 -1 95q19 29 31 43q51 58 46 135q-2 15 3 84q2 24 22 26z" />
    <glyph glyph-name="v" unicode="v" horiz-adv-x="467" 
d="M81 632q-1 1 4 33q49 -6 90 -11q6 -27 6 -28q1 -16 4.5 -55.5t5.5 -61.5q8 -65 -32 -114q-13 -17 -25 -38q-22 -41 3 -81q15 -22 54 -59l4 2q-8 21 -8 22q-31 61 17 114q22 24 39 39q64 54 72 144q2 19 17 104q0 1 7 24q80 -2 88 -3q10 0 13.5 -4t3.5 -14q1 -21 -1 -37
q-4 -22 -15 -93q-10 -58 -55 -104l-13 -13l-13 -13l-13 -13l-13 -13q-36 -37 -38 -65.5t27 -70.5q9 -12 12 -17q45 -53 27 -125q-5 -21 -10 -52q-3 -13 -7.5 -17.5t-18.5 -4.5q-11 0 -116 2q-7 22 -7 24q-2 6 -8.5 28.5t-9.5 35.5q-17 55 -60 96l-13 13t-15 14.5t-13 12.5
q-16 16 -27 29q-40 51 -7 107q11 20 14 24q48 60 36 152q-4 28 -6 87z" />
    <glyph glyph-name="w" unicode="w" horiz-adv-x="591" 
d="M266 243q-17 27 -21 63q-15 -27 -2 -62q10 -27 24 -57q13 -25 15.5 -55t-2 -53t-13.5 -55q-3 -10 -17 -13q-7 -2 -14 -2.5t-14.5 -0.5t-14 0.5t-14 1.5t-13.5 1q-11 0 -14 16q-1 7 -5.5 27t-6.5 31q-11 52 -52 99q-46 52 -48 55q-14 18 -24 37q-17 37 2 73q11 20 18 30
q39 53 31 121q-1 3 -20 143q0 1 -1 16q24 3 25 3q11 0 34 -0.5t35 -0.5q17 0 20 -15q6 -32 7 -45t2.5 -29.5t2 -29.5t2 -29t2.5 -29q4 -50 -12 -83q0 -1 -4 -16q39 39 52 88q2 10 19 92l12 61q0 3 14 42h78q2 -7 8.5 -32t9.5 -38q3 -11 8.5 -31.5t10 -37t8.5 -31.5
q14 -53 2 -108q9 13 10 14q26 43 34 94q7 43 21 146q1 15 6 19.5t21 5.5h9.5t10.5 0.5t10 0.5t10.5 0.5t9.5 0.5q15 0 22 -5.5t8 -20.5q1 -12 -1 -26q-3 -25 -9.5 -72t-8.5 -64q-6 -49 -36 -96q-20 -31 -35 -57q-27 -48 -15 -109q2 -10 12 -52q15 -61 -7 -133
q-7 -21 -26 -23q-55 -3 -59 -3q-4 1 -8.5 5t-5.5 8q-9 26 -14 51q-13 67 -55 120q-16 20 -34 49z" />
    <glyph glyph-name="x" unicode="x" horiz-adv-x="427" 
d="M31 647q0 1 -5 20l15 3q3 0 33.5 -1t33.5 0q24 1 33 -22q4 -9 10 -28q4 -15 18 -59t22 -68q0 -1 8 -21l8 16q52 127 68 169q5 11 17 11q9 -1 37 -1.5t44 -1.5q21 -2 14 -22q-3 -9 -11 -27q-7 -16 -24.5 -52.5t-26.5 -56.5q-35 -76 -89 -135q-18 -20 -12 -46
q12 -47 35 -77q35 -43 59 -68q55 -58 83 -144q6 -17 0.5 -24.5t-23.5 -6.5l-42 3t-42 2q-16 1 -21 15q-11 27 -12 30q-23 73 -75 133q-20 23 -30 30q2 -23 2 -24q12 -83 -21 -162q-8 -19 -13.5 -22.5t-25.5 -2.5q-6 0 -76 3q3 22 3 23q1 5 12 32q27 66 23 124q-4 75 41 135
q7 9 8 26q6 75 -26 152q-7 15 -52 145z" />
    <glyph glyph-name="y" unicode="y" horiz-adv-x="399" 
d="M194 485q0 -1 5 -11q11 19 24.5 55.5t15.5 41.5q2 6 39 96q71 5 78 5q12 0 17 -5.5t3 -17.5q0 -5 -3 -11q-50 -128 -57 -145q-20 -46 -62 -91q-6 -7 -19.5 -22t-20.5 -23q-35 -36 -18 -94q9 -28 21 -51q42 -77 35 -187q0 -17 -7 -22.5t-25 -3.5q-9 1 -26 2t-22 1
q-21 1 -27 8t-6 27q0 5 1 30q6 74 -23 134q-31 62 -32 98q-2 82 0 103q5 65 -17 124q-6 15 -12.5 32t-14.5 37t-12 32q-4 11 -5 15q-3 12 0 17t15 6q8 1 17.5 2t20 2t17.5 2q28 3 39 -21q28 -60 32 -71q1 -3 29 -94z" />
    <glyph glyph-name="y" unicode="&#xff;" horiz-adv-x="399" 
d="M194 485q0 -1 5 -11q11 19 24.5 55.5t15.5 41.5q2 6 39 96q71 5 78 5q12 0 17 -5.5t3 -17.5q0 -5 -3 -11q-50 -128 -57 -145q-20 -46 -62 -91q-6 -7 -19.5 -22t-20.5 -23q-35 -36 -18 -94q9 -28 21 -51q42 -77 35 -187q0 -17 -7 -22.5t-25 -3.5q-9 1 -26 2t-22 1
q-21 1 -27 8t-6 27q0 5 1 30q6 74 -23 134q-31 62 -32 98q-2 82 0 103q5 65 -17 124q-6 15 -12.5 32t-14.5 37t-12 32q-4 11 -5 15q-3 12 0 17t15 6q8 1 17.5 2t20 2t17.5 2q28 3 39 -21q28 -60 32 -71q1 -3 29 -94z" />
    <glyph glyph-name="y" unicode="&#xfd;" horiz-adv-x="399" 
d="M194 485q0 -1 5 -11q11 19 24.5 55.5t15.5 41.5q2 6 39 96q71 5 78 5q12 0 17 -5.5t3 -17.5q0 -5 -3 -11q-50 -128 -57 -145q-20 -46 -62 -91q-6 -7 -19.5 -22t-20.5 -23q-35 -36 -18 -94q9 -28 21 -51q42 -77 35 -187q0 -17 -7 -22.5t-25 -3.5q-9 1 -26 2t-22 1
q-21 1 -27 8t-6 27q0 5 1 30q6 74 -23 134q-31 62 -32 98q-2 82 0 103q5 65 -17 124q-6 15 -12.5 32t-14.5 37t-12 32q-4 11 -5 15q-3 12 0 17t15 6q8 1 17.5 2t20 2t17.5 2q28 3 39 -21q28 -60 32 -71q1 -3 29 -94z" />
    <glyph glyph-name="z" unicode="z" horiz-adv-x="336" 
d="M206 546l6 16q-14 2 -15 2q-105 -1 -138 -1q-22 -1 -28.5 5.5t-8.5 27.5q-1 24 1 53q1 15 5 19t20 5h10h9q93 4 209 8q2 0 6.5 0.5t7.5 0.5q12 -1 16 -4.5t5 -16.5v-50q0 -1 -0.5 -13t0.5 -12q7 -43 -24 -92q-2 -3 -42 -62q-43 -63 -47 -69q-36 -57 -36 -122
q-1 -54 -20 -108l-4 -15h94q4 0 27.5 1t27.5 0q8 0 12.5 -1.5t7 -4.5t4 -7.5t1.5 -11.5q1 -25 2 -51q0 -16 -3.5 -20t-19.5 -6q-38 -6 -60 -6q-36 1 -177 3q-7 1 -16 3q-16 3 -15 19v25.5t1 29.5t3.5 24t6.5 27q16 41 12 86q-7 76 42 142q30 40 49 64q35 43 69 112z" />
    <glyph glyph-name="verticalbar" unicode="|" horiz-adv-x="160" 
d="M126 766l11 -4q-3 -59 -3 -62q-2 -60 -7 -216q-6 -193 -7 -220q-2 -84 -1 -138q1 -28 -11 -40.5t-40 -11.5q-24 0 -32.5 8t-10.5 31q-1 16 -2 119q-1 57 -1 72q1 19 2 46.5t2.5 53t1.5 46.5v84.5v84.5q1 19 6 124q1 17 12 18q25 2 80 5z" />
    <glyph glyph-name="nonbreakingspace" unicode="&#xa0;" horiz-adv-x="247" 
 />
    <glyph glyph-name="softhyphen" unicode="&#xad;" horiz-adv-x="0" 
 />
    <glyph glyph-name="divide" unicode="&#xf7;" horiz-adv-x="300" 
d="M153 166q20 2 32.5 -9t15.5 -31q4 -40 -35 -66h-34l-7 5q-33 22 -23 56q5 19 19.5 31.5t31.5 13.5zM247 327q16 -1 23 -8t8 -24q3 -59 -57 -66q-94 -10 -118 -13q-16 -1 -53 1q-18 1 -21 14q-7 32 -7 43q0 18 8 26.5t26 13.5q13 3 24 4q23 1 131 10q34 0 36 -1zM146 369
q-11 0 -21 5.5t-16 15.5t-6 22q1 19 15 33.5t33 14t32.5 -14t13.5 -29.5q-1 -18 -17 -32.5t-34 -14.5z" />
  </font>
</defs>
</svg>
