<?xml version="1.0" standalone="no"?>
<!DOCTYPE svg PUBLIC "-//W3C//DTD SVG 1.1//EN" "http://www.w3.org/Graphics/SVG/1.1/DTD/svg11.dtd" >
<svg xmlns="http://www.w3.org/2000/svg" xmlns:xlink="http://www.w3.org/1999/xlink" version="1.1">
<metadata>
Created by FontForge 20170731 at Mon Nov 26 17:21:23 2018
 By Aleksey,,,
</metadata>
<defs>
<font id="CaliforniaSunshineRegular" horiz-adv-x="0" >
  <font-face 
    font-family="California Sunshine"
    font-weight="400"
    font-stretch="normal"
    units-per-em="1000"
    panose-1="0 0 0 0 0 0 0 0 0 0"
    ascent="800"
    descent="-200"
    x-height="666"
    cap-height="674"
    bbox="21.5429 -195.533 708.237 838.174"
    underline-thickness="50"
    underline-position="-200"
    unicode-range="U+000A-00F7"
  />
<missing-glyph horiz-adv-x="527" 
d="M50 700h427v-700h-427v700zM78 680l185 -309l186 309h-371zM251 350l-180 300v-601zM264 329l-185 -308h370zM276 350l181 -303v605z" />
    <glyph glyph-name=".notdef" horiz-adv-x="527" 
d="M50 700h427v-700h-427v700zM78 680l185 -309l186 309h-371zM251 350l-180 300v-601zM264 329l-185 -308h370zM276 350l181 -303v605z" />
    <glyph glyph-name=".null" 
 />
    <glyph glyph-name=".null" 
 />
    <glyph glyph-name="nonmarkingreturn" horiz-adv-x="333" 
 />
    <glyph glyph-name="controlLF" unicode="&#xa;" 
 />
    <glyph glyph-name="controlCR" unicode="&#xd;" 
 />
    <glyph glyph-name="space" unicode=" " horiz-adv-x="236" 
 />
    <glyph glyph-name="exclam" unicode="!" horiz-adv-x="193" 
d="M155 385q20 -89 15 -142q-3 -23 -10 -30.5t-30 -10.5q-16 -2 -36 -3q-16 -1 -20.5 3.5t-6.5 21.5q-12 102 -18 124q-18 77 -26 231q-2 50 0 116q0 17 4 20.5t22 5.5q51 4 65 5q18 0 24.5 -6t7.5 -24v-68h1q-6 -132 -5 -145q0 -43 13 -98zM132 145q18 -3 16 -21
q-3 -37 -8 -67q-3 -16 -21 -17h-17q-10 1 -17 1.5t-12.5 2.5t-9 2.5t-6.5 4.5t-4.5 4.5t-2.5 7t-1 8t-0.5 10t-0.5 11.5q0 2 -0.5 4t-0.5 4.5t-1 3.5q-2 25 5.5 34.5t32.5 11.5q13 1 48 -5z" />
    <glyph glyph-name="quotedbl" unicode="&#x22;" horiz-adv-x="329" 
d="M142 788q1 -7 7 -84h-1h-1v-71q-1 -27 -27 -31q-30 -4 -51 -5q-27 0 -32 27q-19 96 -14 149q2 19 9.5 27t26.5 11q28 5 50 5q16 0 23.5 -6t9.5 -22zM297 789q1 -9 10 -97q-5 -55 -5 -60q-2 -21 -22 -22q-21 0 -36 4q-28 6 -30 33q0 6 -5 62.5t-7 85.5q0 10 1.5 14.5
t6 6.5t14.5 4q19 2 37 1q17 -1 25 -8t11 -24z" />
    <glyph glyph-name="quotedbl" unicode="&#x201d;" horiz-adv-x="329" 
d="M142 788q1 -7 7 -84h-1h-1v-71q-1 -27 -27 -31q-30 -4 -51 -5q-27 0 -32 27q-19 96 -14 149q2 19 9.5 27t26.5 11q28 5 50 5q16 0 23.5 -6t9.5 -22zM297 789q1 -9 10 -97q-5 -55 -5 -60q-2 -21 -22 -22q-21 0 -36 4q-28 6 -30 33q0 6 -5 62.5t-7 85.5q0 10 1.5 14.5
t6 6.5t14.5 4q19 2 37 1q17 -1 25 -8t11 -24z" />
    <glyph glyph-name="quotedbl" unicode="&#x201c;" horiz-adv-x="329" 
d="M142 788q1 -7 7 -84h-1h-1v-71q-1 -27 -27 -31q-30 -4 -51 -5q-27 0 -32 27q-19 96 -14 149q2 19 9.5 27t26.5 11q28 5 50 5q16 0 23.5 -6t9.5 -22zM297 789q1 -9 10 -97q-5 -55 -5 -60q-2 -21 -22 -22q-21 0 -36 4q-28 6 -30 33q0 6 -5 62.5t-7 85.5q0 10 1.5 14.5
t6 6.5t14.5 4q19 2 37 1q17 -1 25 -8t11 -24z" />
    <glyph glyph-name="numbersign" unicode="#" horiz-adv-x="592" 
d="M529 532q23 -2 34.5 -21t2.5 -40q-4 -13 -21 -12h-68q11 -81 -4 -129q3 0 12 -1t13 -2q27 -2 29 -2q29 -2 33 -13.5t-8 -33.5q-6 -14 -26 -41q-17 -22 -52 -23h-53q-26 -73 -29 -79q-11 -32 -27 -70q-18 -44 -74 -20q-16 7 -13 33q6 71 25 126l3 11q-17 3 -58 0
q-29 -2 -35 -7t-15 -32q-4 -15 -12 -43t-10 -36q-7 -21 -11 -32q-9 -22 -29.5 -27.5t-39.5 8.5q-12 9 -8 26q6 32 23 119q0 1 5 18q-56 6 -60 7q-28 3 -32.5 12t7.5 33q20 43 20 44q6 15 21 17q24 3 58 6h23q4 14 5.5 31t2 28t-0.5 32t-1 30h-47q-44 0 -51.5 9t0.5 52
q1 1 7 31h100q5 20 19 82.5t21 97.5q30 8 31 8q26 5 38 -6.5t8 -38.5q-2 -8 -4 -19t-4 -20t-4 -20t-4 -19q0 -4 -10 -66h99q18 90 21 99q5 22 20 68q3 10 10 11q30 6 46 5q38 -1 34 -39q0 -7 -11 -99q-1 -7 -1.5 -14.5t-2 -17.5t-1.5 -17q53 -3 56 -4zM348 332q16 67 5 129
q-14 -1 -30 -1.5t-35.5 -1t-30.5 -1.5v-125h91z" />
    <glyph glyph-name="dollar" unicode="$" horiz-adv-x="409" 
d="M347 367q48 -45 38 -111q-9 -52 -15 -81q-11 -56 -56 -106q-20 -22 -52 -33q-2 -1 -29 -10q-1 -5 -1 -11.5t0.5 -12.5t-2 -11.5t-8.5 -8.5q-9 -5 -37 -5q-23 0 -29.5 8.5t-8.5 41.5l-4 3q-55 5 -90 59q-32 52 -31 100q1 23 19 28q44 13 65 17q14 2 19 -3t8 -20
q7 -44 12 -57q11 -29 32.5 -34.5t45.5 15.5q14 12 26 35q12 24 13 61q0 46 -37 76q-95 75 -149 152q-23 32 -35 61q-33 80 28 158q27 35 79 56q8 38 16 47.5t33 7.5q16 -1 23 -5.5t10 -13.5t4 -30q63 -51 67 -55q39 -33 48 -85q3 -18 -2 -25.5t-23 -9.5q-28 -3 -51 -3
q-12 0 -15 2.5t-6 16.5q-5 22 -24.5 39t-42.5 19q-33 4 -45 -25q-18 -44 7 -76q29 -37 59 -62q9 -7 20.5 -15.5t21 -15t21.5 -15t21 -15.5q30 -23 57 -48z" />
    <glyph glyph-name="percent" unicode="%" horiz-adv-x="518" 
d="M418 594q-25 -49 -29 -100q-6 -88 -64 -153q-26 -30 -33 -36q-62 -67 -100 -149q-9 -21 -50 -102q-6 -12 -13 -21q-27 -35 -63 -7q-16 12 -8 32q7 15 28 59q50 106 117 178q13 15 44 58q42 59 45 132q3 62 36 125q3 5 6.5 12t7.5 14t7 12q41 77 53 101q16 32 44 12
q25 -19 25 -50q-15 -40 -16 -43zM115 439q-80 61 -90 138q-1 2 -1 43l-1 0.5l-1 0.5q8 66 9 71q8 37 39 58q21 14 43 7q66 -23 77 -91q2 -13 6 -63q1 -25 6 -101q3 -38 -14 -57q-21 -23 -46 -16q-21 6 -27 10zM91 668q-7 -84 4 -123q7 -26 28 -38q5 18 5 19q-2 77 -5 126
q-1 9 -9 27q-4 8 -11 7q-3 0 -10 -9q-2 -3 -2 -9zM495 297q1 -10 1 -31q-1 -11 -4 -80q0 -1 2 -1q-5 -104 -5 -114q-1 -38 -39 -64q-25 -17 -56.5 -6t-40.5 42q-26 90 -10 158q15 62 70 102q24 17 57 15q12 0 17.5 -4.5t7.5 -16.5zM421 75q27 67 14 149q-15 -8 -19 -12
t-5 -15q-4 -44 -5 -89q0 -1 6 -32z" />
    <glyph glyph-name="ampersand" unicode="&#x26;" horiz-adv-x="489" 
d="M453 294q-10 -15 -38 -56q-5 -6 -50 -69q7 -5 18 -13.5t21 -16t19 -14.5q3 -51 -5 -80q-9 -35 -39 -16q-10 7 -29 26q-2 3 -38 41q-17 -16 -18 -17q-62 -50 -124 -47q-95 3 -132 92q-24 50 -13 98.5t61 99.5q3 3 62 61q-15 23 -16 25q-8 11 -25.5 36.5t-26.5 39.5
q-32 48 -28.5 96.5t30.5 88.5t67 61q32 17 63 14q9 -1 38 -14q4 -2 11 -6.5t10 -6.5q51 -24 53 -91q1 -30 -5 -70q-3 -18 -10 -50.5t-10 -44.5q-10 -54 -37 -90l60 -136q6 5 10.5 11t10.5 18l7 14q22 38 23 78q0 18 5 24t23 10q10 1 24 2q35 2 40.5 -32.5t-12.5 -65.5z
M173 634q-39 -65 -15 -120q14 -32 52 -78q14 28 14 29q12 32 14 73.5t-1 74.5q0 7 -6 18q-11 20 -28.5 21t-29.5 -18zM204 119q2 1 53 33q-14 29 -38 81.5t-30 65.5q-37 -34 -40 -36q-33 -36 -36 -80q-3 -38 28 -60t63 -4z" />
    <glyph glyph-name="quotesingle" unicode="'" horiz-adv-x="136" 
d="M111 645q2 -52 3 -55q0 -13 -3 -20t-9.5 -11t-19.5 -6q-28 -4 -38.5 3.5t-14.5 34.5q-1 4 -7 106q-1 17 14 22q31 10 44 11q28 3 29 -27v-58h2z" />
    <glyph glyph-name="quotesingle" unicode="&#x2019;" horiz-adv-x="136" 
d="M111 645q2 -52 3 -55q0 -13 -3 -20t-9.5 -11t-19.5 -6q-28 -4 -38.5 3.5t-14.5 34.5q-1 4 -7 106q-1 17 14 22q31 10 44 11q28 3 29 -27v-58h2z" />
    <glyph glyph-name="quotesingle" unicode="&#x2018;" horiz-adv-x="136" 
d="M111 645q2 -52 3 -55q0 -13 -3 -20t-9.5 -11t-19.5 -6q-28 -4 -38.5 3.5t-14.5 34.5q-1 4 -7 106q-1 17 14 22q31 10 44 11q28 3 29 -27v-58h2z" />
    <glyph glyph-name="parenleft" unicode="(" horiz-adv-x="249" 
d="M220 33q9 -15 7 -21.5t-17 -14.5q-5 -3 -14 -9l-12 -8q-16 -10 -26.5 -8.5t-20.5 17.5q-13 19 -33 59q-15 30 -33 70q-26 57 -7 119q1 4 17 76q-15 63 -17 68q-5 16 -21 49q-32 66 -15 137q25 106 90 193q8 12 22 25q9 8 17 9q8 2 15.5 -1t11.5 -6.5t10 -11t9 -10.5
q14 -14 3 -34q-2 -3 -9 -14q-44 -65 -82 -160q-23 -59 3 -113q15 -34 35 -67q41 -70 17 -142q-23 -69 14 -139q12 -22 36 -63z" />
    <glyph glyph-name="parenright" unicode=")" horiz-adv-x="328" 
d="M292 415q26 -50 2 -101q-14 -29 -28 -48q-44 -60 -83 -159q-20 -50 -53 -112q-8 -15 -33 -34q-18 -15 -41 0q-2 1 -7 4t-7 5q-18 11 -19.5 17t6.5 26q4 11 13 35t17 42.5t16 34.5q12 23 68 112q2 4 7.5 12t8.5 13l7.5 12.5t7.5 13t6.5 13t6 14.5t4.5 14q14 51 -16 97
q-10 17 -27 37q-35 45 -46 106q-18 104 -56 167q-1 1 -24 37q47 32 51 35q10 5 16 3.5t13 -10.5q3 -5 6 -11q65 -128 87 -195t62 -123q19 -25 35 -57z" />
    <glyph glyph-name="asterisk" unicode="*" horiz-adv-x="318" 
d="M288 713q10 -23 7 -30t-26 -16q-2 -1 -56 -23q30 -34 32 -36q11 -13 10.5 -19.5t-12.5 -19.5q-2 -2 -7 -6q-11 -10 -16.5 -10t-16.5 10q-3 3 -46 44q-11 -11 -25 -50q-7 -17 -13 -19t-22 9q-30 22 -32 32t21 39q1 2 34 42h-22q-6 0 -16 -1t-18.5 -1.5t-16.5 -0.5
q-15 0 -19 4.5t-6 19.5v24q1 14 5.5 19t17.5 6q5 0 44 1h25q-6 44 -6 47q-3 23 18 22q17 0 40 -6q19 -4 22 -29q0 -2 4 -38q55 9 59 10q16 3 21.5 -0.5t12.5 -17.5z" />
    <glyph glyph-name="plus" unicode="+" horiz-adv-x="311" 
d="M243 369q29 3 38.5 -6t7.5 -37q-2 -21 -5 -28.5t-10 -11t-27 -7.5q-2 0 -42 -5v-51q-1 -15 -6.5 -20.5t-20.5 -5.5q-19 -1 -27.5 0t-19 5.5t-14 16.5t-2.5 33l-2 17q-37 -2 -39 -3q-27 -3 -35.5 3.5t-13.5 32.5q-1 2 -1 3q-4 24 1.5 32t29.5 12q14 2 50 8l1 1q0 61 -1 66
q-1 17 6.5 24t23.5 8q17 1 31 0q30 -2 31 -31v-60q8 0 23 2t23 2z" />
    <glyph glyph-name="comma" unicode="," horiz-adv-x="166" 
d="M144 53q0 -1 -1 -17h1q-8 -61 -8 -65q-15 -64 -62 -89q-13 -7 -20 -6.5t-15 7.5q-13 13 -16 22.5t3 22.5q26 48 16 120q-5 32 1 39.5t37 10.5q18 2 34 1q17 0 23 -6t7 -23v-17z" />
    <glyph glyph-name="hyphen" unicode="-" horiz-adv-x="300" 
d="M211 355h36q16 -1 23 -8.5t8 -24.5q3 -59 -57 -66q-94 -10 -118 -12q-16 -2 -53 0q-18 1 -21 15q-7 31 -7 42q0 18 8 27t26 13q13 3 24 4q24 2 131 10z" />
    <glyph glyph-name="period" unicode="." horiz-adv-x="156" 
d="M114 60q11 -2 16 -8t4 -17q-1 -37 -6 -63q-3 -15 -14 -23.5t-26 -7.5q-24 2 -45 13q-12 6 -17 25q-1 3 -4 36h1v3.5v3.5q0 26 8 34t35 8q26 0 48 -4z" />
    <glyph glyph-name="slash" unicode="/" horiz-adv-x="402" 
d="M371 633l9 -8q-26 -55 -27 -56q-24 -53 -89 -196q-81 -178 -92 -201q-34 -76 -54 -127q-10 -26 -25.5 -33t-41.5 4q-22 10 -27 20.5t3 32.5q5 16 43 111q21 53 28 67q8 18 29 62.5t32 69.5q11 26 32.5 78.5t32.5 77.5q8 17 53 112q8 16 19 12q23 -7 75 -26z" />
    <glyph glyph-name="zero" unicode="0" horiz-adv-x="412" 
d="M106 683q31 24 92 25q50 3 99 -27q39 -23 46 -68q4 -23 5 -38q2 -70 27 -140q29 -83 2 -174q-4 -14 -39 -145q-4 -15 -6 -22q-13 -69 -95 -87q-31 -6 -77 -2q-41 4 -77 37.5t-44 82.5q-9 52 -7 106q3 80 -7 184q-9 96 13 174q15 55 68 94zM247 232q23 74 21 112
q0 14 -1 14q-26 159 -34 208q-3 15 -16 26q-15 13 -32 8t-25 -24q-15 -35 -14 -64q0 -14 1.5 -30t4.5 -35t4 -31q10 -94 9 -115q0 -19 -5.5 -54.5t-6.5 -46.5q-3 -30 1 -55q1 -6 4.5 -11t9 -8.5t11.5 -5t12 -2.5q3 0 6 0.5t5.5 2.5t4 3t3.5 4.5t2.5 4t2.5 5t2 5.5q2 4 5 13
q20 60 25 76z" />
    <glyph glyph-name="one" unicode="1" horiz-adv-x="282" 
d="M148 439q-2 6 -30 107q-50 -2 -52 -2q-24 -1 -32.5 6.5t-10.5 30.5q-1 8 -1 15q0 19 4 23.5t23 7.5q33 5 77 34q8 5 18 22q20 34 58 26q15 -3 16 -16q3 -21 3 -29q0 -12 -0.5 -30t-0.5 -31.5v-30.5t1 -31q1 -19 18 -90q1 -7 4 -16l6 -18t4 -15q15 -56 -5 -125
q-2 -7 -7.5 -22t-9 -27t-4.5 -23q-3 -27 -5 -111q-1 -12 0 -34.5t2 -26.5q0 -13 -4 -19t-17 -8q-20 -4 -46 -6q-11 0 -16 4t-7 15q-3 21 -8 65q-10 102 19 177q34 89 3 178z" />
    <glyph glyph-name="two" unicode="2" horiz-adv-x="414" 
d="M177 125q0 -1 -9 -16q135 0 146 1q28 0 33 -4.5t9 -31.5q3 -23 4 -39t-4.5 -23.5t-21.5 -10.5q-7 -2 -19 -2l-240 -4h-15q-20 0 -25 4.5t-7 23.5q-1 12 -3 34t-3 31q-2 25 17 41q14 12 100 88q60 53 95 104q39 57 41 125q2 74 -3 102q-6 28 -33 43.5t-55 5.5
q-28 -9 -36 -33q-12 -37 -6 -65q1 -1 3 -20q-6 0 -39.5 -1t-50.5 -1q-12 -1 -16 12q-2 6 -3 11q-6 40 3 80t40 78t81 53q34 10 70 0q88 -26 126 -109q24 -51 30 -107q3 -27 5 -60q4 -55 -27 -94q-32 -41 -69 -78q-79 -78 -118 -138z" />
    <glyph glyph-name="three" unicode="3" horiz-adv-x="429" 
d="M82 504q-3 1 -55 6q-5 37 -5 39q1 53 37 94.5t85.5 58.5t91.5 3q16 -5 22 -9q81 -61 96 -133q2 -12 5.5 -31t6.5 -35.5t6 -30.5q13 -58 -20 -94q29 -21 30 -22q29 -22 24 -58q-2 -17 -6 -30q-22 -63 -48 -138q-16 -44 -41 -71q-28 -29 -63.5 -43t-77.5 -8t-79 34
q-51 39 -65 91q-3 13 -3 44q-1 19 19 20q38 2 75 2q17 0 17 -19q0 -21 19 -47q14 -18 36 -19t37 17q9 10 14 22q23 58 34 91q6 20 -4.5 37t-32.5 21q-5 1 -11.5 1.5t-14.5 1t-12 0.5q-1 1 -21 3q1 2 1 7q4 22 5 33.5t0 30t-7 33.5q3 2 9 5t10.5 5.5t8.5 4.5q34 16 44.5 37
t3.5 59q-1 9 -4.5 26.5t-4.5 23.5q-7 32 -32 38q-35 8 -59 -14q-18 -18 -18 -49v-37q-8 -3 -16.5 -3.5t-20 1t-16.5 1.5z" />
    <glyph glyph-name="four" unicode="4" horiz-adv-x="410" 
d="M349 266q0 -1 -1 -8q7 1 20 1.5t20 0.5q-6 -17 -6 -18l-23 -56q-6 -19 -24 -19q-3 0 -37 -3q-3 -19 -3 -69q0 -34 1 -65q1 -22 -18 -22q-21 0 -72 2q-12 1 -13 15q-2 50 -1 60q0 7 6 80q-17 2 -18 2q-20 -1 -57 -1.5t-47 -0.5h-29q-18 1 -22.5 7.5t-0.5 23.5q15 58 48 92
q0 1 2.5 3.5l3.5 3.5q65 61 52 152q-10 65 21 132q17 38 49 109q5 13 18 13q7 0 18 0.5t21 1t19 0.5q13 0 19.5 -5t8.5 -18q2 -12 2 -44q0 -7 -0.5 -47t0.5 -47q1 -42 26 -85q3 -4 6 -10t6 -11.5t6 -10.5q40 -67 7 -142q-4 -8 -8 -17zM180 307q-3 -5 -6.5 -10.5t-6 -10
t-6.5 -11.5t-7 -12q61 0 71 1q8 0 13 8q36 63 23 109q-2 10 -27 67q0 1 -10 11v-13q7 -80 -44 -139z" />
    <glyph glyph-name="five" unicode="5" horiz-adv-x="424" 
d="M308 596h-168q-9 -63 30 -135q41 27 44 28q33 16 68 3q72 -26 107 -94q21 -42 8 -90q-6 -24 -15 -43q-37 -75 -46 -133q-8 -51 -40.5 -77.5t-87.5 -40.5q-53 -14 -107.5 20.5t-72.5 83.5q-12 31 0 63q34 15 80 13q9 0 13 -2t5.5 -6t1.5 -14q-1 -33 23 -47q20 -12 41 -5.5
t31 27.5q2 5 3 9q11 38 47 109q25 47 16 84q-6 23 -19 41q-19 27 -43 2q-16 -17 -16 -36q0 -18 -7 -24t-24 -6q-17 -1 -42 1q-19 1 -19 20q-1 46 -33 98q-42 69 -42 152q0 10 -0.5 23.5t-1 26.5t-0.5 23q0 17 5.5 22t23.5 5q13 0 100 1q25 1 75 2t75 1q16 0 22 -4.5t7 -19.5
q1 -23 -4 -68q-1 -7 -14 -11q-5 -2 -24 -2z" />
    <glyph glyph-name="six" unicode="6" horiz-adv-x="391" 
d="M142 556q-12 -54 19 -137q37 23 100 20q39 -2 72 -32t36 -66q1 -15 -4 -36q-3 -11 -13 -37q-28 -70 -39 -135q-11 -74 -61 -111q-32 -24 -67 -24h-20q-64 0 -99 53q-53 79 -39 151q2 13 7 28q7 22 13 42q29 80 -2 164q-12 30 -18 58q-12 56 6 117q22 76 100 96
q57 14 108 0q37 -10 59 -41q32 -45 37 -98q1 -13 -0.5 -19t-7 -8t-18.5 -3q-25 -1 -41 0q-18 1 -25 19q-7 21 -26 46q-15 20 -33.5 18t-30.5 -24q-7 -16 -13 -41zM145 239q-1 -3 -14 -56q3 -34 19 -56q25 -34 54 -1q6 7 7 10q5 13 18 46.5t21 58t14 48.5q8 32 -7.5 47
t-54.5 10q-5 0 -16 -5q-16 -7 -21 -25q-3 -15 -11 -43t-9 -34z" />
    <glyph glyph-name="seven" unicode="7" horiz-adv-x="371" 
d="M222 575q0 1 1 16q-87 -4 -91 -4q-69 -3 -80 -3h-10t-7.5 1.5t-5.5 3.5t-3.5 5t-2 7.5t-1.5 10.5v92q20 4 52 3.5t50 0.5q75 6 105 6q7 0 102 -2q2 -21 2 -22q1 -13 1.5 -66t0.5 -82q0 -11 5 -43q1 -5 3 -14.5t2 -11.5q14 -71 -20 -127q-23 -35 -47 -68q-50 -66 -64 -140
q-3 -19 -11 -54.5t-12 -51.5q-5 -28 -29 -29q-6 -1 -24.5 -4t-28.5 -2q-18 0 -24 8t-3 27q13 60 25 113q14 57 51 110q32 45 45 66q45 71 25 146q-17 62 -6 108z" />
    <glyph glyph-name="eight" unicode="8" horiz-adv-x="412" 
d="M148 370l15 10q-54 45 -121 142q-21 32 -17.5 64t30.5 60q78 81 188 63q63 -9 88 -80q6 -17 15 -47.5t12 -38.5q3 -9 22 -64q18 -54 -24 -87q-1 0 -11 -7l15 -11q36 -23 28 -72q0 -3 -1 -5q-11 -28 -19.5 -57.5t-18.5 -75t-14 -59.5q-17 -72 -71 -92q-86 -32 -165 5
q-45 21 -58 69q-13 49 -18 95q-5 41 23 86q46 72 102 102zM279 453q0 1 2 15q-1 14 -5.5 34.5t-12 41t-16.5 34.5q-10 19 -22 31t-21.5 13.5t-23.5 -6.5q-21 -12 -31 -33.5t-4 -45.5q14 -59 70 -104q6 -5 13 -7q18 -8 32.5 0t18.5 27zM165 276q-24 -31 -24 -77q1 -24 2 -27
q1 -7 4 -16q7 -19 22 -29.5t34 -8.5q19 1 27.5 11t12.5 34q7 47 17 115q3 17 -3 24.5t-24 7.5q-42 1 -68 -34z" />
    <glyph glyph-name="nine" unicode="9" horiz-adv-x="427" 
d="M254 252q0 1 7 17q-46 -13 -50 -14q-16 -3 -33 1q-21 5 -33.5 13.5t-17.5 22.5t-4 35q5 63 -35 142q-16 32 -30 66q-23 59 15 120q17 26 42 36q91 35 161 -11q60 -41 71 -117q8 -60 33 -114q2 -3 4.5 -10t3.5 -10q37 -82 -6 -158q-39 -72 -54 -158q-6 -35 -27.5 -58.5
t-56.5 -43.5q-10 -6 -21 -6q-97 -3 -157 53q-32 29 -43 100q-2 10 1.5 14t13.5 4h36.5h29.5q14 0 18 -14q2 -9 3 -11q7 -21 17 -28.5t29 -6.5q21 0 32.5 8t18.5 27q5 18 7 28q5 38 25 73zM275 399v5l3 1q-2 6 -5 17.5t-6 20.5t-7 17q-28 58 -38 114q-5 30 -36 24
q-20 -4 -28 -27q-13 -33 8 -72q26 -52 61 -112q1 -1 2 -3q13 -23 27 -19q16 5 19 34z" />
    <glyph glyph-name="colon" unicode=":" horiz-adv-x="156" 
d="M114 291q11 -2 16 -7.5t4 -17.5q-1 -36 -6 -62q-3 -15 -14 -23.5t-26 -7.5q-24 2 -45 13q-12 6 -17 25q-1 2 -4 35l1 1v7q0 26 8 33.5t35 7.5q26 0 48 -4zM43 392q-12 6 -17 25q-1 3 -4 36h1v3.5v3.5q0 26 8 34t35 8q26 0 48 -4q12 -2 16.5 -8t3.5 -17q-1 -37 -6 -63
q-2 -10 -7.5 -17t-14 -11t-18.5 -3q-24 2 -45 13z" />
    <glyph glyph-name="semicolon" unicode=";" horiz-adv-x="168" 
d="M144 -1v-17q0 -2 -1 -17h1q-8 -61 -8 -65q-15 -64 -62 -89q-13 -7 -20 -6.5t-15 7.5q-13 13 -16 22.5t3 22.5q26 48 16 120q-5 32 1 39.5t37 10.5q18 2 34 1q17 0 23 -6t7 -23zM54 97q-11 6 -17 25q-1 3 -4 36h1v7q1 26 8.5 34t34.5 8q26 0 48 -4q12 -2 16.5 -8t4.5 -17
q-1 -37 -6 -63q-3 -15 -14 -23.5t-27 -7.5q-23 2 -45 13z" />
    <glyph glyph-name="less" unicode="&#x3c;" horiz-adv-x="306" 
d="M266 244q14 -7 16.5 -13.5t-1.5 -22.5q-4 -14 -6 -19q-16 -41 -54 -30q-7 3 -183 62q-15 4 -15 21q0 53 -1 122q0 15 11 22q1 1 6.5 5t9.5 5q55 27 164 79q3 1 9.5 3.5t7.5 3.5q19 8 28 -9q6 -10 24 -50q7 -17 -10 -26q-40 -22 -61 -33q-9 -5 -28 -12.5t-28 -12.5
q-3 -1 -40 -23q1 -1 1 -3v-3q85 -36 92 -40q41 -17 58 -26z" />
    <glyph glyph-name="equal" unicode="=" horiz-adv-x="313" 
d="M103 382q-16 -1 -53 1q-18 1 -21 14q-7 31 -7 43q0 17 8 26t26 13q13 3 24 4q24 2 131 11v-1h36q16 -1 23 -8.5t8 -23.5q3 -60 -57 -66q-94 -11 -118 -13zM260 341q11 -1 17.5 -4.5t9.5 -10t4 -18.5q2 -59 -57 -66q-95 -10 -119 -12q-15 -2 -53 0q-17 1 -20 15
q-7 31 -7 42q0 18 7.5 27t26.5 13q13 3 24 4q25 2 130 10h37z" />
    <glyph glyph-name="greater" unicode="&#x3e;" horiz-adv-x="306" 
d="M283 392q0 -52 1 -121q0 -15 -11 -22q-1 -1 -6.5 -5t-8.5 -6q-58 -27 -165 -78q-3 -2 -9.5 -4.5t-7.5 -2.5q-19 -8 -28 9q-6 10 -24 50q-7 16 10 26q40 22 62 33q9 4 27.5 12t27.5 13q3 1 40 23q0 1 -1 4v2q-85 36 -92 39q-41 18 -58 27q-14 7 -16.5 13.5t1.5 22.5
q4 13 6 18q16 42 54 30q7 -2 184 -61q14 -5 14 -22z" />
    <glyph glyph-name="question" unicode="?" horiz-adv-x="487" 
d="M464 531q2 -21 1 -37t-8 -30t-21 -26.5t-38 -26.5q-4 -2 -42 -19q-4 -2 -14 -6l-15 -6q-50 -23 -66 -71q-17 -51 -17 -100q1 -23 -3.5 -29t-27.5 -14q-21 -7 -56 -15q-10 -2 -14 0.5t-6 13.5q0 4 -4 50q-2 21 2 41t12 48.5t10 38.5q15 65 67 88q7 4 14.5 8t15 10l12.5 10
t14 11.5t13 10.5q31 26 29 69q0 12 -2 34.5t-3 33.5q-2 40 -38 63.5t-77 8.5q-4 -1 -11 -4t-9 -4q-63 -25 -60 -90q1 -17 -6 -24t-24 -8q-17 0 -45 5q-18 4 -21 24q-20 114 67 178q62 45 133 53q34 4 57 -6q9 -4 14 -5q43 -8 72 -35.5t51 -71.5q6 -13 11.5 -29t8 -26
t7.5 -31t6 -28q7 -30 11 -57zM264 29v-31h1q-2 -34 -2 -36q-3 -19 -23 -17t-45 5q-28 4 -32 32q-5 34 -6 50q-1 26 25 33q27 8 55 -2q25 -9 27 -34z" />
    <glyph glyph-name="at" unicode="@" horiz-adv-x="731" 
d="M670 204q23 -6 12 -28q-6 -10 -16 -18q-68 -58 -90 -74q-54 -40 -151 -49q-125 -11 -235 43q-54 27 -96 84q-26 35 -27 85q-2 77 -4 94q-7 52 -21 84q-51 117 30 242q69 108 200 149q62 19 122 22q53 2 107 -19q67 -28 122 -74q34 -28 49 -68q33 -88 32 -148q0 -14 2 -38
t2 -30q3 -59 -32 -115q-47 -76 -127 -129q-30 -20 -61 -19q-54 3 -62 55q0 1 -3 29q-64 -50 -69 -54q-39 -27 -90 -9q-40 14 -41 55q-1 17 2 33q7 57 -11 121q0 2 -1.5 7.5t-3 10l-2.5 7.5q-30 86 29 170q60 86 159 32q1 0 17 -11l3.5 7t4.5 8t5 5t22 7q18 4 29 6
q19 3 25.5 -3t5.5 -25q-1 -8 -1.5 -17.5t-0.5 -19t-1 -17.5q-3 -7 0 -35t3.5 -35t5 -35t6.5 -34q2 -16 6 -92v-20.5v-20.5q4 -39 36 -17q8 6 18 17q46 55 47 127q1 94 -30 172q-10 23 -23 36q-41 40 -71 62q-60 43 -147 27q-147 -27 -208 -161q-29 -61 -1 -122
q10 -21 11 -22q45 -79 40 -170q-2 -45 23 -77q33 -44 81 -59q45 -14 84 -12q72 4 92 6q45 4 84 35q2 1 14.5 10t18.5 15q15 17 36 19t40 -5zM411 362q14 30 15 86q-4 56 -3 60q2 38 -38 59q-38 20 -60 -16q-6 -9 -10 -22q-9 -26 -3 -70q5 -41 9 -65q9 -55 13 -71
q4 -15 11.5 -18t21.5 4q27 15 44 53z" />
    <glyph glyph-name="A" unicode="A" horiz-adv-x="418" 
d="M292 26q-3 12 -30 130q-91 -6 -103 -6q-18 -1 -22 -22q-5 -30 -19 -97q-2 -12 -6 -24q-7 -23 -30 -24q-19 -2 -36 -1q-16 1 -20.5 6t-3.5 20q5 67 11 96q12 63 33 132q30 103 31 193q1 70 20 134q10 34 24 95q5 23 27 25q10 1 25.5 2.5t29 3t25.5 1.5q21 0 29.5 -8
t10.5 -29q11 -108 57 -213q48 -109 31 -213q-8 -55 11 -159q6 -31 8 -58q1 -13 -2.5 -17.5t-16.5 -5.5q-2 0 -12.5 -1t-16.5 -1q-45 -2 -55 41zM266 364q-3 11 -47 135h-3h-3q-1 -41 -1 -43q8 -102 -31 -200l-3 -16q19 3 52.5 9.5t41.5 8.5q6 70 -6 106z" />
    <glyph glyph-name="A" unicode="&#xc5;" horiz-adv-x="418" 
d="M292 26q-3 12 -30 130q-91 -6 -103 -6q-18 -1 -22 -22q-5 -30 -19 -97q-2 -12 -6 -24q-7 -23 -30 -24q-19 -2 -36 -1q-16 1 -20.5 6t-3.5 20q5 67 11 96q12 63 33 132q30 103 31 193q1 70 20 134q10 34 24 95q5 23 27 25q10 1 25.5 2.5t29 3t25.5 1.5q21 0 29.5 -8
t10.5 -29q11 -108 57 -213q48 -109 31 -213q-8 -55 11 -159q6 -31 8 -58q1 -13 -2.5 -17.5t-16.5 -5.5q-2 0 -12.5 -1t-16.5 -1q-45 -2 -55 41zM266 364q-3 11 -47 135h-3h-3q-1 -41 -1 -43q8 -102 -31 -200l-3 -16q19 3 52.5 9.5t41.5 8.5q6 70 -6 106z" />
    <glyph glyph-name="A" unicode="&#xc4;" horiz-adv-x="418" 
d="M292 26q-3 12 -30 130q-91 -6 -103 -6q-18 -1 -22 -22q-5 -30 -19 -97q-2 -12 -6 -24q-7 -23 -30 -24q-19 -2 -36 -1q-16 1 -20.5 6t-3.5 20q5 67 11 96q12 63 33 132q30 103 31 193q1 70 20 134q10 34 24 95q5 23 27 25q10 1 25.5 2.5t29 3t25.5 1.5q21 0 29.5 -8
t10.5 -29q11 -108 57 -213q48 -109 31 -213q-8 -55 11 -159q6 -31 8 -58q1 -13 -2.5 -17.5t-16.5 -5.5q-2 0 -12.5 -1t-16.5 -1q-45 -2 -55 41zM266 364q-3 11 -47 135h-3h-3q-1 -41 -1 -43q8 -102 -31 -200l-3 -16q19 3 52.5 9.5t41.5 8.5q6 70 -6 106z" />
    <glyph glyph-name="A" unicode="&#xc3;" horiz-adv-x="418" 
d="M292 26q-3 12 -30 130q-91 -6 -103 -6q-18 -1 -22 -22q-5 -30 -19 -97q-2 -12 -6 -24q-7 -23 -30 -24q-19 -2 -36 -1q-16 1 -20.5 6t-3.5 20q5 67 11 96q12 63 33 132q30 103 31 193q1 70 20 134q10 34 24 95q5 23 27 25q10 1 25.5 2.5t29 3t25.5 1.5q21 0 29.5 -8
t10.5 -29q11 -108 57 -213q48 -109 31 -213q-8 -55 11 -159q6 -31 8 -58q1 -13 -2.5 -17.5t-16.5 -5.5q-2 0 -12.5 -1t-16.5 -1q-45 -2 -55 41zM266 364q-3 11 -47 135h-3h-3q-1 -41 -1 -43q8 -102 -31 -200l-3 -16q19 3 52.5 9.5t41.5 8.5q6 70 -6 106z" />
    <glyph glyph-name="A" unicode="&#xc2;" horiz-adv-x="418" 
d="M292 26q-3 12 -30 130q-91 -6 -103 -6q-18 -1 -22 -22q-5 -30 -19 -97q-2 -12 -6 -24q-7 -23 -30 -24q-19 -2 -36 -1q-16 1 -20.5 6t-3.5 20q5 67 11 96q12 63 33 132q30 103 31 193q1 70 20 134q10 34 24 95q5 23 27 25q10 1 25.5 2.5t29 3t25.5 1.5q21 0 29.5 -8
t10.5 -29q11 -108 57 -213q48 -109 31 -213q-8 -55 11 -159q6 -31 8 -58q1 -13 -2.5 -17.5t-16.5 -5.5q-2 0 -12.5 -1t-16.5 -1q-45 -2 -55 41zM266 364q-3 11 -47 135h-3h-3q-1 -41 -1 -43q8 -102 -31 -200l-3 -16q19 3 52.5 9.5t41.5 8.5q6 70 -6 106z" />
    <glyph glyph-name="A" unicode="&#xc1;" horiz-adv-x="418" 
d="M292 26q-3 12 -30 130q-91 -6 -103 -6q-18 -1 -22 -22q-5 -30 -19 -97q-2 -12 -6 -24q-7 -23 -30 -24q-19 -2 -36 -1q-16 1 -20.5 6t-3.5 20q5 67 11 96q12 63 33 132q30 103 31 193q1 70 20 134q10 34 24 95q5 23 27 25q10 1 25.5 2.5t29 3t25.5 1.5q21 0 29.5 -8
t10.5 -29q11 -108 57 -213q48 -109 31 -213q-8 -55 11 -159q6 -31 8 -58q1 -13 -2.5 -17.5t-16.5 -5.5q-2 0 -12.5 -1t-16.5 -1q-45 -2 -55 41zM266 364q-3 11 -47 135h-3h-3q-1 -41 -1 -43q8 -102 -31 -200l-3 -16q19 3 52.5 9.5t41.5 8.5q6 70 -6 106z" />
    <glyph glyph-name="A" unicode="&#xc0;" horiz-adv-x="418" 
d="M292 26q-3 12 -30 130q-91 -6 -103 -6q-18 -1 -22 -22q-5 -30 -19 -97q-2 -12 -6 -24q-7 -23 -30 -24q-19 -2 -36 -1q-16 1 -20.5 6t-3.5 20q5 67 11 96q12 63 33 132q30 103 31 193q1 70 20 134q10 34 24 95q5 23 27 25q10 1 25.5 2.5t29 3t25.5 1.5q21 0 29.5 -8
t10.5 -29q11 -108 57 -213q48 -109 31 -213q-8 -55 11 -159q6 -31 8 -58q1 -13 -2.5 -17.5t-16.5 -5.5q-2 0 -12.5 -1t-16.5 -1q-45 -2 -55 41zM266 364q-3 11 -47 135h-3h-3q-1 -41 -1 -43q8 -102 -31 -200l-3 -16q19 3 52.5 9.5t41.5 8.5q6 70 -6 106z" />
    <glyph glyph-name="B" unicode="B" horiz-adv-x="424" 
d="M358 385q-2 -2 -34 -25q39 -28 42 -30q44 -31 34 -85q-14 -87 -57 -157q-45 -73 -126 -81q-112 -11 -118 -11q-9 -1 -45 5q-23 4 -25 29q-8 52 -7 114.5t16 114.5q24 86 4 168q-23 86 -10 178q1 11 2.5 32t2.5 28q1 13 4.5 17t15.5 5q103 8 169 -11q8 -3 12 -3
q78 -17 111 -109q5 -17 10.5 -36t11 -43.5t8.5 -37.5q10 -37 -21 -62zM221 308h-35q-25 -66 -31 -127t10 -94q42 14 44 16q35 18 56.5 65t14.5 86q-4 22 -20.5 37t-38.5 17zM249 471q11 49 -16.5 82.5t-87.5 43.5q-9 -78 20 -161q3 -9 14 -11q23 -5 43.5 8.5t26.5 37.5z" />
    <glyph glyph-name="C" unicode="C" horiz-adv-x="383" 
d="M140 500h-1q11 -66 12 -70q18 -88 -3 -163q-12 -40 -16 -76q-1 -9 3 -48q1 -6 6 -16q15 -26 35 -26t30 25q32 72 38 92q10 32 44 33h49q13 0 17 -4.5t1 -17.5q-5 -20 -21 -80q-5 -19 -11 -37q-6 -19 -17 -36t-25 -31t-31 -24.5t-36.5 -17t-38.5 -7.5q-69 -4 -106 57
q-55 93 -27 186q20 67 12 120q-3 21 -21 100q-16 68 -8 113q6 38 29 67t53 42t63 15.5t60 -11.5l21 -7q31 -10 54 -43q13 -21 24.5 -49.5t15.5 -42t14 -53.5q4 -14 -1.5 -22t-18.5 -8q-18 1 -79 13q-6 1 -8 11q-9 41 -13 66q-5 29 -25 36q-29 9 -50 -10q-22 -19 -24 -64v-12
z" />
    <glyph glyph-name="C" unicode="&#xc7;" horiz-adv-x="383" 
d="M140 500h-1q11 -66 12 -70q18 -88 -3 -163q-12 -40 -16 -76q-1 -9 3 -48q1 -6 6 -16q15 -26 35 -26t30 25q32 72 38 92q10 32 44 33h49q13 0 17 -4.5t1 -17.5q-5 -20 -21 -80q-5 -19 -11 -37q-6 -19 -17 -36t-25 -31t-31 -24.5t-36.5 -17t-38.5 -7.5q-69 -4 -106 57
q-55 93 -27 186q20 67 12 120q-3 21 -21 100q-16 68 -8 113q6 38 29 67t53 42t63 15.5t60 -11.5l21 -7q31 -10 54 -43q13 -21 24.5 -49.5t15.5 -42t14 -53.5q4 -14 -1.5 -22t-18.5 -8q-18 1 -79 13q-6 1 -8 11q-9 41 -13 66q-5 29 -25 36q-29 9 -50 -10q-22 -19 -24 -64v-12
z" />
    <glyph glyph-name="D" unicode="D" horiz-adv-x="410" 
d="M142 2v1q-54 0 -60 1q-14 0 -33 6q-20 7 -21 33q-8 125 14 202q10 34 14 69q7 57 -11 108q-20 55 -22.5 123.5t5.5 125.5q2 21 22 22h1h1q15 0 44.5 -1t47.5 -2t43 -4.5t45 -11.5q75 -26 98 -103q3 -12 51 -170q18 -57 -10 -120q-27 -59 -48 -158q-2 -6 -3.5 -14.5
t-2.5 -17.5t-3 -15q-5 -30 -31 -47q-40 -27 -85 -27h-56zM226 526q-25 63 -95 59q-6 -63 2 -113q1 -9 7.5 -40t8.5 -48q6 -55 -16 -135q-17 -57 -17 -119q0 -3 1 -49q43 -1 59 10q41 29 55 70q20 58 39 122q18 63 5 103q-21 67 -49 140z" />
    <glyph glyph-name="E" unicode="E" horiz-adv-x="368" 
d="M297 694q2 0 34 -2q1 -72 1 -81q-1 -18 -23 -21q-40 -7 -60 -8h-75h-10h-11h-9q-14 -64 37 -198h96h22q21 -1 29 -10t5 -30q0 -1 -4 -24q-2 -18 -9 -24t-24 -7q-19 -1 -92 -3h-25q-40 -102 -35 -191h32h134q20 0 25 -17q9 -30 11 -40q1 -13 -6 -22.5t-21 -11.5
q-6 -1 -29 -1q-63 -2 -218 -6h-15q-8 1 -12.5 3t-7.5 6t-6 12q-3 10 -4 23t-1 20.5t1 24t1 21.5q4 84 36 170q30 82 -7 166q-25 54 -32 101q-6 40 3 114q2 12 6.5 18.5t12 10t19.5 3.5q100 2 231 4z" />
    <glyph glyph-name="E" unicode="&#xcb;" horiz-adv-x="368" 
d="M297 694q2 0 34 -2q1 -72 1 -81q-1 -18 -23 -21q-40 -7 -60 -8h-75h-10h-11h-9q-14 -64 37 -198h96h22q21 -1 29 -10t5 -30q0 -1 -4 -24q-2 -18 -9 -24t-24 -7q-19 -1 -92 -3h-25q-40 -102 -35 -191h32h134q20 0 25 -17q9 -30 11 -40q1 -13 -6 -22.5t-21 -11.5
q-6 -1 -29 -1q-63 -2 -218 -6h-15q-8 1 -12.5 3t-7.5 6t-6 12q-3 10 -4 23t-1 20.5t1 24t1 21.5q4 84 36 170q30 82 -7 166q-25 54 -32 101q-6 40 3 114q2 12 6.5 18.5t12 10t19.5 3.5q100 2 231 4z" />
    <glyph glyph-name="E" unicode="&#xca;" horiz-adv-x="368" 
d="M297 694q2 0 34 -2q1 -72 1 -81q-1 -18 -23 -21q-40 -7 -60 -8h-75h-10h-11h-9q-14 -64 37 -198h96h22q21 -1 29 -10t5 -30q0 -1 -4 -24q-2 -18 -9 -24t-24 -7q-19 -1 -92 -3h-25q-40 -102 -35 -191h32h134q20 0 25 -17q9 -30 11 -40q1 -13 -6 -22.5t-21 -11.5
q-6 -1 -29 -1q-63 -2 -218 -6h-15q-8 1 -12.5 3t-7.5 6t-6 12q-3 10 -4 23t-1 20.5t1 24t1 21.5q4 84 36 170q30 82 -7 166q-25 54 -32 101q-6 40 3 114q2 12 6.5 18.5t12 10t19.5 3.5q100 2 231 4z" />
    <glyph glyph-name="E" unicode="&#xc9;" horiz-adv-x="368" 
d="M297 694q2 0 34 -2q1 -72 1 -81q-1 -18 -23 -21q-40 -7 -60 -8h-75h-10h-11h-9q-14 -64 37 -198h96h22q21 -1 29 -10t5 -30q0 -1 -4 -24q-2 -18 -9 -24t-24 -7q-19 -1 -92 -3h-25q-40 -102 -35 -191h32h134q20 0 25 -17q9 -30 11 -40q1 -13 -6 -22.5t-21 -11.5
q-6 -1 -29 -1q-63 -2 -218 -6h-15q-8 1 -12.5 3t-7.5 6t-6 12q-3 10 -4 23t-1 20.5t1 24t1 21.5q4 84 36 170q30 82 -7 166q-25 54 -32 101q-6 40 3 114q2 12 6.5 18.5t12 10t19.5 3.5q100 2 231 4z" />
    <glyph glyph-name="E" unicode="&#xc8;" horiz-adv-x="368" 
d="M297 694q2 0 34 -2q1 -72 1 -81q-1 -18 -23 -21q-40 -7 -60 -8h-75h-10h-11h-9q-14 -64 37 -198h96h22q21 -1 29 -10t5 -30q0 -1 -4 -24q-2 -18 -9 -24t-24 -7q-19 -1 -92 -3h-25q-40 -102 -35 -191h32h134q20 0 25 -17q9 -30 11 -40q1 -13 -6 -22.5t-21 -11.5
q-6 -1 -29 -1q-63 -2 -218 -6h-15q-8 1 -12.5 3t-7.5 6t-6 12q-3 10 -4 23t-1 20.5t1 24t1 21.5q4 84 36 170q30 82 -7 166q-25 54 -32 101q-6 40 3 114q2 12 6.5 18.5t12 10t19.5 3.5q100 2 231 4z" />
    <glyph glyph-name="F" unicode="F" horiz-adv-x="371" 
d="M185 579q-2 0 -39 3q-2 -59 19 -106q3 -8 43 -94h56q36 0 46 -1q21 -2 31 -15.5t7 -33.5q-9 -54 -58 -48q-14 2 -40.5 6.5t-33.5 5.5q-1 0 -15 1q-41 -81 -44 -87q-15 -33 -18 -83q-2 -28 -4 -99q-1 -16 -4 -20t-19 -6q-31 -4 -41 -3q-48 4 -49 51v59t4.5 57.5t14 56.5
t21.5 54q31 73 1 146q-16 42 -27 86q-2 6 -3.5 13.5t-2 14t-1 15t-0.5 14t0.5 14.5t1 13.5t1.5 14.5t1.5 14t2 14.5t1.5 14.5q3 22 27 22h39.5h46.5h40q86 0 114 1q17 0 24 -5.5t10 -22.5q5 -27 -6.5 -44t-38.5 -20q-19 -2 -108 -3z" />
    <glyph glyph-name="G" unicode="G" horiz-adv-x="451" 
d="M360 537q1 -7 12 -88q-17 -5 -18 -5q-15 -1 -53 -2q-18 -1 -25 18q-17 47 -25 66q-8 21 -15 31q-17 24 -41 23t-38 -27q-19 -34 -5 -73q10 -29 25 -58q38 -73 -1 -146q-3 -7 -14 -27t-17 -31q-21 -41 -9 -80q4 -15 12 -26q12 -15 31 -17t33 12q10 10 22 32q12 24 61 119
q1 1 12 23q-5 2 -12 4.5t-12.5 4t-10.5 3.5q-15 5 -17.5 9.5t0.5 18.5q1 8 12 64q106 10 116 11q37 1 44 -38q7 -35 -9 -64q-39 -75 -66 -180q-27 -102 -137 -116q-37 -4 -70 -1q-65 7 -98 75l-16 40q-20 49 4 102q11 24 28 53q49 83 2 164q-18 32 -23 42q-16 32 -12.5 66.5
t18.5 64t45.5 49.5t68.5 22q114 6 178 -89q14 -20 20 -49z" />
    <glyph glyph-name="H" unicode="H" horiz-adv-x="456" 
d="M174 455q3 -7 41 -88h113q-16 43 -18 46q0 1 -24 45q-22 41 -23 79q-3 90 -3 112q0 18 6 24t24 5q28 0 48 -2q14 -2 19.5 -8t5.5 -19q1 -45 -1 -76q-4 -80 39 -142q2 -4 6 -11t5 -8q41 -67 7 -139q-14 -29 -26 -49q-27 -45 -31 -107q-4 -66 -5.5 -79.5t-4 -19t-8 -8
t-18.5 -4.5q-24 -2 -39 -2q-30 1 -31 27q-1 37 -1.5 69.5t7.5 68.5t26 65q2 3 30 56q-36 2 -39 2h-32h-26q-16 0 -22.5 -14t-26.5 -49q-29 -52 -30 -114q0 -43 -5 -73q-1 -12 -4 -19t-8 -11.5t-13 -6t-20 -1.5q-14 0 -43 4q-21 2 -22 22q-1 7 -3 32t-2 36.5t1 31t5 35.5
t12 32q4 9 25 47q2 2 11 16q53 80 4 160q-10 17 -24 44q-22 45 -17 97q1 12 2.5 27t2.5 31t2 27q2 21 7.5 26t26.5 6h44q13 -1 20.5 -5t11 -11.5t3.5 -20.5q0 -25 -4 -61q-7 -70 19 -125z" />
    <glyph glyph-name="I" unicode="I" horiz-adv-x="225" 
d="M120 653q0 -6 4 -63v-32q-2 -54 30 -105q26 -42 31 -52q30 -56 8 -110q-13 -32 -26 -55q-36 -67 -32 -137q1 -3 0.5 -23.5t-0.5 -22.5q0 -23 -23 -35q-33 -17 -77 2q-2 1 -5 4t-4.5 7t-1.5 8q-1 38 -1.5 71t9 69t30.5 65q10 15 24 43q29 59 -2 116q-5 9 -11 19t-14 22
t-12 19q-23 38 -24 78q-1 44 1 99q1 17 4.5 21.5t19.5 7.5q24 4 46 5q14 1 19 -3t7 -18z" />
    <glyph glyph-name="I" unicode="&#xcf;" horiz-adv-x="225" 
d="M120 653q0 -6 4 -63v-32q-2 -54 30 -105q26 -42 31 -52q30 -56 8 -110q-13 -32 -26 -55q-36 -67 -32 -137q1 -3 0.5 -23.5t-0.5 -22.5q0 -23 -23 -35q-33 -17 -77 2q-2 1 -5 4t-4.5 7t-1.5 8q-1 38 -1.5 71t9 69t30.5 65q10 15 24 43q29 59 -2 116q-5 9 -11 19t-14 22
t-12 19q-23 38 -24 78q-1 44 1 99q1 17 4.5 21.5t19.5 7.5q24 4 46 5q14 1 19 -3t7 -18z" />
    <glyph glyph-name="I" unicode="&#xce;" horiz-adv-x="225" 
d="M120 653q0 -6 4 -63v-32q-2 -54 30 -105q26 -42 31 -52q30 -56 8 -110q-13 -32 -26 -55q-36 -67 -32 -137q1 -3 0.5 -23.5t-0.5 -22.5q0 -23 -23 -35q-33 -17 -77 2q-2 1 -5 4t-4.5 7t-1.5 8q-1 38 -1.5 71t9 69t30.5 65q10 15 24 43q29 59 -2 116q-5 9 -11 19t-14 22
t-12 19q-23 38 -24 78q-1 44 1 99q1 17 4.5 21.5t19.5 7.5q24 4 46 5q14 1 19 -3t7 -18z" />
    <glyph glyph-name="I" unicode="&#xcd;" horiz-adv-x="225" 
d="M120 653q0 -6 4 -63v-32q-2 -54 30 -105q26 -42 31 -52q30 -56 8 -110q-13 -32 -26 -55q-36 -67 -32 -137q1 -3 0.5 -23.5t-0.5 -22.5q0 -23 -23 -35q-33 -17 -77 2q-2 1 -5 4t-4.5 7t-1.5 8q-1 38 -1.5 71t9 69t30.5 65q10 15 24 43q29 59 -2 116q-5 9 -11 19t-14 22
t-12 19q-23 38 -24 78q-1 44 1 99q1 17 4.5 21.5t19.5 7.5q24 4 46 5q14 1 19 -3t7 -18z" />
    <glyph glyph-name="I" unicode="&#xcc;" horiz-adv-x="225" 
d="M120 653q0 -6 4 -63v-32q-2 -54 30 -105q26 -42 31 -52q30 -56 8 -110q-13 -32 -26 -55q-36 -67 -32 -137q1 -3 0.5 -23.5t-0.5 -22.5q0 -23 -23 -35q-33 -17 -77 2q-2 1 -5 4t-4.5 7t-1.5 8q-1 38 -1.5 71t9 69t30.5 65q10 15 24 43q29 59 -2 116q-5 9 -11 19t-14 22
t-12 19q-23 38 -24 78q-1 44 1 99q1 17 4.5 21.5t19.5 7.5q24 4 46 5q14 1 19 -3t7 -18z" />
    <glyph glyph-name="J" unicode="J" horiz-adv-x="341" 
d="M251 636v-22q-13 -68 31 -152q7 -12 25 -47q26 -52 -4 -109q-15 -28 -29 -48q-45 -61 -45 -131q0 -58 -59 -100q-16 -12 -49 -18q-21 -4 -70 -6q-15 -1 -21 4.5t-7 20.5q-1 2 -1 7q-1 38 5 46.5t34 12.5q5 1 8 2q50 8 64 55q17 60 56 118q6 8 19 33q28 51 3 108
q-7 17 -26 49q-31 51 -31 106q-1 32 1 97q0 12 4 16.5t16 5.5q25 4 48 3q10 -1 15.5 -3.5t8 -8t3.5 -15.5q1 -1 1 -24z" />
    <glyph glyph-name="K" unicode="K" horiz-adv-x="402" 
d="M152 486l9 -12q6 60 46 118q27 40 47 74q10 18 25 20q33 6 56 6t17 -24q-3 -9 -9 -20q-5 -8 -16 -26t-17 -27q-24 -41 -34 -62q-12 -24 -13 -56.5t4 -57.5q0 -3 10 -17l7.5 -10l9 -12t7.5 -11q34 -50 25 -111q-10 -65 19 -130q13 -31 27 -68q7 -17 8 -30q2 -15 -6 -25
t-22 -10q-31 1 -66 12q-12 3 -20 23q-7 17 -42 111q-22 58 -9 114q5 20 4 55q-27 -17 -46 -44q-36 -51 -39 -138q-1 -49 -6 -82q-5 -31 -33.5 -42t-53.5 8q-14 10 -15 28q-2 23 -4 102q0 14 1 29q5 42 28 80q15 23 31 52q30 56 -1 121q-10 21 -26 45q-37 56 -31 122
q3 32 6 65q1 22 21 25q42 7 55 6q40 -2 36 -44q0 -5 -1 -11.5t-2 -11.5t-2 -11.5t-2 -10.5q-8 -57 17 -112z" />
    <glyph glyph-name="L" unicode="L" horiz-adv-x="306" 
d="M146 213q-30 -58 -22 -126q87 3 97 3q20 0 41 -5q12 -2 16.5 -8t5.5 -19q1 -9 0 -19q-3 -26 -28 -33q-8 -2 -12 -2q-121 -5 -182 4q-2 0 -16 4q-24 6 -24 29q0 59 8 103.5t33 83.5l16 27q37 66 6 138q-11 26 -28 62q-26 56 -25 118q1 47 3 89q1 15 6.5 21.5t19.5 7.5
q17 2 38 -3q25 -6 25 -32v-44v-31.5t-1 -36.5q0 -48 23 -93q5 -10 15 -29.5t15 -28.5q29 -58 2 -118q-5 -10 -32 -62z" />
    <glyph glyph-name="M" unicode="M" horiz-adv-x="621" 
d="M483 312q0 1 1 13q-15 -34 -62 -84q-23 -24 -34 -37q-36 -43 -49 -100q-10 -44 -20 -77q-5 -16 -11.5 -20.5t-23.5 -2.5q-16 1 -27 3q-21 5 -26 25q-1 6 -19 78q-14 53 6 107q12 36 17 58q9 41 -17 76q4 -56 -44 -126q-39 -56 -37 -128q1 -34 -3 -70q-2 -19 -8.5 -24.5
t-24.5 -4.5q-20 1 -60 5q-18 1 -17 19q1 16 2 55.5t2 60.5q2 35 23 74q19 35 32 65q24 53 -4 108q-11 21 -20 36q-42 63 -36 145q5 78 6 95q1 12 6.5 17t19.5 4q22 0 65 -6q2 0 39 -8q23 -97 24 -104q14 -78 72 -135q18 -19 44 -48q56 -65 25 -135q-3 -5 -1 -10q51 53 61 94
q7 25 -6 57q-9 21 -22 41q-34 53 -20 118q3 19 11.5 54.5t11.5 52.5q5 19 23 21q12 2 34.5 6t27.5 5q9 1 19 1q28 -1 36.5 -11t6.5 -37q-1 -13 -2.5 -38t-2.5 -37q-5 -63 35 -116q5 -7 15.5 -20t15.5 -21q32 -43 32 -79.5t-33 -79.5q-20 -26 -34 -47q-23 -36 -23 -81
q0 -3 0.5 -20t0.5 -23.5v-19v-22.5q-1 -22 -8.5 -29t-28.5 -7q-20 1 -52 9q-24 7 -26 30q-7 38 -3 84t26 81q7 11 30 44q29 40 35 66z" />
    <glyph glyph-name="N" unicode="N" horiz-adv-x="440" 
d="M262 436q29 -48 37 -105q18 46 5 110q-5 25 -17 68q-22 72 0 177q5 22 14 26.5t30 -1.5q7 -2 19.5 -6t17.5 -6q13 -3 19 -7.5t8.5 -11.5t2.5 -20q0 -6 -0.5 -49t0.5 -48q2 -32 11 -75q23 -100 -12 -190q-24 -61 -26 -148q-2 -57 -6 -107q-1 -15 -4.5 -22t-10.5 -10
t-22 -3q-10 -1 -22 0q-32 1 -41 29q-43 136 -56 186q-2 5 -3 11.5t-1.5 12.5t-0.5 13v12.5t0.5 13t0.5 12.5q-1 55 -18 97q-1 0 -9 15v-34q2 -36 -24 -104q-20 -52 -22 -116q-2 -45 -5 -107q-1 -9 -3 -19q-3 -11 -6.5 -16.5t-9.5 -8t-18 -1.5q-20 0 -45 5q-21 4 -21 25
q-1 46 -1.5 85.5t6 84t21.5 82.5q35 89 0 190q-26 79 -25 190v9q2 20 10.5 28t28.5 9q35 3 53 -8t32 -43q11 -24 22 -59q20 -62 56 -113q16 -22 35 -53z" />
    <glyph glyph-name="N" unicode="&#xd1;" horiz-adv-x="440" 
d="M262 436q29 -48 37 -105q18 46 5 110q-5 25 -17 68q-22 72 0 177q5 22 14 26.5t30 -1.5q7 -2 19.5 -6t17.5 -6q13 -3 19 -7.5t8.5 -11.5t2.5 -20q0 -6 -0.5 -49t0.5 -48q2 -32 11 -75q23 -100 -12 -190q-24 -61 -26 -148q-2 -57 -6 -107q-1 -15 -4.5 -22t-10.5 -10
t-22 -3q-10 -1 -22 0q-32 1 -41 29q-43 136 -56 186q-2 5 -3 11.5t-1.5 12.5t-0.5 13v12.5t0.5 13t0.5 12.5q-1 55 -18 97q-1 0 -9 15v-34q2 -36 -24 -104q-20 -52 -22 -116q-2 -45 -5 -107q-1 -9 -3 -19q-3 -11 -6.5 -16.5t-9.5 -8t-18 -1.5q-20 0 -45 5q-21 4 -21 25
q-1 46 -1.5 85.5t6 84t21.5 82.5q35 89 0 190q-26 79 -25 190v9q2 20 10.5 28t28.5 9q35 3 53 -8t32 -43q11 -24 22 -59q20 -62 56 -113q16 -22 35 -53z" />
    <glyph glyph-name="O" unicode="O" horiz-adv-x="410" 
d="M40 299q1 7 6.5 27.5t8 30.5t5.5 26.5t3 30.5q-13 87 -14 93q-11 60 5 105q13 36 43 55q48 31 94 36q28 4 55 -4q78 -25 98 -85q33 -102 43 -192q5 -49 -18 -107q-25 -64 -30 -142q-3 -55 -33.5 -93t-85.5 -56q-24 -8 -45 -3q-66 17 -107 59q-54 56 -45 139q4 30 17 80z
M156 294q-2 -10 -4.5 -21.5t-4 -21t-3 -22.5t-3.5 -22q10 -54 12 -59q4 -21 26 -22q20 -1 28 18q5 12 9 28q5 18 11.5 45.5t12.5 52.5t11 46q17 67 11 122q-4 35 -31 125q-1 4 -16 24q-7 9 -22 6q-26 -5 -29 -35q-2 -31 2 -58q18 -112 -10 -206z" />
    <glyph glyph-name="O" unicode="&#xd8;" horiz-adv-x="410" 
d="M40 299q1 7 6.5 27.5t8 30.5t5.5 26.5t3 30.5q-13 87 -14 93q-11 60 5 105q13 36 43 55q48 31 94 36q28 4 55 -4q78 -25 98 -85q33 -102 43 -192q5 -49 -18 -107q-25 -64 -30 -142q-3 -55 -33.5 -93t-85.5 -56q-24 -8 -45 -3q-66 17 -107 59q-54 56 -45 139q4 30 17 80z
M156 294q-2 -10 -4.5 -21.5t-4 -21t-3 -22.5t-3.5 -22q10 -54 12 -59q4 -21 26 -22q20 -1 28 18q5 12 9 28q5 18 11.5 45.5t12.5 52.5t11 46q17 67 11 122q-4 35 -31 125q-1 4 -16 24q-7 9 -22 6q-26 -5 -29 -35q-2 -31 2 -58q18 -112 -10 -206z" />
    <glyph glyph-name="O" unicode="&#xd6;" horiz-adv-x="410" 
d="M40 299q1 7 6.5 27.5t8 30.5t5.5 26.5t3 30.5q-13 87 -14 93q-11 60 5 105q13 36 43 55q48 31 94 36q28 4 55 -4q78 -25 98 -85q33 -102 43 -192q5 -49 -18 -107q-25 -64 -30 -142q-3 -55 -33.5 -93t-85.5 -56q-24 -8 -45 -3q-66 17 -107 59q-54 56 -45 139q4 30 17 80z
M156 294q-2 -10 -4.5 -21.5t-4 -21t-3 -22.5t-3.5 -22q10 -54 12 -59q4 -21 26 -22q20 -1 28 18q5 12 9 28q5 18 11.5 45.5t12.5 52.5t11 46q17 67 11 122q-4 35 -31 125q-1 4 -16 24q-7 9 -22 6q-26 -5 -29 -35q-2 -31 2 -58q18 -112 -10 -206z" />
    <glyph glyph-name="O" unicode="&#xd5;" horiz-adv-x="410" 
d="M40 299q1 7 6.5 27.5t8 30.5t5.5 26.5t3 30.5q-13 87 -14 93q-11 60 5 105q13 36 43 55q48 31 94 36q28 4 55 -4q78 -25 98 -85q33 -102 43 -192q5 -49 -18 -107q-25 -64 -30 -142q-3 -55 -33.5 -93t-85.5 -56q-24 -8 -45 -3q-66 17 -107 59q-54 56 -45 139q4 30 17 80z
M156 294q-2 -10 -4.5 -21.5t-4 -21t-3 -22.5t-3.5 -22q10 -54 12 -59q4 -21 26 -22q20 -1 28 18q5 12 9 28q5 18 11.5 45.5t12.5 52.5t11 46q17 67 11 122q-4 35 -31 125q-1 4 -16 24q-7 9 -22 6q-26 -5 -29 -35q-2 -31 2 -58q18 -112 -10 -206z" />
    <glyph glyph-name="O" unicode="&#xd4;" horiz-adv-x="410" 
d="M40 299q1 7 6.5 27.5t8 30.5t5.5 26.5t3 30.5q-13 87 -14 93q-11 60 5 105q13 36 43 55q48 31 94 36q28 4 55 -4q78 -25 98 -85q33 -102 43 -192q5 -49 -18 -107q-25 -64 -30 -142q-3 -55 -33.5 -93t-85.5 -56q-24 -8 -45 -3q-66 17 -107 59q-54 56 -45 139q4 30 17 80z
M156 294q-2 -10 -4.5 -21.5t-4 -21t-3 -22.5t-3.5 -22q10 -54 12 -59q4 -21 26 -22q20 -1 28 18q5 12 9 28q5 18 11.5 45.5t12.5 52.5t11 46q17 67 11 122q-4 35 -31 125q-1 4 -16 24q-7 9 -22 6q-26 -5 -29 -35q-2 -31 2 -58q18 -112 -10 -206z" />
    <glyph glyph-name="O" unicode="&#xd3;" horiz-adv-x="410" 
d="M40 299q1 7 6.5 27.5t8 30.5t5.5 26.5t3 30.5q-13 87 -14 93q-11 60 5 105q13 36 43 55q48 31 94 36q28 4 55 -4q78 -25 98 -85q33 -102 43 -192q5 -49 -18 -107q-25 -64 -30 -142q-3 -55 -33.5 -93t-85.5 -56q-24 -8 -45 -3q-66 17 -107 59q-54 56 -45 139q4 30 17 80z
M156 294q-2 -10 -4.5 -21.5t-4 -21t-3 -22.5t-3.5 -22q10 -54 12 -59q4 -21 26 -22q20 -1 28 18q5 12 9 28q5 18 11.5 45.5t12.5 52.5t11 46q17 67 11 122q-4 35 -31 125q-1 4 -16 24q-7 9 -22 6q-26 -5 -29 -35q-2 -31 2 -58q18 -112 -10 -206z" />
    <glyph glyph-name="O" unicode="&#xd2;" horiz-adv-x="410" 
d="M40 299q1 7 6.5 27.5t8 30.5t5.5 26.5t3 30.5q-13 87 -14 93q-11 60 5 105q13 36 43 55q48 31 94 36q28 4 55 -4q78 -25 98 -85q33 -102 43 -192q5 -49 -18 -107q-25 -64 -30 -142q-3 -55 -33.5 -93t-85.5 -56q-24 -8 -45 -3q-66 17 -107 59q-54 56 -45 139q4 30 17 80z
M156 294q-2 -10 -4.5 -21.5t-4 -21t-3 -22.5t-3.5 -22q10 -54 12 -59q4 -21 26 -22q20 -1 28 18q5 12 9 28q5 18 11.5 45.5t12.5 52.5t11 46q17 67 11 122q-4 35 -31 125q-1 4 -16 24q-7 9 -22 6q-26 -5 -29 -35q-2 -31 2 -58q18 -112 -10 -206z" />
    <glyph glyph-name="P" unicode="P" horiz-adv-x="402" 
d="M162 267q-1 0 -17 3q-10 -28 -11 -66v-61v-73q-1 -20 -6 -48q-5 -22 -28 -21q-33 1 -63 3q-10 1 -12.5 4.5t-2.5 14.5q3 147 4 158q3 68 13 98q30 96 4 204q-21 88 -17 163q1 19 5 44q1 14 4.5 17.5t17.5 3.5q59 1 131 -2q48 -2 95 -33q55 -36 70 -93q23 -94 29 -128
q12 -70 -40 -127q-66 -73 -176 -61zM135 606q0 -38 16 -109t15 -107q30 -5 31 -5q44 1 57.5 14t15.5 53q1 15 -2 36q-2 9 -5.5 26.5t-4.5 26.5q-6 41 -45 52q-5 1 -78 13z" />
    <glyph glyph-name="Q" unicode="Q" horiz-adv-x="425" 
d="M326 127q-1 -3 -11 -49q35 -14 38 -15q16 -6 19.5 -12t-0.5 -22q-6 -21 -12 -35q-5 -12 -12 -15.5t-20 -1.5q-42 7 -60 36q-101 -41 -202 52q-57 54 -40 149q1 9 4 19t6.5 22.5t5.5 19.5q12 50 16 66q11 49 -9 129q-14 57 -5 101q25 119 125 139q32 5 62 1.5t56 -22.5
t39 -52q6 -16 18 -52q5 -13 12.5 -37.5t14 -44t13.5 -36.5q43 -100 -12 -198q-25 -46 -46 -142zM147 295q-5 -11 -8 -24.5t-6.5 -31t-5.5 -26.5q4 -41 17 -66q0 -1 1 -2q4 -9 6.5 -13.5t8.5 -9.5t13 -5q12 0 18.5 7.5t13.5 22.5q50 106 68 141q41 79 6 162q-27 64 -40 104
q-11 34 -52 39q-21 3 -27 -15q-9 -24 -9 -37q1 -50 8 -77q21 -92 -12 -169z" />
    <glyph glyph-name="R" unicode="R" horiz-adv-x="431" 
d="M246 147q-22 67 -9 131q-7 1 -15 1.5t-14 1t-13.5 1.5t-13.5 1q-35 -53 -38 -117q0 -13 -1 -36t-1 -32q-2 -50 -15 -81q-6 -14 -12 -17.5t-20 -1.5q-5 1 -72 14q1 34 0.5 61.5t0.5 60.5t6 59q3 16 22 64q2 6 5 13t5.5 12t5.5 12t5 12q25 65 -2 128q-20 48 -26 63
q-12 34 -13 77.5t4 78.5q0 3 0.5 9t1.5 8q1 19 6 24t23 9q95 22 192 -9q69 -22 91 -86q53 -152 55 -156q22 -70 -34 -110q-36 -26 -39 -72q-4 -53 11 -118l28 -118q2 -5 2 -9q3 -20 -2.5 -26t-25.5 -6q-31 1 -43 2q-17 2 -22.5 7t-8.5 21q-3 13 -23 114q0 1 -0.5 4.5
t-0.5 5.5zM204 607q-3 0 -50 4q-4 -6 -4 -7q-6 -52 2 -77q3 -12 47 -135q30 3 33 3q36 4 46 18.5t-1 56.5q-8 24 -26 93q-10 38 -47 44z" />
    <glyph glyph-name="S" unicode="S" horiz-adv-x="396" 
d="M123 193q19 -50 21 -54q6 -12 24 -24q21 -13 40.5 -9t33.5 24q18 25 19 61q4 99 -60 158q-49 47 -96 93q-33 32 -44 45q-31 40 -30 81.5t34 79.5q41 47 93 63q30 11 60 7.5t56 -16t46 -36t29 -52.5q8 -25 11 -47q2 -12 -1.5 -17.5t-16.5 -7.5q-21 -3 -62 -7
q-20 -1 -29 18q-12 26 -18 37q-22 37 -51 30q-14 -3 -23 -16.5t-10 -33.5q-5 -74 72 -122q56 -36 97 -64q65 -45 54 -129q-13 -105 -36 -156q-33 -78 -99 -95q-83 -22 -153 40q-58 52 -62 117q0 11 1 19q3 17 18 17q17 0 82 -4z" />
    <glyph glyph-name="T" unicode="T" horiz-adv-x="391" 
d="M151 559q-1 0 -5 30q-43 4 -49 4q-4 0 -21.5 1.5t-26.5 2.5q-13 1 -19 6t-7 18q-2 35 1 62q3 30 35 30q13 0 36.5 -2t33.5 -2q20 -1 71.5 -2.5t78.5 -2.5q37 -2 63 -8q12 -3 17.5 -6.5t7.5 -10t2 -19.5q0 -28 -1 -39q-3 -19 -11 -26t-28 -8q-5 -1 -76 -4q-1 -32 15 -69
q5 -10 15.5 -29.5t12.5 -24.5q9 -17 14 -30q19 -47 1 -93q-10 -25 -25 -52q-37 -66 -35 -137q1 -11 1 -107v-17q-5 -25 -29 -24q-19 1 -50 5q-19 3 -19 22q-1 15 -2.5 44.5t-2.5 47.5t0.5 43t5.5 46q2 10 6 22t7.5 19.5t10 22t9.5 19.5q22 51 24 73q5 50 -26 102
q-28 48 -35 93z" />
    <glyph glyph-name="U" unicode="U" horiz-adv-x="459" 
d="M267 628q1 4 5 75h105q0 -53 -1 -56q-10 -89 30 -157q9 -16 20 -42q22 -51 2 -99q-16 -42 -22 -53q-26 -47 -38 -123q-5 -29 -19 -72q-24 -72 -116 -92q-51 -11 -97.5 11t-70.5 71q-11 23 -22 54q-16 46 1 91q6 16 23 50q4 8 11.5 22t9.5 17q35 65 -2 127q-21 35 -30 47
q-45 69 -30 168q3 20 10 26t27 6h44q11 0 15.5 -2t6 -6.5t1.5 -15.5q0 -6 1 -56q1 -68 35 -122q15 -23 29 -53q23 -50 1 -97q-10 -20 -29 -56q-28 -50 -30 -76q-2 -31 4 -55q9 -36 54 -42q25 -4 39 19q9 16 14 31q19 70 64 144q7 12 15 30q26 56 -1 107q-14 30 -22 41
q-43 68 -37 138z" />
    <glyph glyph-name="U" unicode="&#xdc;" horiz-adv-x="459" 
d="M267 628q1 4 5 75h105q0 -53 -1 -56q-10 -89 30 -157q9 -16 20 -42q22 -51 2 -99q-16 -42 -22 -53q-26 -47 -38 -123q-5 -29 -19 -72q-24 -72 -116 -92q-51 -11 -97.5 11t-70.5 71q-11 23 -22 54q-16 46 1 91q6 16 23 50q4 8 11.5 22t9.5 17q35 65 -2 127q-21 35 -30 47
q-45 69 -30 168q3 20 10 26t27 6h44q11 0 15.5 -2t6 -6.5t1.5 -15.5q0 -6 1 -56q1 -68 35 -122q15 -23 29 -53q23 -50 1 -97q-10 -20 -29 -56q-28 -50 -30 -76q-2 -31 4 -55q9 -36 54 -42q25 -4 39 19q9 16 14 31q19 70 64 144q7 12 15 30q26 56 -1 107q-14 30 -22 41
q-43 68 -37 138z" />
    <glyph glyph-name="U" unicode="&#xdb;" horiz-adv-x="459" 
d="M267 628q1 4 5 75h105q0 -53 -1 -56q-10 -89 30 -157q9 -16 20 -42q22 -51 2 -99q-16 -42 -22 -53q-26 -47 -38 -123q-5 -29 -19 -72q-24 -72 -116 -92q-51 -11 -97.5 11t-70.5 71q-11 23 -22 54q-16 46 1 91q6 16 23 50q4 8 11.5 22t9.5 17q35 65 -2 127q-21 35 -30 47
q-45 69 -30 168q3 20 10 26t27 6h44q11 0 15.5 -2t6 -6.5t1.5 -15.5q0 -6 1 -56q1 -68 35 -122q15 -23 29 -53q23 -50 1 -97q-10 -20 -29 -56q-28 -50 -30 -76q-2 -31 4 -55q9 -36 54 -42q25 -4 39 19q9 16 14 31q19 70 64 144q7 12 15 30q26 56 -1 107q-14 30 -22 41
q-43 68 -37 138z" />
    <glyph glyph-name="U" unicode="&#xda;" horiz-adv-x="459" 
d="M267 628q1 4 5 75h105q0 -53 -1 -56q-10 -89 30 -157q9 -16 20 -42q22 -51 2 -99q-16 -42 -22 -53q-26 -47 -38 -123q-5 -29 -19 -72q-24 -72 -116 -92q-51 -11 -97.5 11t-70.5 71q-11 23 -22 54q-16 46 1 91q6 16 23 50q4 8 11.5 22t9.5 17q35 65 -2 127q-21 35 -30 47
q-45 69 -30 168q3 20 10 26t27 6h44q11 0 15.5 -2t6 -6.5t1.5 -15.5q0 -6 1 -56q1 -68 35 -122q15 -23 29 -53q23 -50 1 -97q-10 -20 -29 -56q-28 -50 -30 -76q-2 -31 4 -55q9 -36 54 -42q25 -4 39 19q9 16 14 31q19 70 64 144q7 12 15 30q26 56 -1 107q-14 30 -22 41
q-43 68 -37 138z" />
    <glyph glyph-name="U" unicode="&#xd9;" horiz-adv-x="459" 
d="M267 628q1 4 5 75h105q0 -53 -1 -56q-10 -89 30 -157q9 -16 20 -42q22 -51 2 -99q-16 -42 -22 -53q-26 -47 -38 -123q-5 -29 -19 -72q-24 -72 -116 -92q-51 -11 -97.5 11t-70.5 71q-11 23 -22 54q-16 46 1 91q6 16 23 50q4 8 11.5 22t9.5 17q35 65 -2 127q-21 35 -30 47
q-45 69 -30 168q3 20 10 26t27 6h44q11 0 15.5 -2t6 -6.5t1.5 -15.5q0 -6 1 -56q1 -68 35 -122q15 -23 29 -53q23 -50 1 -97q-10 -20 -29 -56q-28 -50 -30 -76q-2 -31 4 -55q9 -36 54 -42q25 -4 39 19q9 16 14 31q19 70 64 144q7 12 15 30q26 56 -1 107q-14 30 -22 41
q-43 68 -37 138z" />
    <glyph glyph-name="V" unicode="V" horiz-adv-x="450" 
d="M279 630q1 7 2.5 18t2.5 19t4 18.5t8 18.5q79 -3 86 -3q17 -1 21 -5.5t3 -21.5q-1 -26 -5 -53q-8 -49 8 -103q12 -42 15 -54q12 -54 -13 -102q-17 -32 -34 -58q-37 -54 -51 -122q-23 -113 -31 -155q-4 -18 -20 -18q-79 -3 -132 4q-24 85 -26 94q-6 26 -16 73
q-14 64 6 117q33 90 -21 172q-4 6 -11.5 18.5t-11.5 18.5q-46 69 -40 176q0 5 2 15l4 6q33 -4 46 -6q2 0 12 -1t15 -2q15 -2 18.5 -5t5.5 -18q3 -17 4 -31q3 -81 48 -143q15 -21 32 -54q26 -49 15 -109q-2 -9 -7 -29.5t-7 -32.5q0 -2 -4 -47q1 0 2.5 -0.5t1.5 -1.5
q8 13 26 40t31 48t24 40q30 53 11 116q-2 5 -16 48q-21 59 -8 115z" />
    <glyph glyph-name="W" unicode="W" horiz-adv-x="602" 
d="M328 305l3 11q-49 -51 -62 -149q-7 -54 -21 -120q-5 -25 -13.5 -31.5t-34.5 -6.5q-13 -1 -43 3q-14 1 -17 4t-6 17q-2 8 -13 65q-17 83 -18 88q-12 54 8 112q10 28 18 63q13 48 -12 89q-21 36 -30 49q-51 71 -57 151q0 2 -8 45l15 4h43h42q17 0 20 -14q9 -40 9 -50
q3 -80 47 -133q37 -45 49 -88q0 -1 6 -7q5 23 -5 59q-4 18 -15 46q-28 74 6 176q6 19 27 19q8 -1 24 0t19 1q13 0 17 -3t7 -15t9 -35.5t9 -34.5q13 -47 41 -88q3 -4 15.5 -22t17 -25t13.5 -21.5t14.5 -27t9.5 -25.5q6 18 -1 50q-5 26 -14 54q-12 39 -8 82q4 53 7 82
q1 17 6.5 22t21.5 6q31 1 54 2q16 0 23.5 -7t8.5 -23q1 -17 -2 -29q-18 -75 9 -157q22 -67 6 -115q-5 -12 -35 -72q-4 -9 -11.5 -22.5t-12.5 -23t-11 -22t-10 -23.5q-5 -17 -9.5 -36t-8.5 -43t-7 -37q-1 -2 -15 -61q-5 -22 -29 -24q-8 -1 -18.5 -1.5l-21 -1t-18.5 -1.5
q-13 -1 -17 15q-11 35 -16 61l-4.5 22.5t-4 22.5t-3.5 22.5t-4 22.5q-15 70 11 129z" />
    <glyph glyph-name="X" unicode="X" horiz-adv-x="448" 
d="M29 690v17h94q15 -1 22 -17q11 -26 15 -44q18 -68 50 -120q8 -14 19 -25q1 34 9.5 64.5t30 78.5t25.5 59h47q38 -1 51 -2q23 -2 16 -23q-5 -17 -17 -40q-47 -90 -53 -175q-1 -12 -4 -25.5t-7.5 -29.5t-6.5 -25q-3 -14 -3 -19q3 -14 11 -51.5t11 -57.5q8 -44 31 -94
q8 -18 50 -116q3 -6 5 -14q3 -11 -1.5 -18t-14.5 -7q-47 1 -109 8q-8 1 -14 15q-8 20 -22 61q-6 16 -50 143q-8 -13 -9 -14q-17 -48 -29 -85q-4 -11 -15 -46.5t-18 -54.5t-12 -22t-25 -3q-6 0 -27.5 0.5t-33.5 0.5q-18 1 -21.5 6.5t2.5 22.5q8 22 18 45q6 13 21.5 51.5
t28 64t28.5 48.5q32 45 60 76q30 35 8 71q-5 8 -16.5 28t-20.5 33.5t-20 25.5q-35 42 -58 91t-46 118z" />
    <glyph glyph-name="Y" unicode="Y" horiz-adv-x="418" 
d="M214 515l8 -12q4 33 15.5 66.5t29.5 75t25 60.5q75 4 82 4q14 1 18.5 -4t3.5 -19q-2 -11 -7 -25q-5 -13 -15 -38.5t-15 -38.5q-28 -73 -18 -124q4 -17 3.5 -36t-1.5 -31t-8.5 -36t-9.5 -30t-12 -34q-4 -12 -23 -48q-28 -52 -26 -107q2 -64 1 -109q0 -20 -7 -26t-27 -4
q-1 0 -53 4q-21 2 -26.5 7.5t-5.5 24.5q1 18 1 39v39t2 38.5t6 38.5q4 17 16 47t14 37q7 19 16 56q6 20 -8 41q-41 62 -49 72q-39 47 -65.5 101.5t-53.5 130.5q-5 15 -1 21t20 8q3 0 25.5 2t34.5 3q24 2 34 -19q18 -38 36 -79q6 -14 13 -30.5t14.5 -35t12.5 -30.5z" />
    <glyph glyph-name="Y" unicode="&#xdd;" horiz-adv-x="418" 
d="M214 515l8 -12q4 33 15.5 66.5t29.5 75t25 60.5q75 4 82 4q14 1 18.5 -4t3.5 -19q-2 -11 -7 -25q-5 -13 -15 -38.5t-15 -38.5q-28 -73 -18 -124q4 -17 3.5 -36t-1.5 -31t-8.5 -36t-9.5 -30t-12 -34q-4 -12 -23 -48q-28 -52 -26 -107q2 -64 1 -109q0 -20 -7 -26t-27 -4
q-1 0 -53 4q-21 2 -26.5 7.5t-5.5 24.5q1 18 1 39v39t2 38.5t6 38.5q4 17 16 47t14 37q7 19 16 56q6 20 -8 41q-41 62 -49 72q-39 47 -65.5 101.5t-53.5 130.5q-5 15 -1 21t20 8q3 0 25.5 2t34.5 3q24 2 34 -19q18 -38 36 -79q6 -14 13 -30.5t14.5 -35t12.5 -30.5z" />
    <glyph glyph-name="Z" unicode="Z" horiz-adv-x="351" 
d="M218 583l4 13h-158q-2 0 -6 -0.5t-6 -0.5q-16 0 -22 5t-7 22q-1 7 0 72q0 15 17 16q3 0 7 0.5t8 0.5h7q76 3 231 8h17q16 0 16 -17v-123q0 -6 -6 -26q-13 -45 -11 -94q0 -3 1 -29q1 -66 -33 -115q-11 -15 -31.5 -40.5t-28.5 -35.5q-27 -36 -64 -91q-1 -1 -11 -25
q106 2 128 3q11 0 36 -1q19 0 21 -19q2 -49 2 -66q0 -11 -3.5 -15.5t-16.5 -5.5q-58 -6 -87 -7q-83 -1 -145 2q-22 1 -32 2.5t-16 5t-5.5 9t-0.5 15.5t-1 24q-4 62 48 126q8 10 23.5 27t21.5 24q38 44 50 59q44 59 33 128q-14 83 20 149z" />
    <glyph glyph-name="backslash" unicode="\" horiz-adv-x="366" 
d="M100 669h12l21 -58q21 -57 75 -202q69 -184 78 -207q29 -78 51 -128q12 -26 5.5 -42t-32.5 -26q-22 -9 -33.5 -5t-21.5 25q-7 15 -47 109q-23 53 -28 67q-7 18 -23.5 65t-26.5 72q-11 26 -32.5 78.5t-31.5 78.5q-7 17 -42 116q-6 17 5 22q22 11 71 35z" />
    <glyph glyph-name="underscore" unicode="_" horiz-adv-x="528" 
d="M504 57q2 -17 2 -22q1 -28 -24 -37q-21 -7 -45 -10q-103 -13 -188 -22q-8 -1 -126 -11v1v2h-63q-7 0 -19 4q-13 4 -16.5 8t-2.5 17q1 17 7 43q5 20 25 23q3 0 22 2q223 16 242 17q17 2 57 5.5t62 5.5q11 1 46 -3q19 -2 21 -23z" />
    <glyph glyph-name="a" unicode="a" horiz-adv-x="398" 
d="M278 25q-3 11 -28 123q-90 -6 -99 -6q-16 -1 -20 -21q-5 -28 -18 -92q-2 -11 -6 -22q-7 -22 -28 -23q-18 -2 -35 -1q-14 1 -18.5 5.5t-3.5 18.5q5 64 10 92q12 59 31 124q29 98 30 184q1 65 19 127q10 32 23 89q5 22 26 24q7 0 33.5 3t41.5 3q20 1 28 -6.5t10 -28.5
q11 -102 54 -201q45 -104 30 -202q-9 -53 9 -151q6 -29 8 -54q2 -13 -1.5 -17t-16.5 -5q-3 0 -8.5 -0.5t-10 -1t-8.5 -0.5q-43 -2 -52 39zM253 345q-3 11 -45 128q-2 0 -5 -1q-2 -39 -1 -40q8 -97 -30 -190l-2 -15q10 2 23 4.5t22.5 4.5t22 4t21.5 4q5 67 -6 101z" />
    <glyph glyph-name="a" unicode="&#xe5;" horiz-adv-x="398" 
d="M278 25q-3 11 -28 123q-90 -6 -99 -6q-16 -1 -20 -21q-5 -28 -18 -92q-2 -11 -6 -22q-7 -22 -28 -23q-18 -2 -35 -1q-14 1 -18.5 5.5t-3.5 18.5q5 64 10 92q12 59 31 124q29 98 30 184q1 65 19 127q10 32 23 89q5 22 26 24q7 0 33.5 3t41.5 3q20 1 28 -6.5t10 -28.5
q11 -102 54 -201q45 -104 30 -202q-9 -53 9 -151q6 -29 8 -54q2 -13 -1.5 -17t-16.5 -5q-3 0 -8.5 -0.5t-10 -1t-8.5 -0.5q-43 -2 -52 39zM253 345q-3 11 -45 128q-2 0 -5 -1q-2 -39 -1 -40q8 -97 -30 -190l-2 -15q10 2 23 4.5t22.5 4.5t22 4t21.5 4q5 67 -6 101z" />
    <glyph glyph-name="a" unicode="&#xe4;" horiz-adv-x="398" 
d="M278 25q-3 11 -28 123q-90 -6 -99 -6q-16 -1 -20 -21q-5 -28 -18 -92q-2 -11 -6 -22q-7 -22 -28 -23q-18 -2 -35 -1q-14 1 -18.5 5.5t-3.5 18.5q5 64 10 92q12 59 31 124q29 98 30 184q1 65 19 127q10 32 23 89q5 22 26 24q7 0 33.5 3t41.5 3q20 1 28 -6.5t10 -28.5
q11 -102 54 -201q45 -104 30 -202q-9 -53 9 -151q6 -29 8 -54q2 -13 -1.5 -17t-16.5 -5q-3 0 -8.5 -0.5t-10 -1t-8.5 -0.5q-43 -2 -52 39zM253 345q-3 11 -45 128q-2 0 -5 -1q-2 -39 -1 -40q8 -97 -30 -190l-2 -15q10 2 23 4.5t22.5 4.5t22 4t21.5 4q5 67 -6 101z" />
    <glyph glyph-name="a" unicode="&#xe3;" horiz-adv-x="398" 
d="M278 25q-3 11 -28 123q-90 -6 -99 -6q-16 -1 -20 -21q-5 -28 -18 -92q-2 -11 -6 -22q-7 -22 -28 -23q-18 -2 -35 -1q-14 1 -18.5 5.5t-3.5 18.5q5 64 10 92q12 59 31 124q29 98 30 184q1 65 19 127q10 32 23 89q5 22 26 24q7 0 33.5 3t41.5 3q20 1 28 -6.5t10 -28.5
q11 -102 54 -201q45 -104 30 -202q-9 -53 9 -151q6 -29 8 -54q2 -13 -1.5 -17t-16.5 -5q-3 0 -8.5 -0.5t-10 -1t-8.5 -0.5q-43 -2 -52 39zM253 345q-3 11 -45 128q-2 0 -5 -1q-2 -39 -1 -40q8 -97 -30 -190l-2 -15q10 2 23 4.5t22.5 4.5t22 4t21.5 4q5 67 -6 101z" />
    <glyph glyph-name="a" unicode="&#xe2;" horiz-adv-x="398" 
d="M278 25q-3 11 -28 123q-90 -6 -99 -6q-16 -1 -20 -21q-5 -28 -18 -92q-2 -11 -6 -22q-7 -22 -28 -23q-18 -2 -35 -1q-14 1 -18.5 5.5t-3.5 18.5q5 64 10 92q12 59 31 124q29 98 30 184q1 65 19 127q10 32 23 89q5 22 26 24q7 0 33.5 3t41.5 3q20 1 28 -6.5t10 -28.5
q11 -102 54 -201q45 -104 30 -202q-9 -53 9 -151q6 -29 8 -54q2 -13 -1.5 -17t-16.5 -5q-3 0 -8.5 -0.5t-10 -1t-8.5 -0.5q-43 -2 -52 39zM253 345q-3 11 -45 128q-2 0 -5 -1q-2 -39 -1 -40q8 -97 -30 -190l-2 -15q10 2 23 4.5t22.5 4.5t22 4t21.5 4q5 67 -6 101z" />
    <glyph glyph-name="a" unicode="&#xe1;" horiz-adv-x="398" 
d="M278 25q-3 11 -28 123q-90 -6 -99 -6q-16 -1 -20 -21q-5 -28 -18 -92q-2 -11 -6 -22q-7 -22 -28 -23q-18 -2 -35 -1q-14 1 -18.5 5.5t-3.5 18.5q5 64 10 92q12 59 31 124q29 98 30 184q1 65 19 127q10 32 23 89q5 22 26 24q7 0 33.5 3t41.5 3q20 1 28 -6.5t10 -28.5
q11 -102 54 -201q45 -104 30 -202q-9 -53 9 -151q6 -29 8 -54q2 -13 -1.5 -17t-16.5 -5q-3 0 -8.5 -0.5t-10 -1t-8.5 -0.5q-43 -2 -52 39zM253 345q-3 11 -45 128q-2 0 -5 -1q-2 -39 -1 -40q8 -97 -30 -190l-2 -15q10 2 23 4.5t22.5 4.5t22 4t21.5 4q5 67 -6 101z" />
    <glyph glyph-name="a" unicode="&#xe0;" horiz-adv-x="398" 
d="M278 25q-3 11 -28 123q-90 -6 -99 -6q-16 -1 -20 -21q-5 -28 -18 -92q-2 -11 -6 -22q-7 -22 -28 -23q-18 -2 -35 -1q-14 1 -18.5 5.5t-3.5 18.5q5 64 10 92q12 59 31 124q29 98 30 184q1 65 19 127q10 32 23 89q5 22 26 24q7 0 33.5 3t41.5 3q20 1 28 -6.5t10 -28.5
q11 -102 54 -201q45 -104 30 -202q-9 -53 9 -151q6 -29 8 -54q2 -13 -1.5 -17t-16.5 -5q-3 0 -8.5 -0.5t-10 -1t-8.5 -0.5q-43 -2 -52 39zM253 345q-3 11 -45 128q-2 0 -5 -1q-2 -39 -1 -40q8 -97 -30 -190l-2 -15q10 2 23 4.5t22.5 4.5t22 4t21.5 4q5 67 -6 101z" />
    <glyph glyph-name="b" unicode="b" horiz-adv-x="404" 
d="M340 364q-2 -2 -32 -23q38 -27 40 -29q41 -29 32 -80q-14 -83 -54 -148q-42 -70 -119 -77q-107 -11 -112 -11q-8 -1 -43 5q-21 4 -24 27q-7 49 -6 108.5t15 108.5q23 82 3 159q-20 82 -9 169q2 11 3 30.5t2 26.5q1 12 4.5 15.5t14.5 4.5q98 8 160 -10q8 -2 11 -3
q75 -16 105 -103q6 -16 11 -34.5t10 -41.5t8 -35q10 -35 -20 -59zM211 292h-34q-23 -62 -28.5 -120t8.5 -90q40 14 42 15q33 18 53.5 62t13.5 82q-2 13 -10 24t-19.5 18t-25.5 9zM237 446q11 46 -15.5 78t-83.5 42q-8 -75 20 -153q3 -9 12 -11q22 -4 41.5 9t25.5 35z" />
    <glyph glyph-name="c" unicode="c" horiz-adv-x="365" 
d="M134 473h-1q10 -62 11 -65q17 -84 -3 -155q-11 -38 -15 -72q-1 -9 3 -46q1 -6 6 -14q14 -26 33 -25q19 0 29 23q29 69 35 88q9 30 42 31q13 0 46 -1q13 0 16.5 -4t0.5 -16q-4 -19 -19 -76q-5 -18 -11 -35q-15 -45 -54.5 -76t-85.5 -34q-65 -4 -100 54q-53 88 -26 177
q19 63 11 113q-3 19 -20 95q-15 64 -7 106q6 37 27.5 64.5t50 39.5t60 14.5t56.5 -10.5q8 -4 20 -7q29 -9 51 -41q4 -6 7.5 -13t6.5 -12.5t6.5 -14t5.5 -12.5t5.5 -14.5l4.5 -13.5t4 -14.5t3.5 -13.5t4 -15t3.5 -14q3 -8 1.5 -14.5t-7 -10.5t-13.5 -3q-17 1 -75 12
q-5 1 -7 10q-9 40 -13 63q-4 27 -23 33q-28 9 -48 -8q-20 -18 -22 -61v-12z" />
    <glyph glyph-name="c" unicode="&#xe7;" horiz-adv-x="365" 
d="M134 473h-1q10 -62 11 -65q17 -84 -3 -155q-11 -38 -15 -72q-1 -9 3 -46q1 -6 6 -14q14 -26 33 -25q19 0 29 23q29 69 35 88q9 30 42 31q13 0 46 -1q13 0 16.5 -4t0.5 -16q-4 -19 -19 -76q-5 -18 -11 -35q-15 -45 -54.5 -76t-85.5 -34q-65 -4 -100 54q-53 88 -26 177
q19 63 11 113q-3 19 -20 95q-15 64 -7 106q6 37 27.5 64.5t50 39.5t60 14.5t56.5 -10.5q8 -4 20 -7q29 -9 51 -41q4 -6 7.5 -13t6.5 -12.5t6.5 -14t5.5 -12.5t5.5 -14.5l4.5 -13.5t4 -14.5t3.5 -13.5t4 -15t3.5 -14q3 -8 1.5 -14.5t-7 -10.5t-13.5 -3q-17 1 -75 12
q-5 1 -7 10q-9 40 -13 63q-4 27 -23 33q-28 9 -48 -8q-20 -18 -22 -61v-12z" />
    <glyph glyph-name="d" unicode="d" horiz-adv-x="391" 
d="M136 2v1h-57q-14 1 -32 7t-20 30q-7 119 14 192q9 32 13 65q7 54 -10 102q-20 52 -22 117.5t6 119.5q2 19 20 20l1 0.5l1 0.5q14 -1 42 -2t45 -1.5t41 -4.5t43 -11q71 -25 93 -97q3 -12 48 -161q17 -54 -10 -114q-25 -56 -45 -149q-2 -8 -4.5 -24t-3.5 -21
q-5 -28 -30 -45q-38 -25 -80 -25h-13.5h-13h-13.5h-13zM215 498q-23 60 -90 55q-6 -58 2 -106q2 -8 7.5 -38t7.5 -46q6 -52 -15 -127q-16 -55 -16 -113q0 -3 1 -46q41 -1 56 9q39 28 52 66q19 55 36 116q18 60 6 98q-20 64 -47 132z" />
    <glyph glyph-name="e" unicode="e" horiz-adv-x="351" 
d="M282 657q2 0 33 -1q1 -70 0 -77q0 -17 -21 -21q-38 -6 -57 -7h-71h-9.5h-10.5h-9q-13 -60 35 -188h91h21q20 -1 27.5 -9.5t4.5 -28.5q0 -1 -3 -22q-3 -17 -9 -23t-22 -7q-18 0 -88 -3h-24q-37 -96 -32 -180h30h126q20 0 25 -16q8 -28 9 -38q4 -27 -25 -32q-5 -1 -27 -2
q-59 -1 -207 -5h-14q-11 1 -16 5t-8 15q-3 10 -4 22t-1 19.5t1 23t1 19.5q3 80 34 162q28 77 -7 156q-23 51 -30 96q-6 38 3 108q2 16 10.5 23t25.5 7q92 2 218 4z" />
    <glyph glyph-name="e" unicode="&#xeb;" horiz-adv-x="351" 
d="M282 657q2 0 33 -1q1 -70 0 -77q0 -17 -21 -21q-38 -6 -57 -7h-71h-9.5h-10.5h-9q-13 -60 35 -188h91h21q20 -1 27.5 -9.5t4.5 -28.5q0 -1 -3 -22q-3 -17 -9 -23t-22 -7q-18 0 -88 -3h-24q-37 -96 -32 -180h30h126q20 0 25 -16q8 -28 9 -38q4 -27 -25 -32q-5 -1 -27 -2
q-59 -1 -207 -5h-14q-11 1 -16 5t-8 15q-3 10 -4 22t-1 19.5t1 23t1 19.5q3 80 34 162q28 77 -7 156q-23 51 -30 96q-6 38 3 108q2 16 10.5 23t25.5 7q92 2 218 4z" />
    <glyph glyph-name="e" unicode="&#xea;" horiz-adv-x="351" 
d="M282 657q2 0 33 -1q1 -70 0 -77q0 -17 -21 -21q-38 -6 -57 -7h-71h-9.5h-10.5h-9q-13 -60 35 -188h91h21q20 -1 27.5 -9.5t4.5 -28.5q0 -1 -3 -22q-3 -17 -9 -23t-22 -7q-18 0 -88 -3h-24q-37 -96 -32 -180h30h126q20 0 25 -16q8 -28 9 -38q4 -27 -25 -32q-5 -1 -27 -2
q-59 -1 -207 -5h-14q-11 1 -16 5t-8 15q-3 10 -4 22t-1 19.5t1 23t1 19.5q3 80 34 162q28 77 -7 156q-23 51 -30 96q-6 38 3 108q2 16 10.5 23t25.5 7q92 2 218 4z" />
    <glyph glyph-name="e" unicode="&#xe9;" horiz-adv-x="351" 
d="M282 657q2 0 33 -1q1 -70 0 -77q0 -17 -21 -21q-38 -6 -57 -7h-71h-9.5h-10.5h-9q-13 -60 35 -188h91h21q20 -1 27.5 -9.5t4.5 -28.5q0 -1 -3 -22q-3 -17 -9 -23t-22 -7q-18 0 -88 -3h-24q-37 -96 -32 -180h30h126q20 0 25 -16q8 -28 9 -38q4 -27 -25 -32q-5 -1 -27 -2
q-59 -1 -207 -5h-14q-11 1 -16 5t-8 15q-3 10 -4 22t-1 19.5t1 23t1 19.5q3 80 34 162q28 77 -7 156q-23 51 -30 96q-6 38 3 108q2 16 10.5 23t25.5 7q92 2 218 4z" />
    <glyph glyph-name="e" unicode="&#xe8;" horiz-adv-x="351" 
d="M282 657q2 0 33 -1q1 -70 0 -77q0 -17 -21 -21q-38 -6 -57 -7h-71h-9.5h-10.5h-9q-13 -60 35 -188h91h21q20 -1 27.5 -9.5t4.5 -28.5q0 -1 -3 -22q-3 -17 -9 -23t-22 -7q-18 0 -88 -3h-24q-37 -96 -32 -180h30h126q20 0 25 -16q8 -28 9 -38q4 -27 -25 -32q-5 -1 -27 -2
q-59 -1 -207 -5h-14q-11 1 -16 5t-8 15q-3 10 -4 22t-1 19.5t1 23t1 19.5q3 80 34 162q28 77 -7 156q-23 51 -30 96q-6 38 3 108q2 16 10.5 23t25.5 7q92 2 218 4z" />
    <glyph glyph-name="f" unicode="f" horiz-adv-x="353" 
d="M176 548q-2 0 -36 3q-3 -55 17 -100q4 -9 41 -89h53q35 0 44 -1q13 -2 21.5 -8t12.5 -16t1 -23q-8 -51 -54 -45q-10 2 -22 3.5t-26 4t-22 3.5q-1 0 -14 1q-39 -76 -42 -82q-14 -31 -17 -78q-2 -27 -4 -95q-1 -15 -4 -18.5t-18 -5.5q-29 -4 -38 -3q-46 3 -47 49v54.5t4 55
t14 53.5q9 24 20 51q29 70 1 139q-16 40 -26 80q-2 8 -3.5 15t-2 15.5t-1 14.5t0 15.5t1 14.5t1.5 16t1.5 14t2 15.5t1.5 14.5q3 21 26 21h67.5h51.5q83 1 108 1q16 0 22.5 -5t9.5 -21q5 -26 -6 -42t-36 -19q-18 -2 -103 -3z" />
    <glyph glyph-name="g" unicode="g" horiz-adv-x="430" 
d="M342 509q2 -8 11 -84q-15 -4 -17 -5q-14 -1 -50 -2q-17 -1 -24 18q-16 44 -23 62q-8 20 -14 29q-16 23 -39 22t-36 -25q-18 -32 -5 -69q9 -28 24 -55q36 -69 -1 -139q-4 -7 -9.5 -17t-10.5 -19.5t-9 -17.5q-20 -39 -9 -76q4 -14 12 -25q11 -15 29 -16.5t31 12.5
q9 8 21 30t58 112l11 22q-31 10 -34 12q-13 4 -15.5 8.5t-0.5 17.5q2 9 4 18.5t4.5 22t3.5 20.5q101 9 110 10q35 1 42 -36q6 -33 -9 -61q-36 -71 -62 -170q-26 -97 -130 -110q-35 -4 -67 -1q-61 7 -92 71l-16 38q-18 46 4 96q11 24 27 51q47 78 2 155q-18 31 -22 40
q-15 30 -12 63t17.5 60.5t43.5 46.5t65 21q108 5 169 -84q12 -19 18 -46z" />
    <glyph glyph-name="h" unicode="h" horiz-adv-x="434" 
d="M166 431q3 -5 39 -84h107q-16 41 -17 44q0 1 -23 43q-21 39 -22 74q-2 85 -3 106q0 17 6 23t23 5q26 0 46 -2q8 -1 13 -4t7.5 -8t2.5 -14q0 -42 -1 -71q-4 -76 36 -135l4 -6t4 -6.5t3 -5.5q39 -64 7 -131q-14 -28 -25 -47q-25 -43 -29 -101q-4 -63 -5 -75
q-1 -10 -2.5 -15t-4.5 -8t-8 -4.5t-14 -2.5q-23 -3 -37 -2q-28 1 -29 26q-1 35 -1.5 65.5t7 64.5t24.5 62q1 2 28 52q-34 2 -36 2h-31t-25 1q-15 0 -21 -13.5t-25 -46.5q-27 -50 -28 -108q-1 -41 -5 -69q-3 -22 -11.5 -29t-30.5 -7q-14 -1 -41 3q-21 3 -22 21q-5 35 -4 80.5
t17 77.5q4 9 24 45q1 1 10 15q50 76 4 151q-10 17 -23 43q-21 42 -16 91q1 10 2 21t1.5 19.5t1.5 20t2 20.5q2 20 7 24.5t25 5.5h41q19 -2 26 -9.5t7 -25.5q1 -24 -3 -57q-7 -67 18 -119z" />
    <glyph glyph-name="i" unicode="i" horiz-adv-x="215" 
d="M115 618q0 -5 4 -59v-30q-2 -52 28 -100q25 -40 30 -50q28 -52 7 -104q-13 -30 -24 -52q-35 -63 -31 -130q1 -2 0.5 -21.5t-0.5 -21.5q0 -21 -21 -33q-32 -16 -73 2q-11 4 -11 18q-1 36 -1.5 67t8.5 65.5t29 61.5q9 14 22 40q28 57 -1 111q-5 8 -11 17.5t-13 21t-11 17.5
q-22 36 -23 74q-1 42 1 94q0 17 4 21t19 7q22 4 43 4q14 1 18.5 -3t6.5 -17z" />
    <glyph glyph-name="i" unicode="&#xef;" horiz-adv-x="215" 
d="M115 618q0 -5 4 -59v-30q-2 -52 28 -100q25 -40 30 -50q28 -52 7 -104q-13 -30 -24 -52q-35 -63 -31 -130q1 -2 0.5 -21.5t-0.5 -21.5q0 -21 -21 -33q-32 -16 -73 2q-11 4 -11 18q-1 36 -1.5 67t8.5 65.5t29 61.5q9 14 22 40q28 57 -1 111q-5 8 -11 17.5t-13 21t-11 17.5
q-22 36 -23 74q-1 42 1 94q0 17 4 21t19 7q22 4 43 4q14 1 18.5 -3t6.5 -17z" />
    <glyph glyph-name="i" unicode="&#xee;" horiz-adv-x="215" 
d="M115 618q0 -5 4 -59v-30q-2 -52 28 -100q25 -40 30 -50q28 -52 7 -104q-13 -30 -24 -52q-35 -63 -31 -130q1 -2 0.5 -21.5t-0.5 -21.5q0 -21 -21 -33q-32 -16 -73 2q-11 4 -11 18q-1 36 -1.5 67t8.5 65.5t29 61.5q9 14 22 40q28 57 -1 111q-5 8 -11 17.5t-13 21t-11 17.5
q-22 36 -23 74q-1 42 1 94q0 17 4 21t19 7q22 4 43 4q14 1 18.5 -3t6.5 -17z" />
    <glyph glyph-name="i" unicode="&#xed;" horiz-adv-x="215" 
d="M115 618q0 -5 4 -59v-30q-2 -52 28 -100q25 -40 30 -50q28 -52 7 -104q-13 -30 -24 -52q-35 -63 -31 -130q1 -2 0.5 -21.5t-0.5 -21.5q0 -21 -21 -33q-32 -16 -73 2q-11 4 -11 18q-1 36 -1.5 67t8.5 65.5t29 61.5q9 14 22 40q28 57 -1 111q-5 8 -11 17.5t-13 21t-11 17.5
q-22 36 -23 74q-1 42 1 94q0 17 4 21t19 7q22 4 43 4q14 1 18.5 -3t6.5 -17z" />
    <glyph glyph-name="i" unicode="&#xec;" horiz-adv-x="215" 
d="M115 618q0 -5 4 -59v-30q-2 -52 28 -100q25 -40 30 -50q28 -52 7 -104q-13 -30 -24 -52q-35 -63 -31 -130q1 -2 0.5 -21.5t-0.5 -21.5q0 -21 -21 -33q-32 -16 -73 2q-11 4 -11 18q-1 36 -1.5 67t8.5 65.5t29 61.5q9 14 22 40q28 57 -1 111q-5 8 -11 17.5t-13 21t-11 17.5
q-22 36 -23 74q-1 42 1 94q0 17 4 21t19 7q22 4 43 4q14 1 18.5 -3t6.5 -17z" />
    <glyph glyph-name="j" unicode="j" horiz-adv-x="325" 
d="M238 602h1q0 -20 -1 -21q-12 -64 30 -143q6 -11 24 -45q25 -49 -4 -104q-14 -26 -28 -45q-42 -58 -42 -124q0 -54 -56 -95q-15 -11 -47 -16q-19 -4 -66 -6q-14 -1 -19.5 4t-6.5 19q-1 2 -1 7q-1 37 5 45t32 11q4 1 7 2q48 7 61 52q16 57 53 112q5 8 18 31q26 48 3 102
q-7 16 -25 47q-29 48 -29 100q-1 30 1 92q0 11 3.5 15.5t14.5 5.5q25 3 46 2q14 0 19.5 -5.5t6.5 -19.5v-23z" />
    <glyph glyph-name="k" unicode="k" horiz-adv-x="383" 
d="M145 461q0 -1 8 -12q6 57 44 112q26 38 44 70q10 16 25 19q31 5 52 5q22 0 16 -22q-2 -9 -8 -19q-5 -8 -15.5 -25t-15.5 -26q-23 -38 -33 -58q-11 -23 -11.5 -53.5t3.5 -55.5q0 -2 9 -15q3 -5 11 -15.5t12 -16.5q33 -47 24 -105q-10 -61 18 -123q12 -29 26 -64
q6 -16 7 -29q2 -14 -5.5 -23.5t-21.5 -9.5q-29 1 -62 11q-11 4 -19 22q-7 16 -40 105q-21 56 -8 108q4 19 4 53q-26 -16 -44 -42q-35 -48 -37 -131q-1 -47 -6 -77q-4 -30 -31 -40.5t-51 7.5q-13 10 -15 27q-1 22 -3 97q0 13 1 27q5 40 27 75q13 22 28 50q29 53 -1 115
q-9 19 -24 42q-35 53 -29 115q3 32 5 62q2 21 21 24q40 6 52 6q38 -3 34 -42q-1 -8 -3.5 -23t-3.5 -20q-8 -54 16 -105z" />
    <glyph glyph-name="l" unicode="l" horiz-adv-x="292" 
d="M140 201q-29 -55 -22 -119q84 3 93 3q18 0 38 -4q12 -3 16.5 -8.5t4.5 -17.5q1 -9 0 -18q-3 -25 -26 -31q-8 -2 -12 -2q-114 -5 -172 3q-2 1 -15 4q-23 6 -23 28q0 56 8 98t31 79q2 4 4.5 8t5.5 9.5t5 8.5q35 62 6 130q-10 25 -27 59q-25 52 -24 111q1 44 3 85
q1 14 6.5 20t18.5 7q16 2 36 -3q23 -5 24 -30v-41q0 -9 -0.5 -31t-0.5 -34q0 -45 22 -88q4 -9 13.5 -27.5t14.5 -27.5q27 -55 2 -111z" />
    <glyph glyph-name="m" unicode="m" horiz-adv-x="590" 
d="M458 295q1 1 2 13q-14 -32 -59 -79q-22 -24 -32 -36q-35 -41 -46 -94q-10 -42 -19 -74q-5 -15 -11.5 -19t-22.5 -2q-15 1 -25 3q-21 4 -25 24q-1 4 -18 73q-13 50 5 102q12 33 17 55q8 38 -17 71q5 -53 -41 -119q-37 -53 -35 -121q0 -32 -3 -67q-2 -17 -8 -22.5t-23 -4.5
q-20 1 -57 4q-17 2 -16 19q1 15 2 52.5t2 57.5q1 33 21 70q18 33 31 61q23 51 -4 102q-10 21 -19 34q-40 60 -34 138l6 90q1 11 6 15.5t18 4.5q21 0 62 -6q2 0 37 -8q22 -92 23 -98q13 -74 67 -128q18 -18 42 -46q53 -61 24 -127q-2 -5 -1 -10q48 50 58 90q6 23 -6 53
q-8 20 -20 39q-33 51 -20 112q3 15 7 33l8 36t8 32q3 18 21 20q11 2 32.5 6t25.5 4q9 2 19 1q26 -1 34 -10t6 -35q-1 -10 -1.5 -23t-1.5 -25.5t-2 -22.5q-4 -59 34 -110q5 -6 15 -18.5t15 -19.5q30 -41 29.5 -76t-31.5 -75q-19 -25 -32 -45q-22 -34 -22 -76q1 -62 1 -80
q-1 -21 -8 -28t-27 -7q-18 1 -49 9q-23 6 -25 28q-6 36 -2.5 79.5t24.5 76.5q7 11 29 42q27 38 32 62z" />
    <glyph glyph-name="n" unicode="n" horiz-adv-x="419" 
d="M249 413q27 -45 35 -100q17 44 5 104q-4 24 -17 65q-20 68 1 168q4 20 13 24.5t29 -1.5q6 -2 18 -5.5t17 -5.5q12 -3 17.5 -7.5t8 -11t2.5 -18.5q0 -6 -0.5 -46.5t0.5 -45.5q2 -31 11 -71q22 -95 -12 -180q-22 -57 -25 -140q-1 -54 -5 -101q-1 -20 -8 -26.5t-28 -7.5h-20
q-30 2 -39 28q-41 129 -53 176q-2 8 -3 17.5t-1 16.5v19v18q0 52 -17 92q0 1 -8 14v-32q2 -34 -23 -98q-19 -50 -21 -110q-2 -42 -5 -101q0 -9 -3 -18q-3 -16 -9.5 -21t-21.5 -5q-19 1 -43 6q-20 3 -21 24q0 42 -0.5 79.5t6 80t20.5 78.5q33 84 0 180q-25 75 -24 179v9
q1 10 3 16t6.5 10.5t11 6.5t15.5 3q23 1 37.5 -3t24.5 -14.5t19 -31.5q11 -23 21 -56q19 -59 53 -107q16 -21 33 -50z" />
    <glyph glyph-name="n" unicode="&#xf1;" horiz-adv-x="419" 
d="M249 413q27 -45 35 -100q17 44 5 104q-4 24 -17 65q-20 68 1 168q4 20 13 24.5t29 -1.5q6 -2 18 -5.5t17 -5.5q12 -3 17.5 -7.5t8 -11t2.5 -18.5q0 -6 -0.5 -46.5t0.5 -45.5q2 -31 11 -71q22 -95 -12 -180q-22 -57 -25 -140q-1 -54 -5 -101q-1 -20 -8 -26.5t-28 -7.5h-20
q-30 2 -39 28q-41 129 -53 176q-2 8 -3 17.5t-1 16.5v19v18q0 52 -17 92q0 1 -8 14v-32q2 -34 -23 -98q-19 -50 -21 -110q-2 -42 -5 -101q0 -9 -3 -18q-3 -16 -9.5 -21t-21.5 -5q-19 1 -43 6q-20 3 -21 24q0 42 -0.5 79.5t6 80t20.5 78.5q33 84 0 180q-25 75 -24 179v9
q1 10 3 16t6.5 10.5t11 6.5t15.5 3q23 1 37.5 -3t24.5 -14.5t19 -31.5q11 -23 21 -56q19 -59 53 -107q16 -21 33 -50z" />
    <glyph glyph-name="o" unicode="o" horiz-adv-x="390" 
d="M39 283q1 7 6.5 26t7.5 28.5t4.5 25t3.5 29.5q-13 82 -14 88q-10 57 5 100q13 33 41 51q45 29 89 35q26 3 52 -4q74 -24 93 -81q32 -96 40 -181q5 -47 -16 -102q-24 -61 -29 -134q-6 -106 -112 -141q-24 -8 -43 -3q-63 16 -101 56q-52 53 -43 131q4 29 16 76zM149 278
q-3 -12 -5.5 -25t-5 -30.5t-3.5 -26.5q9 -51 11 -56q4 -20 24 -21q19 0 28 18q4 11 8 26q4 17 10 43t12 49.5t11 43.5q16 64 10 116q-4 33 -29 118q-1 4 -15 22q-7 9 -21 6q-25 -5 -27 -32q-2 -30 1 -55q17 -107 -9 -196z" />
    <glyph glyph-name="o" unicode="&#xf8;" horiz-adv-x="390" 
d="M39 283q1 7 6.5 26t7.5 28.5t4.5 25t3.5 29.5q-13 82 -14 88q-10 57 5 100q13 33 41 51q45 29 89 35q26 3 52 -4q74 -24 93 -81q32 -96 40 -181q5 -47 -16 -102q-24 -61 -29 -134q-6 -106 -112 -141q-24 -8 -43 -3q-63 16 -101 56q-52 53 -43 131q4 29 16 76zM149 278
q-3 -12 -5.5 -25t-5 -30.5t-3.5 -26.5q9 -51 11 -56q4 -20 24 -21q19 0 28 18q4 11 8 26q4 17 10 43t12 49.5t11 43.5q16 64 10 116q-4 33 -29 118q-1 4 -15 22q-7 9 -21 6q-25 -5 -27 -32q-2 -30 1 -55q17 -107 -9 -196z" />
    <glyph glyph-name="o" unicode="&#xf6;" horiz-adv-x="390" 
d="M39 283q1 7 6.5 26t7.5 28.5t4.5 25t3.5 29.5q-13 82 -14 88q-10 57 5 100q13 33 41 51q45 29 89 35q26 3 52 -4q74 -24 93 -81q32 -96 40 -181q5 -47 -16 -102q-24 -61 -29 -134q-6 -106 -112 -141q-24 -8 -43 -3q-63 16 -101 56q-52 53 -43 131q4 29 16 76zM149 278
q-3 -12 -5.5 -25t-5 -30.5t-3.5 -26.5q9 -51 11 -56q4 -20 24 -21q19 0 28 18q4 11 8 26q4 17 10 43t12 49.5t11 43.5q16 64 10 116q-4 33 -29 118q-1 4 -15 22q-7 9 -21 6q-25 -5 -27 -32q-2 -30 1 -55q17 -107 -9 -196z" />
    <glyph glyph-name="o" unicode="&#xf5;" horiz-adv-x="390" 
d="M39 283q1 7 6.5 26t7.5 28.5t4.5 25t3.5 29.5q-13 82 -14 88q-10 57 5 100q13 33 41 51q45 29 89 35q26 3 52 -4q74 -24 93 -81q32 -96 40 -181q5 -47 -16 -102q-24 -61 -29 -134q-6 -106 -112 -141q-24 -8 -43 -3q-63 16 -101 56q-52 53 -43 131q4 29 16 76zM149 278
q-3 -12 -5.5 -25t-5 -30.5t-3.5 -26.5q9 -51 11 -56q4 -20 24 -21q19 0 28 18q4 11 8 26q4 17 10 43t12 49.5t11 43.5q16 64 10 116q-4 33 -29 118q-1 4 -15 22q-7 9 -21 6q-25 -5 -27 -32q-2 -30 1 -55q17 -107 -9 -196z" />
    <glyph glyph-name="o" unicode="&#xf4;" horiz-adv-x="390" 
d="M39 283q1 7 6.5 26t7.5 28.5t4.5 25t3.5 29.5q-13 82 -14 88q-10 57 5 100q13 33 41 51q45 29 89 35q26 3 52 -4q74 -24 93 -81q32 -96 40 -181q5 -47 -16 -102q-24 -61 -29 -134q-6 -106 -112 -141q-24 -8 -43 -3q-63 16 -101 56q-52 53 -43 131q4 29 16 76zM149 278
q-3 -12 -5.5 -25t-5 -30.5t-3.5 -26.5q9 -51 11 -56q4 -20 24 -21q19 0 28 18q4 11 8 26q4 17 10 43t12 49.5t11 43.5q16 64 10 116q-4 33 -29 118q-1 4 -15 22q-7 9 -21 6q-25 -5 -27 -32q-2 -30 1 -55q17 -107 -9 -196z" />
    <glyph glyph-name="o" unicode="&#xf3;" horiz-adv-x="390" 
d="M39 283q1 7 6.5 26t7.5 28.5t4.5 25t3.5 29.5q-13 82 -14 88q-10 57 5 100q13 33 41 51q45 29 89 35q26 3 52 -4q74 -24 93 -81q32 -96 40 -181q5 -47 -16 -102q-24 -61 -29 -134q-6 -106 -112 -141q-24 -8 -43 -3q-63 16 -101 56q-52 53 -43 131q4 29 16 76zM149 278
q-3 -12 -5.5 -25t-5 -30.5t-3.5 -26.5q9 -51 11 -56q4 -20 24 -21q19 0 28 18q4 11 8 26q4 17 10 43t12 49.5t11 43.5q16 64 10 116q-4 33 -29 118q-1 4 -15 22q-7 9 -21 6q-25 -5 -27 -32q-2 -30 1 -55q17 -107 -9 -196z" />
    <glyph glyph-name="o" unicode="&#xf2;" horiz-adv-x="390" 
d="M39 283q1 7 6.5 26t7.5 28.5t4.5 25t3.5 29.5q-13 82 -14 88q-10 57 5 100q13 33 41 51q45 29 89 35q26 3 52 -4q74 -24 93 -81q32 -96 40 -181q5 -47 -16 -102q-24 -61 -29 -134q-6 -106 -112 -141q-24 -8 -43 -3q-63 16 -101 56q-52 53 -43 131q4 29 16 76zM149 278
q-3 -12 -5.5 -25t-5 -30.5t-3.5 -26.5q9 -51 11 -56q4 -20 24 -21q19 0 28 18q4 11 8 26q4 17 10 43t12 49.5t11 43.5q16 64 10 116q-4 33 -29 118q-1 4 -15 22q-7 9 -21 6q-25 -5 -27 -32q-2 -30 1 -55q17 -107 -9 -196z" />
    <glyph glyph-name="p" unicode="p" horiz-adv-x="383" 
d="M154 253q-1 0 -15 2q-10 -26 -10 -62q-1 -14 -1 -58v-69q0 -19 -6 -45q-4 -21 -26 -20q-31 1 -59 3q-10 1 -12.5 4t-2.5 14q3 139 3 149q4 65 13 93q29 91 4 193q-20 84 -16 155q1 17 4 41q2 13 5.5 16.5t15.5 3.5q57 1 124 -2q46 -1 91 -31q52 -34 65 -88
q23 -89 28 -121q12 -66 -38 -121q-63 -69 -167 -57zM129 574q0 -36 15 -103.5t14 -101.5q29 -4 30 -4q41 1 54 13.5t15 49.5q0 15 -2 35q-2 8 -5 24.5t-5 24.5q-5 39 -42 49q-5 1 -74 13z" />
    <glyph glyph-name="q" unicode="q" horiz-adv-x="405" 
d="M310 120q-1 -3 -11 -47q34 -13 37 -13q15 -6 18 -11.5t-1 -21.5q-5 -19 -11 -32q-5 -12 -11.5 -15.5t-19.5 -1.5q-39 7 -56 35q-96 -40 -191 49q-54 50 -38 140q2 12 8 34t7 24q12 48 15 62q10 47 -9 123q-13 54 -4 96q23 112 118 131q47 10 89 -6.5t60 -62.5
q5 -14 17 -50q4 -12 11 -35t13.5 -41t13.5 -34q40 -96 -11 -188q-25 -44 -44 -135zM140 280q-4 -11 -7 -24t-6 -29.5t-5 -24.5q4 -39 15 -63q5 -10 7 -13.5t8 -9t13 -5.5q8 0 14 4.5t9 9.5t7 14q47 100 65 134q39 75 6 153q-26 61 -39 98q-10 33 -49 38q-19 2 -25 -15
q-9 -23 -9 -35q2 -47 8 -73q20 -86 -12 -159z" />
    <glyph glyph-name="r" unicode="r" horiz-adv-x="411" 
d="M234 139q-21 63 -9 124q-48 5 -53 5q-32 -50 -35 -111q-1 -12 -1.5 -34t-0.5 -31q-2 -47 -15 -76q-5 -13 -10.5 -16.5t-19.5 -1.5q-4 1 -68 13q1 21 1 44t-0.5 43t1 43t5.5 42q3 15 20 61q3 7 10.5 22.5t10.5 23.5q23 61 -3 121q-19 46 -24 60q-12 31 -12.5 72.5
t3.5 74.5q0 3 0.5 5.5t1 5.5t0.5 5q2 18 6 23t22 9q90 20 181 -9q66 -21 87 -81q50 -145 51 -148q21 -67 -32 -105q-34 -24 -37 -67q-3 -51 11 -112q4 -16 8.5 -35t10 -41.5t8.5 -34.5q1 -6 2 -9q2 -19 -3 -25t-24 -6q-29 1 -41 2q-16 2 -21 6.5t-8 20.5q-3 13 -22 108
q0 1 -0.5 4t-0.5 5zM195 574q-4 1 -48 4q-4 -5 -4 -6q-6 -49 2 -73q4 -12 45 -128q29 3 31 3q34 4 43.5 17.5t-1.5 53.5q-7 23 -24 88q-9 36 -44 41z" />
    <glyph glyph-name="s" unicode="s" horiz-adv-x="377" 
d="M118 183q17 -47 19 -51q7 -12 23 -23q41 -26 70 14q17 24 19 58q3 93 -57 150q-48 45 -91 87q-32 31 -42 43q-30 38 -29 77t33 75q39 45 88 61q57 18 110 -9t70 -83q8 -24 11 -45q2 -12 -1.5 -17t-15.5 -7q-20 -3 -59 -6q-19 -2 -27 17q-11 24 -18 35q-20 35 -48 28
q-12 -3 -20.5 -16t-10.5 -31q-4 -70 68 -116q53 -34 92 -61q62 -42 51 -122q-12 -99 -33 -147q-32 -74 -95 -90q-78 -21 -144 38q-27 23 -42 50.5t-17 59.5q0 11 1 19q3 16 17 16q16 -1 78 -4z" />
    <glyph glyph-name="s" unicode="&#xdf;" horiz-adv-x="377" 
d="M118 183q17 -47 19 -51q7 -12 23 -23q41 -26 70 14q17 24 19 58q3 93 -57 150q-48 45 -91 87q-32 31 -42 43q-30 38 -29 77t33 75q39 45 88 61q57 18 110 -9t70 -83q8 -24 11 -45q2 -12 -1.5 -17t-15.5 -7q-20 -3 -59 -6q-19 -2 -27 17q-11 24 -18 35q-20 35 -48 28
q-12 -3 -20.5 -16t-10.5 -31q-4 -70 68 -116q53 -34 92 -61q62 -42 51 -122q-12 -99 -33 -147q-32 -74 -95 -90q-78 -21 -144 38q-27 23 -42 50.5t-17 59.5q0 11 1 19q3 16 17 16q16 -1 78 -4z" />
    <glyph glyph-name="t" unicode="t" horiz-adv-x="372" 
d="M144 529q0 1 -4 29q-42 3 -47 4q-4 0 -20.5 1t-25.5 2q-8 1 -13 3t-7.5 7t-3.5 13q-2 33 1 59q3 28 33 28q12 0 34.5 -2t31.5 -2q19 -1 67.5 -2.5t75.5 -2.5q35 -1 59 -7q11 -3 16.5 -6.5t7 -9.5t1.5 -18q0 -27 -1 -37q-2 -18 -9.5 -24.5t-26.5 -7.5q-3 -1 -72 -4
q-1 -30 14 -65q5 -10 14.5 -28.5t12.5 -22.5q8 -16 13 -29q18 -45 1 -88q-10 -24 -24 -49q-35 -63 -33 -130q1 -10 1 -101q0 -13 -1 -16q-4 -24 -26 -23q-18 1 -48 5q-18 3 -18 20q-1 13 -2 34t-2 36t-1 33t1.5 35.5t4.5 33.5q2 10 6 21t7 18.5t9.5 21t8.5 18.5q21 47 23 69
q4 47 -25 96q-27 46 -33 88z" />
    <glyph glyph-name="u" unicode="u" horiz-adv-x="437" 
d="M254 595q0 2 5 71h99q0 -51 -1 -53q-9 -85 28 -149q9 -15 19 -39q21 -49 3 -94q-16 -40 -22 -51q-24 -44 -35 -116q-5 -28 -18 -69q-23 -68 -110 -86q-49 -10 -93 10.5t-66 66.5q-11 22 -21 51q-15 43 1 86q6 16 22 48q3 7 10.5 20t8.5 16q34 62 -2 121q-20 33 -28 45
q-43 65 -28 159q3 18 9.5 23.5t25.5 6.5h41q8 0 12 -0.5t6.5 -3.5t3 -7l1.5 -12v-53q1 -65 34 -116q14 -22 27 -50q22 -47 1 -91q-10 -19 -28 -53q-26 -47 -28 -73q-2 -29 4 -52q8 -34 51 -40q24 -3 37 19q9 15 13 29q18 67 60 136q8 12 15 28q24 54 -1 103q-14 27 -21 38
q-40 65 -35 131z" />
    <glyph glyph-name="u" unicode="&#xfc;" horiz-adv-x="437" 
d="M254 595q0 2 5 71h99q0 -51 -1 -53q-9 -85 28 -149q9 -15 19 -39q21 -49 3 -94q-16 -40 -22 -51q-24 -44 -35 -116q-5 -28 -18 -69q-23 -68 -110 -86q-49 -10 -93 10.5t-66 66.5q-11 22 -21 51q-15 43 1 86q6 16 22 48q3 7 10.5 20t8.5 16q34 62 -2 121q-20 33 -28 45
q-43 65 -28 159q3 18 9.5 23.5t25.5 6.5h41q8 0 12 -0.5t6.5 -3.5t3 -7l1.5 -12v-53q1 -65 34 -116q14 -22 27 -50q22 -47 1 -91q-10 -19 -28 -53q-26 -47 -28 -73q-2 -29 4 -52q8 -34 51 -40q24 -3 37 19q9 15 13 29q18 67 60 136q8 12 15 28q24 54 -1 103q-14 27 -21 38
q-40 65 -35 131z" />
    <glyph glyph-name="u" unicode="&#xfb;" horiz-adv-x="437" 
d="M254 595q0 2 5 71h99q0 -51 -1 -53q-9 -85 28 -149q9 -15 19 -39q21 -49 3 -94q-16 -40 -22 -51q-24 -44 -35 -116q-5 -28 -18 -69q-23 -68 -110 -86q-49 -10 -93 10.5t-66 66.5q-11 22 -21 51q-15 43 1 86q6 16 22 48q3 7 10.5 20t8.5 16q34 62 -2 121q-20 33 -28 45
q-43 65 -28 159q3 18 9.5 23.5t25.5 6.5h41q8 0 12 -0.5t6.5 -3.5t3 -7l1.5 -12v-53q1 -65 34 -116q14 -22 27 -50q22 -47 1 -91q-10 -19 -28 -53q-26 -47 -28 -73q-2 -29 4 -52q8 -34 51 -40q24 -3 37 19q9 15 13 29q18 67 60 136q8 12 15 28q24 54 -1 103q-14 27 -21 38
q-40 65 -35 131z" />
    <glyph glyph-name="u" unicode="&#xfa;" horiz-adv-x="437" 
d="M254 595q0 2 5 71h99q0 -51 -1 -53q-9 -85 28 -149q9 -15 19 -39q21 -49 3 -94q-16 -40 -22 -51q-24 -44 -35 -116q-5 -28 -18 -69q-23 -68 -110 -86q-49 -10 -93 10.5t-66 66.5q-11 22 -21 51q-15 43 1 86q6 16 22 48q3 7 10.5 20t8.5 16q34 62 -2 121q-20 33 -28 45
q-43 65 -28 159q3 18 9.5 23.5t25.5 6.5h41q8 0 12 -0.5t6.5 -3.5t3 -7l1.5 -12v-53q1 -65 34 -116q14 -22 27 -50q22 -47 1 -91q-10 -19 -28 -53q-26 -47 -28 -73q-2 -29 4 -52q8 -34 51 -40q24 -3 37 19q9 15 13 29q18 67 60 136q8 12 15 28q24 54 -1 103q-14 27 -21 38
q-40 65 -35 131z" />
    <glyph glyph-name="u" unicode="&#xf9;" horiz-adv-x="437" 
d="M254 595q0 2 5 71h99q0 -51 -1 -53q-9 -85 28 -149q9 -15 19 -39q21 -49 3 -94q-16 -40 -22 -51q-24 -44 -35 -116q-5 -28 -18 -69q-23 -68 -110 -86q-49 -10 -93 10.5t-66 66.5q-11 22 -21 51q-15 43 1 86q6 16 22 48q3 7 10.5 20t8.5 16q34 62 -2 121q-20 33 -28 45
q-43 65 -28 159q3 18 9.5 23.5t25.5 6.5h41q8 0 12 -0.5t6.5 -3.5t3 -7l1.5 -12v-53q1 -65 34 -116q14 -22 27 -50q22 -47 1 -91q-10 -19 -28 -53q-26 -47 -28 -73q-2 -29 4 -52q8 -34 51 -40q24 -3 37 19q9 15 13 29q18 67 60 136q8 12 15 28q24 54 -1 103q-14 27 -21 38
q-40 65 -35 131z" />
    <glyph glyph-name="v" unicode="v" horiz-adv-x="428" 
d="M265 596q2 6 3 14t1.5 14.5t2 14t4 14.5t6.5 14q74 -3 81 -4q16 0 20 -4.5t3 -20.5q-1 -24 -5 -50q-8 -47 7 -98q12 -38 14 -51q12 -51 -11 -96q-17 -31 -33 -55q-35 -51 -48 -116q-22 -107 -30 -146q-3 -17 -18 -18q-75 -3 -125 4q-23 82 -25 89q-6 25 -16 69
q-12 61 6 112q32 85 -19 162q-3 4 -6 8.5t-5.5 8.5t-5.5 9t-5 9q-43 65 -38 167q0 4 2 14l4 5q32 -4 44 -5q1 0 10.5 -1t14.5 -2q14 -1 17 -4t6 -18q2 -16 3 -29q3 -77 45 -136q15 -20 31 -51q25 -46 14 -103q-2 -8 -6.5 -27.5t-6.5 -30.5q0 -3 -4 -45l2 -0.5l2 -0.5
q8 11 25 37t29.5 45.5t22.5 38.5q28 49 10 109q-1 4 -15 46q-20 56 -8 108z" />
    <glyph glyph-name="w" unicode="w" horiz-adv-x="572" 
d="M311 289q1 0 4 10q-46 -48 -59 -141q-7 -51 -20 -114q-3 -16 -7.5 -23t-12.5 -10t-25 -3q-13 0 -41 3q-14 1 -16.5 4t-5.5 17q-2 9 -13 60q-15 78 -17 84q-10 52 8 106q9 27 18 60q12 45 -12 84q-20 34 -29 47q-47 67 -53 142q0 2 -8 43l14 4q12 0 40.5 -0.5t40.5 0.5
q16 0 19 -14q8 -38 9 -47q2 -75 44 -125q35 -43 46 -84q0 -1 5 -6q5 21 -4 55q-4 17 -14 44q-26 70 5 166q6 19 26 18h13t15 0.5t13 0.5q12 0 15.5 -2.5t6.5 -14.5l9 -33l9 -33q12 -44 38 -83q3 -4 15 -21t16 -23.5t12.5 -20.5t14 -25.5t9.5 -23.5q5 16 -1 47q-5 24 -13 51
q-12 37 -8 77q4 50 6 78q2 16 7 20.5t20 5.5q29 2 51 2q15 0 22 -6.5t8 -21.5q1 -16 -1 -27q-18 -71 8 -150q21 -63 5 -108q-4 -11 -32 -68q-5 -10 -14.5 -27t-16.5 -31.5t-12 -27.5q-5 -16 -9 -34.5t-8 -41t-7 -34.5q-1 -4 -13 -58q-5 -21 -29 -23q-9 -1 -27.5 -2t-26.5 -1
q-12 -1 -17 13q-10 34 -15 58q-2 14 -7 42.5t-8 43.5q-14 66 10 122z" />
    <glyph glyph-name="x" unicode="x" horiz-adv-x="427" 
d="M29 654v15h89q14 0 21 -16q9 -24 14 -41q17 -65 47 -114q8 -14 18 -24q1 25 7.5 52t14 45.5t21 48.5t19.5 46h44q36 -1 49 -2q21 -2 15 -22q-6 -16 -17 -38q-44 -85 -50 -166q0 -8 -2.5 -18.5t-4.5 -18.5t-5 -19.5t-5 -18.5q-3 -13 -2 -18q2 -14 9.5 -49t10.5 -54
q7 -42 29 -90q9 -17 48 -109q3 -6 5 -13q2 -11 -2 -18t-14 -6q-45 1 -103 7q-7 1 -13 14q-8 20 -21 58q-7 20 -47 135q-8 -12 -8 -13q-17 -45 -29 -80q-3 -10 -13.5 -44t-17.5 -52q-6 -18 -11 -21t-24 -2h-26t-31 1q-17 0 -20.5 5.5t2.5 21.5q7 21 17 42q5 12 20 49t27 61
t27 46q30 42 56 72q29 33 8 67q-5 7 -16 26t-19.5 32.5t-17.5 24.5q-24 27 -43.5 62.5t-30.5 64t-25 71.5z" />
    <glyph glyph-name="y" unicode="y" horiz-adv-x="398" 
d="M204 488q0 -1 7 -12q3 17 7 34.5t9.5 32.5t12 32t13 31t13.5 31t12 30q71 4 77 5q13 0 17.5 -4.5t3.5 -17.5q-1 -11 -7 -24q-4 -12 -13.5 -36.5t-14.5 -36.5q-26 -70 -17 -117q4 -16 3.5 -34.5t-1.5 -29.5t-8 -34t-9 -28.5t-12 -31.5q-4 -12 -22 -46q-26 -49 -24 -101
q2 -61 1 -104q0 -19 -7 -24.5t-25 -3.5q-1 0 -51 4q-19 1 -24.5 6.5t-4.5 23.5q1 27 0 49.5t1 49t7 48.5q4 16 15 44.5t14 35.5q6 17 15 52q5 20 -8 40q-39 58 -47 68q-37 44 -61.5 95.5t-50.5 123.5q-5 15 -1 20.5t19 6.5q2 1 23.5 2.5t33.5 2.5q22 2 32 -17q17 -37 34 -75
q4 -11 9.5 -23.5t9.5 -22.5t9.5 -23t9.5 -22z" />
    <glyph glyph-name="y" unicode="&#xff;" horiz-adv-x="398" 
d="M204 488q0 -1 7 -12q3 17 7 34.5t9.5 32.5t12 32t13 31t13.5 31t12 30q71 4 77 5q13 0 17.5 -4.5t3.5 -17.5q-1 -11 -7 -24q-4 -12 -13.5 -36.5t-14.5 -36.5q-26 -70 -17 -117q4 -16 3.5 -34.5t-1.5 -29.5t-8 -34t-9 -28.5t-12 -31.5q-4 -12 -22 -46q-26 -49 -24 -101
q2 -61 1 -104q0 -19 -7 -24.5t-25 -3.5q-1 0 -51 4q-19 1 -24.5 6.5t-4.5 23.5q1 27 0 49.5t1 49t7 48.5q4 16 15 44.5t14 35.5q6 17 15 52q5 20 -8 40q-39 58 -47 68q-37 44 -61.5 95.5t-50.5 123.5q-5 15 -1 20.5t19 6.5q2 1 23.5 2.5t33.5 2.5q22 2 32 -17q17 -37 34 -75
q4 -11 9.5 -23.5t9.5 -22.5t9.5 -23t9.5 -22z" />
    <glyph glyph-name="y" unicode="&#xfd;" horiz-adv-x="398" 
d="M204 488q0 -1 7 -12q3 17 7 34.5t9.5 32.5t12 32t13 31t13.5 31t12 30q71 4 77 5q13 0 17.5 -4.5t3.5 -17.5q-1 -11 -7 -24q-4 -12 -13.5 -36.5t-14.5 -36.5q-26 -70 -17 -117q4 -16 3.5 -34.5t-1.5 -29.5t-8 -34t-9 -28.5t-12 -31.5q-4 -12 -22 -46q-26 -49 -24 -101
q2 -61 1 -104q0 -19 -7 -24.5t-25 -3.5q-1 0 -51 4q-19 1 -24.5 6.5t-4.5 23.5q1 27 0 49.5t1 49t7 48.5q4 16 15 44.5t14 35.5q6 17 15 52q5 20 -8 40q-39 58 -47 68q-37 44 -61.5 95.5t-50.5 123.5q-5 15 -1 20.5t19 6.5q2 1 23.5 2.5t33.5 2.5q22 2 32 -17q17 -37 34 -75
q4 -11 9.5 -23.5t9.5 -22.5t9.5 -23t9.5 -22z" />
    <glyph glyph-name="z" unicode="z" horiz-adv-x="335" 
d="M208 552q0 1 3 12h-149h-3.5t-4.5 -0.5t-3 -0.5q-16 0 -21.5 5t-6.5 21q-1 7 0 68q0 15 16 15q3 1 10 1.5t11 0.5q73 2 218 7h16q15 0 15 -16q1 -115 1 -117q0 -6 -6 -25q-12 -42 -10 -88v-28q2 -62 -31 -109q-10 -13 -29.5 -37.5t-26.5 -34.5q-25 -34 -61 -86
q-1 -1 -11 -24q104 3 122 3q10 1 34 0q18 -1 19 -19q3 -46 3 -62q0 -7 -1.5 -11t-5.5 -6t-12 -3q-56 -6 -82 -7q-79 -1 -138 2q-21 1 -30.5 2.5t-15 4.5t-5 8.5t-0.5 15t-1 22.5q-4 59 46 119q7 10 22 26t20 22q37 42 47 57q42 56 31 121q-13 78 20 141z" />
    <glyph glyph-name="verticalbar" unicode="|" horiz-adv-x="159" 
d="M126 800l11 -4q-3 -58 -3 -62q-2 -60 -7 -216q-6 -193 -7 -220q-2 -84 -1 -138q1 -29 -11 -41t-40 -12q-24 1 -32.5 9t-10.5 31q-1 16 -2 119q-1 56 -1 72q1 19 3 69t3 77v84.5v84.5q1 19 6 124q1 17 12 18q25 2 80 5z" />
    <glyph glyph-name="nonbreakingspace" unicode="&#xa0;" horiz-adv-x="236" 
 />
    <glyph glyph-name="softhyphen" unicode="&#xad;" 
 />
    <glyph glyph-name="divide" unicode="&#xf7;" horiz-adv-x="300" 
d="M153 143q20 2 32.5 -9t14.5 -31q5 -40 -34 -67h-34l-7 6q-33 22 -23 56q3 12 11 22t18 16t22 7zM247 304q16 -1 23 -8t8 -24q3 -59 -57 -66q-94 -11 -118 -13q-16 -1 -53 1q-18 1 -21 14q-7 32 -7 43q0 18 8 26.5t26 12.5q13 4 24 4q25 3 131 11q34 0 36 -1zM146.5 346
q-17.5 0 -30.5 12.5t-13 29.5q1 20 15.5 34.5t33 14t32 -14t13.5 -29.5q-1 -18 -17 -32.5t-33.5 -14.5z" />
  </font>
</defs>
</svg>
